<svg xmlns="http://www.w3.org/2000/svg" xmlns:xlink="http://www.w3.org/1999/xlink" width="76.783" height="76.783" viewBox="0 0 76.783 76.783">
  <defs>
    <radialGradient id="radial-gradient" cx="0.076" cy="0.019" r="1.465" gradientTransform="translate(0.001)" gradientUnits="objectBoundingBox">
      <stop offset="0" stop-color="#f6f6f7"/>
      <stop offset="0.477" stop-color="#f9f9fa"/>
      <stop offset="0.715" stop-color="#fff"/>
    </radialGradient>
  </defs>
  <g id="icon20" transform="translate(-79.021 -32.531)">
    <g id="Grupo_127425" data-name="Grupo 127425" transform="translate(-154.629 -723.452)">
      <g id="Grupo_42274" data-name="Grupo 42274" transform="translate(233.65 755.984)">
        <g id="Grupo_18423" data-name="Grupo 18423" transform="translate(0 0)">
          <g id="Grupo_18421" data-name="Grupo 18421">
            <g id="Grupo_18420" data-name="Grupo 18420">
              <g id="Grupo_18419" data-name="Grupo 18419">
                <path id="Trazado_40936" data-name="Trazado 40936" d="M271.406,2184.112a38.391,38.391,0,1,1-38.391-38.39A38.391,38.391,0,0,1,271.406,2184.112Z" transform="translate(-194.623 -2145.721)" fill="#fff"/>
              </g>
            </g>
          </g>
          <path id="Trazado_40937" data-name="Trazado 40937" d="M271.279,2183.973a38.391,38.391,0,1,0-38.391,38.392A38.239,38.239,0,0,0,271.279,2183.973Z" transform="translate(-194.496 -2145.583)" fill="url(#radial-gradient)"/>
          <path id="Trazado_40938" data-name="Trazado 40938" d="M261.148,2182.943a29.3,29.3,0,1,0-29.3,29.3A29.2,29.2,0,0,0,261.148,2182.943Z" transform="translate(-193.336 -2144.424)" fill="none" stroke="#1d272b" stroke-miterlimit="10" stroke-width="2"/>
          <g id="Grupo_18422" data-name="Grupo 18422" transform="translate(6.801 21.554)">
            <path id="Trazado_40939" data-name="Trazado 40939" d="M266.644,2164.488a38.4,38.4,0,0,1-66.1,38.232,38.274,38.274,0,0,0,66.1-38.232Z" transform="translate(-200.545 -2164.488)" fill="#eceef0"/>
          </g>
        </g>
      </g>
    </g>
    <g id="DShoP1.tif" transform="translate(-4891.231 -1019.895)">
      <g id="Grupo_127480" data-name="Grupo 127480" transform="translate(4991.895 1071.421)">
        <path id="Trazado_163339" data-name="Trazado 163339" d="M5022.14,1112.016a1.169,1.169,0,0,1-.64-1.2q.013-18.549.007-37.1v-.532H5009.82v2.023c.275,0,.559,0,.843,0a2.145,2.145,0,0,1,2.326,2.315c.008.541,0,1.082,0,1.691.479,0,.936-.006,1.392,0a4.192,4.192,0,0,1,2.093.488,3.708,3.708,0,0,1,1.929,2.959,5.346,5.346,0,0,1,.023.594q0,7.134,0,14.268a3.82,3.82,0,0,1-3.946,4.021c-1.293,0-2.587,0-3.81,0-.31.364-.593.674-.85,1a1.628,1.628,0,0,0,.259,2.608,4.37,4.37,0,0,1,1.691,2.55,4.112,4.112,0,0,1-1.5,3.914.816.816,0,0,1-1.118-.027.852.852,0,0,1-.089-1.149c.213-.3.474-.569.669-.88a2,2,0,0,0-.362-2.717c-.24-.226-.506-.425-.741-.656a3.229,3.229,0,0,1-.508-4.253c.068-.11.139-.219.234-.37-.146-.011-.256-.025-.366-.026-1.017,0-2.034-.009-3.05,0a3.852,3.852,0,0,1-3.1-1.4.654.654,0,0,0-.505-.16,8.044,8.044,0,0,1-6.267-1.729,8.131,8.131,0,0,1-3.179-6.533,9.068,9.068,0,0,1,.732-3.225,37.652,37.652,0,0,1,2.9-5.975c1.242-2.131,2.57-4.212,3.873-6.307a.914.914,0,0,1,1.693-.021q1,1.525,1.964,3.068a.4.4,0,0,0,.533.207c.634-.155,1.287-.233,2-.352v-1.457a2.163,2.163,0,0,1,2.275-2.449c.05,0,.1-.017.189-.034v-2.495c0-.983.269-1.256,1.237-1.256q6.4,0,12.793-.006a1.078,1.078,0,0,1,1.173.719V1111.3a1.14,1.14,0,0,1-.713.713Zm-21.891-33.913a.706.706,0,0,0-.062.069,68.137,68.137,0,0,0-5.809,10.6,7.064,7.064,0,0,0-.641,4.158,6.624,6.624,0,0,0,13.124-.879,7.935,7.935,0,0,0-.773-3.365,68.728,68.728,0,0,0-5.712-10.433A1.642,1.642,0,0,0,5000.249,1078.1Zm3.9,2.917c.086.172.136.277.191.38.744,1.381,1.5,2.758,2.225,4.148a.579.579,0,0,0,.6.374c3.022-.014,6.044-.008,9.066-.008h.463c0-.921,0-1.79,0-2.66a2.078,2.078,0,0,0-2.31-2.3q-4.691,0-9.383,0C5004.742,1080.961,5004.48,1081,5004.152,1081.02Zm-.585,18.365a2.049,2.049,0,0,0,1.349.427q3.5-.006,7.006,0c.924,0,1.847.014,2.771-.006a1.98,1.98,0,0,0,1.987-1.912c.035-.725.014-1.452.018-2.178,0-.271,0-.541,0-.794a.9.9,0,0,0-.139-.036c-2.784,0-5.568-.008-8.352.006-.12,0-.272.156-.353.276-.454.677-.84,1.4-1.343,2.04A7.739,7.739,0,0,1,5003.567,1099.385Zm13.113-8.5h-.473c-1.729,0-3.456,0-5.185,0-.665,0-1.064-.329-1.075-.853s.4-.868,1.089-.877h5.633v-1.488h-9.112c.691,1.77,1.33,3.516.919,5.44h8.2Zm-5.421-11.691c0-.628.011-1.232,0-1.836a.4.4,0,0,0-.442-.407q-1.524,0-3.049,0c-.244,0-.423.116-.43.369-.015.617,0,1.235,0,1.873Z" transform="translate(-4991.895 -1071.421)" fill="#1d272b"/>
        <path id="Trazado_163340" data-name="Trazado 163340" d="M5377.784,1574.394a1.141,1.141,0,0,0,.713-.714v.714Z" transform="translate(-5347.143 -1533.798)" fill="#1d272b"/>
        <path id="Trazado_163341" data-name="Trazado 163341" d="M5030.163,1322.7a5.751,5.751,0,0,1-5.454-5.582c-.009-.743.6-1.216,1.21-.937a.959.959,0,0,1,.529.94,4.054,4.054,0,0,0,3.208,3.779c.257.054.523.061.785.093a.864.864,0,1,1-.122,1.718C5030.268,1322.705,5030.215,1322.7,5030.163,1322.7Z" transform="translate(-5022.104 -1296.667)" fill="#1d272b"/>
      </g>
    </g>
  </g>
</svg>
