<svg xmlns="http://www.w3.org/2000/svg" xmlns:xlink="http://www.w3.org/1999/xlink" width="76.783" height="76.783" viewBox="0 0 76.783 76.783">
  <defs>
    <radialGradient id="radial-gradient" cx="0.076" cy="0.019" r="1.465" gradientTransform="translate(0.001)" gradientUnits="objectBoundingBox">
      <stop offset="0" stop-color="#f6f6f7"/>
      <stop offset="0.477" stop-color="#f9f9fa"/>
      <stop offset="0.715" stop-color="#fff"/>
    </radialGradient>
  </defs>
  <g id="icon19" transform="translate(-233.65 -755.983)">
    <g id="Grupo_42274" data-name="Grupo 42274" transform="translate(233.65 755.984)">
      <g id="Grupo_18423" data-name="Grupo 18423" transform="translate(0 0)">
        <g id="Grupo_18421" data-name="Grupo 18421">
          <g id="Grupo_18420" data-name="Grupo 18420">
            <g id="Grupo_18419" data-name="Grupo 18419">
              <path id="Trazado_40936" data-name="Trazado 40936" d="M271.406,2184.112a38.391,38.391,0,1,1-38.391-38.39A38.391,38.391,0,0,1,271.406,2184.112Z" transform="translate(-194.623 -2145.721)" fill="#fff"/>
            </g>
          </g>
        </g>
        <path id="Trazado_40937" data-name="Trazado 40937" d="M271.279,2183.973a38.391,38.391,0,1,0-38.391,38.392A38.239,38.239,0,0,0,271.279,2183.973Z" transform="translate(-194.496 -2145.583)" fill="url(#radial-gradient)"/>
        <path id="Trazado_40938" data-name="Trazado 40938" d="M261.148,2182.943a29.3,29.3,0,1,0-29.3,29.3A29.2,29.2,0,0,0,261.148,2182.943Z" transform="translate(-193.336 -2144.424)" fill="none" stroke="#1d272b" stroke-miterlimit="10" stroke-width="2"/>
        <g id="Grupo_18422" data-name="Grupo 18422" transform="translate(6.801 21.554)">
          <path id="Trazado_40939" data-name="Trazado 40939" d="M266.644,2164.488a38.4,38.4,0,0,1-66.1,38.232,38.274,38.274,0,0,0,66.1-38.232Z" transform="translate(-200.545 -2164.488)" fill="#eceef0"/>
        </g>
      </g>
    </g>
    <g id="_84QdQs" data-name="84QdQs" transform="translate(-4578.09 -373.653)">
      <g id="Grupo_127478" data-name="Grupo 127478" transform="translate(4829.026 1146.429)">
        <path id="Trazado_163327" data-name="Trazado 163327" d="M4829.026,1227.053H4849.2a7.748,7.748,0,0,0-1.241-4.012,25.016,25.016,0,0,1-1.324-4.283,7.276,7.276,0,0,1-.956-1.145c-.947-1.645-1.851-3.315-2.732-5a1.108,1.108,0,0,0-1.161-.7c-1.088.045-2.182-.021-3.271.022-.725.029-.993-.221-.987-.963.028-3.49.014-6.98.015-10.469,0-2.306.028-4.613-.014-6.918-.016-.867.307-1.126,1.15-1.122,6.137.026,12.274.014,18.412.014,2.957,0,5.914-.013,8.871.016a4.779,4.779,0,0,1,1.208.338v18.888a10.137,10.137,0,0,1-1.549.189c-.639-.015-.884.178-.86.85.071,1.961.083,3.924.12,5.886a8.776,8.776,0,0,1-1.778,5.676,2.39,2.39,0,0,0-.641,1.671c.014.268-.321.555-.5.833-.2-.284-.522-.546-.58-.856a2.469,2.469,0,0,1,.648-2.207,6.921,6.921,0,0,0,1.67-4.739q-.057-7.339-.136-14.678c0-.343-.017-.686-.051-1.027a1.517,1.517,0,1,0-3.033.054c-.016,1.464.043,2.928.064,4.393.022,1.5.038,2.991.056,4.487,0,.125.047.285-.013.367-.187.259-.413.49-.625.731-.167-.242-.472-.48-.479-.727-.08-2.647-.12-5.3-.155-7.944-.021-1.558-.008-3.116-.021-4.675-.01-1.159-.673-1.932-1.6-1.894-.913.037-1.438.756-1.427,1.931.04,4.113.087,8.227.09,12.34,0,.343-.271.955-.478.983-.759.1-.654-.55-.661-1.035q-.093-7.009-.172-14.018a1.506,1.506,0,0,0-1.224-1.637,1.342,1.342,0,0,0-1.566.726,2.461,2.461,0,0,0-.23,1.162c.04,4.55.1,9.1.158,13.648,0,.125.044.271-.006.37-.161.319-.356.62-.539.929-.194-.29-.54-.571-.559-.872-.086-1.4-.092-2.8-.107-4.2-.032-2.8-.045-5.609-.081-8.414-.015-1.164-.71-1.88-1.68-1.78-.874.091-1.367.729-1.355,1.8q.078,6.918.167,13.835.031,2.571.049,5.142a6.919,6.919,0,0,0,1.461,4.439,3.866,3.866,0,0,1,.56,3.6h17.065m-1.208-16.314c.024-.25.057-.431.057-.613,0-5.2-.015-10.407.016-15.61,0-.78-.288-.907-.985-.906q-12.665.031-25.33.012c-.3,0-.607.032-.961.052v17.077h8c.022-.247.053-.427.051-.607-.036-3.333-.063-6.667-.119-10a2.834,2.834,0,0,1,1.159-2.6,2.929,2.929,0,0,1,3-.1c1.442-2.882,4.288-2.394,5.395-.071a2.813,2.813,0,0,1,3.293.255c1.074.875.848,2.152.949,3.329,2.739-.842,4.191.243,4.219,3.031.008.81.016,1.62.017,2.43,0,1.425,0,2.849,0,4.322Zm-19.168,6.51V1212h-2.865Z" transform="translate(-4829.026 -1183.855)" fill="#1d272b"/>
        <path id="Trazado_163328" data-name="Trazado 163328" d="M4964.054,1146.429c.422.5.311.9-.146,1.347-2.025,1.981-4.02,3.992-6.03,5.989-.325.323-.708.821-1.135.3-.143-.173.1-.862.354-1.13,2.106-2.194,4.258-4.344,6.4-6.508Z" transform="translate(-4932.826 -1146.429)" fill="#1d272b"/>
        <path id="Trazado_163329" data-name="Trazado 163329" d="M4829.026,1296.7q3.25-3.2,6.5-6.4c.154-.152.3-.384.481-.419a1,1,0,0,1,.746.134c.113.094.1.5-.009.666a5.048,5.048,0,0,1-.758.816c-1.871,1.87-3.756,3.726-5.608,5.614-.449.457-.847.579-1.352.153Z" transform="translate(-4829.026 -1263.037)" fill="#1d272b"/>
        <path id="Trazado_163330" data-name="Trazado 163330" d="M4863.271,1313.138c-.174.218-.294.4-.444.552-.873.888-1.728,1.8-2.649,2.632-.223.2-.674.152-1.021.218.053-.323-.008-.75.177-.952.884-.962,1.817-1.88,2.775-2.77a1.181,1.181,0,0,1,.829-.176C4863.061,1312.653,4863.158,1312.958,4863.271,1313.138Z" transform="translate(-4853.523 -1281.555)" fill="#1d272b"/>
        <path id="Trazado_163331" data-name="Trazado 163331" d="M4989.79,1170.243a5.006,5.006,0,0,1-.446.632c-.868.882-1.723,1.781-2.644,2.6-.223.2-.677.14-1.024.2.059-.326.007-.753.2-.959.878-.956,1.811-1.863,2.756-2.754a1.069,1.069,0,0,1,.743-.207C4989.508,1169.77,4989.625,1170.042,4989.79,1170.243Z" transform="translate(-4956.383 -1165.395)" fill="#1d272b"/>
      </g>
    </g>
  </g>
</svg>
