<svg xmlns="http://www.w3.org/2000/svg" xmlns:xlink="http://www.w3.org/1999/xlink" width="509.507" height="453.385" viewBox="0 0 509.507 453.385">
  <defs>
    <linearGradient id="linear-gradient" x1="0.5" x2="0.5" y2="1" gradientUnits="objectBoundingBox">
      <stop offset="0" stop-color="#f5f5f5"/>
      <stop offset="0.25" stop-color="#f5f5f5"/>
      <stop offset="1" stop-color="#a7b3cf"/>
    </linearGradient>
    <linearGradient id="linear-gradient-8" x1="0.5" x2="0.5" y2="1" gradientUnits="objectBoundingBox">
      <stop offset="0" stop-color="#f5f5f5"/>
      <stop offset="0.25" stop-color="#f5f5f5"/>
      <stop offset="1" stop-color="#eeeef2"/>
    </linearGradient>
  </defs>
  <g id="img14" transform="translate(-174 -5373.161)">
    <g id="Grupo_128278" data-name="Grupo 128278" transform="translate(177.557 5373.161)">
      <path id="Trazado_151846" data-name="Trazado 151846" d="M531.827,526.572c19.657-27.979,25.249-64.291,14.841-96.356-6.581-20.273-19.209-39.106-20.824-60.246-3.23-42.266,37.478-76.437,45.923-118.064,3.712-18.294-.338-39.608-16.248-50.721-15.715-10.976-38.145-8.735-55.936-1.048s-32.846,19.992-49.928,28.988-38.115,14.557-56.154,7.4c-18.272-7.252-28.637-25.533-34.442-43.349s-8.655-36.792-18.563-52.933c-16.33-26.6-51.148-41.107-83.594-37.353s-61.436,24.313-76.986,51.325-18.267,59.682-10.527,89.516c3.927,15.131,10.395,29.622,13.922,44.84s3.85,31.875-4.024,45.582c-16.466,28.664-59.907,32.661-82.655,57.242-18.775,20.288-19.364,51.249-8.709,76.2s30.68,45.193,50.644,64.452c93.123,2.94,187.915,3.135,281.039,6.076C455.8,539.261,495.677,528.572,531.827,526.572Z" transform="translate(-80.962 -84.818)" fill="#a4a4b4" opacity="0.354" style="mix-blend-mode: multiply;isolation: isolate"/>
      <path id="Trazado_151847" data-name="Trazado 151847" d="M359.21,178.315c-.132,17.7,13.305,33.1,10.966,50.556-1.25,9.339-6.934,18.806-3.631,27.325,2.922,7.538,11.292,8.845,17.692,6.394,14.98-5.738,24.085-24.91,28.44-43.751,4.1-17.722,5.112-37.518-1.447-54.039-5.286-13.311-17.481-25.062-29.864-23.975C370.023,141.821,359.309,164.984,359.21,178.315Z" transform="translate(89.999 -36.647)" fill="#a4a4b4" opacity="0.31" style="mix-blend-mode: multiply;isolation: isolate"/>
      <path id="Trazado_151848" data-name="Trazado 151848" d="M121.167,158.222a91.183,91.183,0,0,0-2.135,95.542c5.492,9.248,12.91,17.867,22.926,23.009s22.937,6.29,32.906,1.071c15.119-7.915,18.463-26.582,17.259-42.517s-5.137-32.641,1.549-47.388c4.36-9.613,12.73-17.107,20.155-24.979s14.356-17.061,14.739-27.467c.994-26.976-30.213-24.96-49.02-19.358C155.537,123.289,134.186,138.29,121.167,158.222Z" transform="translate(-53.633 -112.66)" fill="#a4a4b4" opacity="0.31" style="mix-blend-mode: multiply;isolation: isolate"/>
      <g id="Grupo_107069" data-name="Grupo 107069" transform="translate(13.779 9.175)" style="mix-blend-mode: multiply;isolation: isolate">
        <path id="Trazado_151849" data-name="Trazado 151849" d="M519.2,534.238l-1.982-1.718c5.453-5.658,14.158-18.629,11.211-41.949-1.311-10.381-4.562-20.636-7.707-30.552-1.4-4.43-2.856-9.012-4.124-13.561-13.523-48.539-7.607-102.084,16.229-146.9,2.117-3.977,4.408-7.969,6.625-11.827,6.57-11.441,13.362-23.272,16.283-36.052,5.123-22.427-5-39.236-16.581-45.363-11.107-5.881-26.785-4.982-43.012,2.467-5.936,2.724-11.706,6.056-17.285,9.278-7.374,4.26-15,8.663-23.185,11.781-32.209,12.268-72.478,1.842-93.667-24.248-10.184-12.537-15.934-27.69-21.494-42.344-2.154-5.678-4.383-11.551-6.833-17.169-7.621-17.469-21.569-39.4-44.738-44.641-20.358-4.611-40.978,5.523-54.688,14.835-26.231,17.817-44.72,41.948-52.066,67.944-4.952,17.531-5.151,36.611-5.345,55.064-.287,27.48-.584,55.895-16.93,78.779-7.436,10.41-17.665,18.716-27.554,26.75-9.263,7.523-18.842,15.3-25.982,24.732C90.2,390.9,86.232,421.153,95.5,452.53c8.325,28.191,25.3,53.2,41.707,77.4l-2.255,1.378c-16.518-24.348-33.6-49.526-42.034-78.086-9.486-32.126-5.373-63.168,11.285-85.164,7.329-9.679,17.033-17.559,26.415-25.181,9.757-7.923,19.846-16.118,27.078-26.243,15.892-22.249,16.172-49.026,16.468-77.375.195-18.612.4-37.856,5.438-55.7,7.5-26.564,26.362-51.194,53.095-69.355,14.163-9.62,35.527-20.074,56.872-15.24,24.271,5.495,38.735,28.126,46.594,46.144,2.475,5.674,4.714,11.575,6.879,17.281,5.49,14.468,11.166,29.43,21.094,41.651,20.483,25.22,59.41,35.3,90.545,23.439,7.979-3.039,15.507-7.387,22.789-11.592,5.633-3.255,11.458-6.619,17.51-9.4,17.024-7.813,33.6-8.691,45.487-2.4,12.414,6.571,23.309,24.435,17.9,48.128-3,13.139-9.889,25.132-16.551,36.733-2.206,3.842-4.488,7.813-6.584,11.755-23.544,44.271-29.387,97.16-16.029,145.1,1.255,4.508,2.7,9.068,4.1,13.479,3.177,10.021,6.463,20.382,7.8,30.983C534.172,514.6,524.965,528.261,519.2,534.238Z" transform="translate(-87.906 -97.739)" fill="#a4a4b4"/>
      </g>
    </g>
    <g id="Grupo_128277" data-name="Grupo 128277" transform="translate(174 5431.579)">
      <g id="Grupo_128220" data-name="Grupo 128220" transform="translate(80.181 65.359)">
        <g id="Grupo_128183" data-name="Grupo 128183" transform="translate(0 0)">
          <rect id="Rectángulo_35444" data-name="Rectángulo 35444" width="370.024" height="328.317" rx="10" fill="url(#linear-gradient)"/>
        </g>
        <g id="Grupo_128189" data-name="Grupo 128189" transform="translate(12 16.171)">
          <g id="Grupo_128184" data-name="Grupo 128184" transform="translate(2.443)">
            <rect id="Rectángulo_35445" data-name="Rectángulo 35445" width="99.176" height="60.386" rx="10" fill="#1d272b"/>
          </g>
          <g id="Grupo_128185" data-name="Grupo 128185" transform="translate(0 9.804)">
            <rect id="Rectángulo_35446" data-name="Rectángulo 35446" width="4.101" height="12.532" rx="2.051" fill="#868695"/>
          </g>
          <g id="Grupo_128186" data-name="Grupo 128186" transform="translate(0 37.146)">
            <rect id="Rectángulo_35447" data-name="Rectángulo 35447" width="4.101" height="12.532" rx="2.051" fill="#868695"/>
          </g>
          <g id="Grupo_128187" data-name="Grupo 128187" transform="translate(100.253 13.905)">
            <rect id="Rectángulo_35448" data-name="Rectángulo 35448" width="7.747" height="32.81" rx="3.873" fill="#868695"/>
          </g>
          <g id="Grupo_128188" data-name="Grupo 128188" transform="translate(35.316 37.146)">
            <rect id="Rectángulo_35449" data-name="Rectángulo 35449" width="29.392" height="16.405" rx="5" fill="url(#linear-gradient)"/>
          </g>
        </g>
        <g id="Grupo_128195" data-name="Grupo 128195" transform="translate(130.48 16.171)">
          <g id="Grupo_128190" data-name="Grupo 128190" transform="translate(2.443)">
            <rect id="Rectángulo_35450" data-name="Rectángulo 35450" width="99.176" height="60.386" rx="10" fill="#1d272b"/>
          </g>
          <g id="Grupo_128191" data-name="Grupo 128191" transform="translate(0 9.804)">
            <rect id="Rectángulo_35451" data-name="Rectángulo 35451" width="4.101" height="12.532" rx="2.051" fill="#868695"/>
          </g>
          <g id="Grupo_128192" data-name="Grupo 128192" transform="translate(0 37.146)">
            <rect id="Rectángulo_35452" data-name="Rectángulo 35452" width="4.101" height="12.532" rx="2.051" fill="#868695"/>
          </g>
          <g id="Grupo_128193" data-name="Grupo 128193" transform="translate(100.253 13.905)">
            <rect id="Rectángulo_35453" data-name="Rectángulo 35453" width="7.747" height="32.81" rx="3.873" fill="#868695"/>
          </g>
          <g id="Grupo_128194" data-name="Grupo 128194" transform="translate(35.316 37.146)">
            <rect id="Rectángulo_35454" data-name="Rectángulo 35454" width="29.392" height="16.405" rx="5" fill="url(#linear-gradient)"/>
          </g>
        </g>
        <g id="Grupo_128201" data-name="Grupo 128201" transform="translate(248.961 16.171)">
          <g id="Grupo_128196" data-name="Grupo 128196" transform="translate(2.443)">
            <rect id="Rectángulo_35455" data-name="Rectángulo 35455" width="99.176" height="60.386" rx="10" fill="#1d272b"/>
          </g>
          <g id="Grupo_128197" data-name="Grupo 128197" transform="translate(0 9.804)">
            <rect id="Rectángulo_35456" data-name="Rectángulo 35456" width="4.101" height="12.532" rx="2.051" fill="#868695"/>
          </g>
          <g id="Grupo_128198" data-name="Grupo 128198" transform="translate(0 37.146)">
            <rect id="Rectángulo_35457" data-name="Rectángulo 35457" width="4.101" height="12.532" rx="2.051" fill="#868695"/>
          </g>
          <g id="Grupo_128199" data-name="Grupo 128199" transform="translate(100.253 13.905)">
            <rect id="Rectángulo_35458" data-name="Rectángulo 35458" width="7.747" height="32.81" rx="3.873" fill="#868695"/>
          </g>
          <g id="Grupo_128200" data-name="Grupo 128200" transform="translate(35.316 37.146)">
            <rect id="Rectángulo_35459" data-name="Rectángulo 35459" width="29.392" height="16.405" rx="5" fill="url(#linear-gradient)"/>
          </g>
        </g>
        <g id="Grupo_128207" data-name="Grupo 128207" transform="translate(12 89.082)">
          <g id="Grupo_128202" data-name="Grupo 128202" transform="translate(2.443)">
            <rect id="Rectángulo_35460" data-name="Rectángulo 35460" width="99.176" height="60.386" rx="10" fill="#1d272b"/>
          </g>
          <g id="Grupo_128203" data-name="Grupo 128203" transform="translate(0 9.804)">
            <rect id="Rectángulo_35461" data-name="Rectángulo 35461" width="4.101" height="12.532" rx="2.051" fill="#868695"/>
          </g>
          <g id="Grupo_128204" data-name="Grupo 128204" transform="translate(0 37.146)">
            <rect id="Rectángulo_35462" data-name="Rectángulo 35462" width="4.101" height="12.532" rx="2.051" fill="#868695"/>
          </g>
          <g id="Grupo_128205" data-name="Grupo 128205" transform="translate(100.253 13.905)">
            <rect id="Rectángulo_35463" data-name="Rectángulo 35463" width="7.747" height="32.81" rx="3.873" fill="#868695"/>
          </g>
          <g id="Grupo_128206" data-name="Grupo 128206" transform="translate(35.316 37.146)">
            <rect id="Rectángulo_35464" data-name="Rectángulo 35464" width="29.392" height="16.405" rx="5" fill="url(#linear-gradient)"/>
          </g>
        </g>
        <g id="Grupo_128213" data-name="Grupo 128213" transform="translate(130.48 89.082)">
          <g id="Grupo_128208" data-name="Grupo 128208" transform="translate(2.443)">
            <rect id="Rectángulo_35465" data-name="Rectángulo 35465" width="99.176" height="60.386" rx="10" fill="#1d272b"/>
          </g>
          <g id="Grupo_128209" data-name="Grupo 128209" transform="translate(0 9.804)">
            <rect id="Rectángulo_35466" data-name="Rectángulo 35466" width="4.101" height="12.532" rx="2.051" fill="#868695"/>
          </g>
          <g id="Grupo_128210" data-name="Grupo 128210" transform="translate(0 37.146)">
            <rect id="Rectángulo_35467" data-name="Rectángulo 35467" width="4.101" height="12.532" rx="2.051" fill="#868695"/>
          </g>
          <g id="Grupo_128211" data-name="Grupo 128211" transform="translate(100.253 13.905)">
            <rect id="Rectángulo_35468" data-name="Rectángulo 35468" width="7.747" height="32.81" rx="3.873" fill="#868695"/>
          </g>
          <g id="Grupo_128212" data-name="Grupo 128212" transform="translate(35.316 37.146)">
            <rect id="Rectángulo_35469" data-name="Rectángulo 35469" width="29.392" height="16.405" rx="5" fill="url(#linear-gradient)"/>
          </g>
        </g>
        <g id="Grupo_128219" data-name="Grupo 128219" transform="translate(248.961 89.082)">
          <g id="Grupo_128214" data-name="Grupo 128214" transform="translate(2.443)">
            <rect id="Rectángulo_35470" data-name="Rectángulo 35470" width="99.176" height="60.386" rx="10" fill="#1d272b"/>
          </g>
          <g id="Grupo_128215" data-name="Grupo 128215" transform="translate(0 9.804)">
            <rect id="Rectángulo_35471" data-name="Rectángulo 35471" width="4.101" height="12.532" rx="2.051" fill="#3e2b9e"/>
          </g>
          <g id="Grupo_128216" data-name="Grupo 128216" transform="translate(0 37.146)">
            <rect id="Rectángulo_35472" data-name="Rectángulo 35472" width="4.101" height="12.532" rx="2.051" fill="#868695"/>
          </g>
          <g id="Grupo_128217" data-name="Grupo 128217" transform="translate(100.253 13.905)">
            <rect id="Rectángulo_35473" data-name="Rectángulo 35473" width="7.747" height="32.81" rx="3.873" fill="#868695"/>
          </g>
          <g id="Grupo_128218" data-name="Grupo 128218" transform="translate(35.316 37.146)">
            <rect id="Rectángulo_35474" data-name="Rectángulo 35474" width="29.392" height="16.405" rx="5" fill="url(#linear-gradient)"/>
          </g>
        </g>
      </g>
      <g id="Grupo_128244" data-name="Grupo 128244" transform="translate(86.141 232.856)">
        <g id="Grupo_128221" data-name="Grupo 128221" transform="translate(43.61 3.952)">
          <path id="Trazado_165244" data-name="Trazado 165244" d="M1011.317,1154.149s-16.406-.1-20.316-3.1c-3.066-2.35-2.285-4.571-7.314-13.445a11.485,11.485,0,0,1-.457-4.942c.388-2.561-4.368-3-3.962,3.3a13.378,13.378,0,0,0-2.387,9.5c.967,5.892,3.218,6.725,3.6,10.615.273,2.745,0,7.568,5.267,8.11,4.88.5,8.531-.726,16.973-.345s10.386-.45,10.386-.45Z" transform="translate(-974.858 -1130.904)" fill="#edbe8c"/>
          <path id="Trazado_165245" data-name="Trazado 165245" d="M973.148,1172.273s-1.4-2.406-2.695-2.535-1.3,1.77-.853,2.277,1.594,1.769,1.931,2.233S973.823,1173.254,973.148,1172.273Z" transform="translate(-969.33 -1159.897)" fill="#edbe8c"/>
          <path id="Trazado_165246" data-name="Trazado 165246" d="M981.891,1142.651a9.6,9.6,0,0,1-.637-2.9,1.16,1.16,0,0,0-2.233-.537c-.8,1.49.194,4.315,1.105,4.6S982.315,1144.016,981.891,1142.651Z" transform="translate(-976.347 -1136.542)" fill="#edbe8c"/>
          <path id="Trazado_165247" data-name="Trazado 165247" d="M977.182,1149.36a9.6,9.6,0,0,1-1.252-2.7,1.16,1.16,0,0,0-2.3-.04c-.457,1.628,1.126,4.17,2.077,4.251S977.892,1150.6,977.182,1149.36Z" transform="translate(-972.483 -1141.904)" fill="#edbe8c"/>
          <path id="Trazado_165248" data-name="Trazado 165248" d="M974.7,1159.723a9.607,9.607,0,0,1-1.31-2.67,1.16,1.16,0,0,0-2.3.01c-.422,1.637,1.216,4.145,2.168,4.2S975.439,1160.948,974.7,1159.723Z" transform="translate(-970.598 -1149.682)" fill="#edbe8c"/>
        </g>
        <g id="Grupo_128223" data-name="Grupo 128223" transform="translate(42.404 36.892)">
          <g id="Grupo_128222" data-name="Grupo 128222">
            <path id="Trazado_165249" data-name="Trazado 165249" d="M1187.083,1374.216a4.856,4.856,0,0,1-2.091-.474L967.35,1270.232a4.876,4.876,0,0,1,4.189-8.807l217.642,103.511a4.877,4.877,0,0,1-2.1,9.28Z" transform="translate(-964.568 -1260.952)" fill="#1d272b"/>
          </g>
        </g>
        <g id="Grupo_128225" data-name="Grupo 128225" transform="translate(66.783 36.892)">
          <g id="Grupo_128224" data-name="Grupo 128224">
            <path id="Trazado_165250" data-name="Trazado 165250" d="M1065.7,1374.216a4.877,4.877,0,0,1-2.1-9.28l217.642-103.511a4.876,4.876,0,0,1,4.189,8.807L1067.79,1373.742A4.856,4.856,0,0,1,1065.7,1374.216Z" transform="translate(-1060.819 -1260.951)" fill="#1d272b"/>
          </g>
        </g>
        <g id="Grupo_128226" data-name="Grupo 128226" transform="translate(184.868 81.773)" opacity="0.5" style="mix-blend-mode: multiply;isolation: isolate">
          <path id="Trazado_165251" data-name="Trazado 165251" d="M1535.935,1438.146l-8.908,4.265,2.688,9.52,11.773-5.794Z" transform="translate(-1527.027 -1438.146)" fill="#3e2b9e"/>
        </g>
        <g id="Grupo_128228" data-name="Grupo 128228" transform="translate(187.474 13.36)">
          <g id="Grupo_128227" data-name="Grupo 128227">
            <ellipse id="Elipse_4387" data-name="Elipse 4387" cx="18.125" cy="12.747" rx="18.125" ry="12.747" fill="#3e2b9e"/>
          </g>
        </g>
        <g id="Grupo_128230" data-name="Grupo 128230" transform="translate(14.628 49.794)">
          <g id="Grupo_128229" data-name="Grupo 128229">
            <path id="Trazado_165252" data-name="Trazado 165252" d="M1185.654,1321.64H859.784a4.876,4.876,0,1,1,0-9.752h325.87a4.876,4.876,0,1,1,0,9.752Z" transform="translate(-854.908 -1311.888)" fill="#1d272b"/>
          </g>
        </g>
        <g id="Grupo_128231" data-name="Grupo 128231" transform="translate(130.913 83.669)" opacity="0.5" style="mix-blend-mode: multiply;isolation: isolate">
          <path id="Trazado_165253" data-name="Trazado 165253" d="M1314.009,1448.906l11.554,5.495,15.07-3.631-10.488-5.138Z" transform="translate(-1314.009 -1445.632)" fill="#3e2b9e"/>
        </g>
        <g id="Grupo_128233" data-name="Grupo 128233" transform="translate(0 36.385)">
          <g id="Grupo_128232" data-name="Grupo 128232">
            <rect id="Rectángulo_35475" data-name="Rectángulo 35475" width="360.814" height="13.815" rx="6.907" fill="#1d272b"/>
          </g>
        </g>
        <path id="Trazado_165254" data-name="Trazado 165254" d="M1017.454,1281.719l-12.461.028s-.271-15.313-3.251-17.456-8.988-2.629-13.027-5.7c0,0,28.128-.339,28.67.107S1020.84,1278.469,1017.454,1281.719Z" transform="translate(-940.196 -1222.202)" fill="#3e2b9e" opacity="0.5" style="mix-blend-mode: multiply;isolation: isolate"/>
        <g id="Grupo_128234" data-name="Grupo 128234" transform="translate(334.959 36.536)" opacity="0.5" style="mix-blend-mode: multiply;isolation: isolate">
          <path id="Trazado_165255" data-name="Trazado 165255" d="M2123.064,1259.547h2.438s-2.3,9.584-2.438,13.257l8.7.33s2.439.979,2.781,2.762c0,0-9.536.14-11.482,6.659l-3.115-.255S2118.053,1259.7,2123.064,1259.547Z" transform="translate(-2119.598 -1259.547)" fill="#3e2b9e"/>
        </g>
        <g id="Grupo_128236" data-name="Grupo 128236" transform="translate(71.558)">
          <g id="Grupo_128235" data-name="Grupo 128235">
            <path id="Trazado_165256" data-name="Trazado 165256" d="M1081.309,1175.969a181.945,181.945,0,0,0-.542-26.664c-.968-8.813-2.941-10.308,3.115-10.582,34.4-1.557,51.2-9.635,64.537-12.068,11.175-2.038,40.289-9.051,58.69-7.493,19.119,1.619,46.445-3.861,62.636-3.861,18.42,0,22.605,11.925,31.319,9.932,2.983-.683-.216-5.472,6.852-5.472,4.842,0,7-3.455,8.951-1.94a24.151,24.151,0,0,0,10.608,4.676c5.629,1.169,11.872,10.8,10.4,19.182-1.283,7.287,9.2,6.159,8.939,9.481-.382,4.85-2.438,7.433-2.047,18.81.231,6.721-32.876,3.92-52.143-1.059s-32.473-3.247-45.246-1.3-35.07-8.01-45.245-9.093-44.163,7.577-56.5,5.629a100.021,100.021,0,0,0-36.824.851C1097.114,1167.6,1077.652,1205.9,1081.309,1175.969Z" transform="translate(-1079.673 -1115.3)" fill="url(#linear-gradient-8)"/>
          </g>
        </g>
        <g id="Grupo_128238" data-name="Grupo 128238" transform="translate(71.274 26.362)">
          <g id="Grupo_128237" data-name="Grupo 128237">
            <path id="Trazado_165257" data-name="Trazado 165257" d="M1307.078,1226.5c-.791-.578-83.319-1.732-103.1-5.773s-81.555,2.309-82.421,2.309-34.987-3.577-37.561-1.719c-5.957,4.3-2.573,8.594-3.32,27.084-.265,6.548-4.181,27.242-.665,33.284,5.068,8.707,7.668,1.164,58.182-1.722,36.032-2.059,45.135-13.759,53.217-10.519s7.794,19.853,32.617,28.8,36.37-17.319,45.895-18.265,24.464,12.043,51.885,17.816,20.444-45.75,22.67-59.822S1307.868,1227.074,1307.078,1226.5Z" transform="translate(-1078.549 -1219.378)" fill="url(#linear-gradient-8)"/>
          </g>
        </g>
        <g id="Grupo_128240" data-name="Grupo 128240" transform="translate(157.537 34.004)" style="mix-blend-mode: screen;isolation: isolate">
          <g id="Grupo_128239" data-name="Grupo 128239" opacity="0.5" style="mix-blend-mode: screen;isolation: isolate">
            <path id="Trazado_165258" data-name="Trazado 165258" d="M1591.048,1252.8h-170.3a1.625,1.625,0,0,1,0-3.251h170.3a1.625,1.625,0,1,1,0,3.251Z" transform="translate(-1419.121 -1249.551)" fill="#3e2b9e"/>
          </g>
        </g>
        <g id="Grupo_128242" data-name="Grupo 128242" transform="translate(85.752 34.004)" style="mix-blend-mode: screen;isolation: isolate">
          <g id="Grupo_128241" data-name="Grupo 128241" opacity="0.5" style="mix-blend-mode: screen;isolation: isolate">
            <path id="Trazado_165259" data-name="Trazado 165259" d="M1195.5,1252.8h-58.163a1.625,1.625,0,1,1,0-3.251H1195.5a1.625,1.625,0,0,1,0,3.251Z" transform="translate(-1135.712 -1249.551)" fill="#3e2b9e"/>
          </g>
        </g>
        <g id="Grupo_128243" data-name="Grupo 128243" transform="translate(147.357 99.321)" opacity="0.5" style="mix-blend-mode: multiply;isolation: isolate">
          <path id="Trazado_165260" data-name="Trazado 165260" d="M1388.513,1507.427l11.353,5.4-19.08,9.074-1.854-9.917Z" transform="translate(-1378.932 -1507.427)" fill="#3e2b9e"/>
        </g>
      </g>
      <g id="Grupo_128252" data-name="Grupo 128252" transform="translate(0 216.825)">
        <g id="Grupo_128245" data-name="Grupo 128245" transform="translate(0 52.416)">
          <rect id="Rectángulo_35476" data-name="Rectángulo 35476" width="69.887" height="13.815" rx="6.907" fill="url(#linear-gradient)"/>
        </g>
        <g id="Grupo_128246" data-name="Grupo 128246" transform="translate(5.282 65.011)">
          <path id="Trazado_165261" data-name="Trazado 165261" d="M531.557,1318.431H482.8a4.876,4.876,0,1,1,0-9.752h48.759a4.876,4.876,0,1,1,0,9.752Z" transform="translate(-477.922 -1308.679)" fill="#1d272b"/>
        </g>
        <g id="Grupo_128247" data-name="Grupo 128247" transform="translate(10.565 65.824)">
          <path id="Trazado_165262" data-name="Trazado 165262" d="M503.654,1416.333a4.876,4.876,0,0,1-4.876-4.876v-94.693a4.876,4.876,0,0,1,9.752,0v94.693A4.876,4.876,0,0,1,503.654,1416.333Z" transform="translate(-498.778 -1311.888)" fill="#1d272b"/>
        </g>
        <g id="Grupo_128248" data-name="Grupo 128248" transform="translate(48.759 65.824)">
          <path id="Trazado_165263" data-name="Trazado 165263" d="M654.448,1416.333a4.876,4.876,0,0,1-4.876-4.876v-94.693a4.876,4.876,0,0,1,9.752,0v94.693A4.876,4.876,0,0,1,654.448,1416.333Z" transform="translate(-649.572 -1311.888)" fill="#1d272b"/>
        </g>
        <g id="Grupo_128249" data-name="Grupo 128249" transform="translate(10.158 8.126)">
          <rect id="Rectángulo_35477" data-name="Rectángulo 35477" width="22.754" height="44.831" rx="5" fill="#868695"/>
        </g>
        <g id="Grupo_128250" data-name="Grupo 128250" transform="translate(15.44)">
          <rect id="Rectángulo_35478" data-name="Rectángulo 35478" width="12.596" height="13.409" rx="5" fill="#1d272b"/>
        </g>
        <g id="Grupo_128251" data-name="Grupo 128251" transform="translate(37.788 43.477)">
          <path id="Trazado_165264" data-name="Trazado 165264" d="M638.357,1228.127c0,2.458-2.56,4.469-5.688,4.469H611.946c-3.129,0-5.689-2.011-5.689-4.469s2.56-4.47,5.689-4.47h20.723C635.8,1223.658,638.357,1225.669,638.357,1228.127Z" transform="translate(-606.257 -1223.658)" fill="#008f85"/>
        </g>
      </g>
      <g id="Grupo_128253" data-name="Grupo 128253" transform="translate(140.181 373.665)">
        <rect id="Rectángulo_35479" data-name="Rectángulo 35479" width="37.382" height="15.034" rx="7.517" transform="translate(0 0)" fill="#008f85"/>
      </g>
      <g id="Grupo_128254" data-name="Grupo 128254" transform="translate(335.216 373.665)">
        <rect id="Rectángulo_35480" data-name="Rectángulo 35480" width="37.382" height="15.034" rx="7.517" transform="translate(0 0)" fill="#008f85"/>
      </g>
      <g id="Grupo_128275" data-name="Grupo 128275" transform="translate(4.024 271.694)">
        <path id="Trazado_165270" data-name="Trazado 165270" d="M532.276,1271.888h-57.7a1.625,1.625,0,1,1,0-3.251h57.7a1.625,1.625,0,0,1,0,3.251Z" transform="translate(-472.953 -1268.637)" fill="#1d272b"/>
      </g>
    </g>
    <g id="Grupo_127707" data-name="Grupo 127707" transform="translate(301.085 5454.861)">
      <path id="Trazado_163848" data-name="Trazado 163848" d="M202.862,339.612a5.258,5.258,0,0,0,5.87,4.572l12.537-1.578a5.258,5.258,0,0,0,4.571-5.879h0a5.262,5.262,0,0,0-5.883-4.558l-12.525,1.573a5.256,5.256,0,0,0-4.571,5.87Z" transform="translate(-202.821 -239.338)" fill="#1d272b"/>
      <path id="Trazado_163849" data-name="Trazado 163849" d="M213.185,399.976c13.731,26.578,43.182,30.187,74.785,15.823,31.586-14.35,46.572-50.315,29.42-74.811-14.442-20.617-44.4-28.862-74.1-10.3C212.274,350.075,200.4,375.228,213.185,399.976Z" transform="translate(-185.049 -278.894)" fill="#1d272b"/>
      <path id="Trazado_163850" data-name="Trazado 163850" d="M213.025,390.592c8.668,20.394,37.865,26.517,65.241,13.622,27.376-12.877,42.559-39.878,33.908-60.286S274.3,317.411,246.937,330.3C219.544,343.187,204.375,370.175,213.025,390.592Z" transform="translate(-176.717 -268.15)" fill="url(#linear-gradient)"/>
      <path id="Trazado_163851" data-name="Trazado 163851" d="M221.242,350.615c3.591,5.582,11.5,6.9,17.693,2.924s8.276-11.714,4.689-17.3-11.509-6.9-17.684-2.924C219.747,337.285,217.651,345.024,221.242,350.615Z" transform="translate(-146.856 -243.06)" fill="#db8804"/>
      <path id="Trazado_163852" data-name="Trazado 163852" d="M216.2,350.8c3.791,4.035,11.047,3.1,16.237-2.1,5.173-5.2,6.31-12.677,2.528-16.7s-11.051-3.1-16.229,2.1S212.422,346.759,216.2,350.8Z" transform="translate(-165.386 -248.194)" fill="#db8804"/>
      <path id="Trazado_163853" data-name="Trazado 163853" d="M249.241,335.247c.357,5.521-5.29,10.171-12.633,10.415-7.33.222-13.566-4.066-13.923-9.579s5.29-10.184,12.625-10.406C242.652,325.437,248.883,329.726,249.241,335.247Z" transform="translate(-136.175 -261.025)" fill="#db8804"/>
      <path id="Trazado_163854" data-name="Trazado 163854" d="M214.655,346.913c-.405-4.855,4.493-9.047,10.951-9.378s12.006,3.356,12.411,8.2-4.493,9.051-10.943,9.374S215.06,351.767,214.655,346.913Z" transform="translate(-163.161 -221.242)" fill="#db8804"/>
      <path id="Trazado_163855" data-name="Trazado 163855" d="M248.373,332.8c-3.857-3.961-11.1-2.885-16.2,2.4-5.073,5.295-6.066,12.795-2.214,16.756s11.1,2.894,16.189-2.406S252.234,336.772,248.373,332.8Z" transform="translate(-119.57 -245.105)" fill="#db8804"/>
      <path id="Trazado_163856" data-name="Trazado 163856" d="M243.1,341.118c-2.31-4.284-8.694-5.121-14.294-1.878-5.574,3.251-8.232,9.361-5.922,13.649s8.7,5.134,14.285,1.878S245.407,345.419,243.1,341.118Z" transform="translate(-138.242 -222.084)" fill="#db8804"/>
      <path id="Trazado_163857" data-name="Trazado 163857" d="M213.744,407.063V376.2l65.727-39.965V258.227L266.623,271.9l-2.037,55.631-60.648,47.574.728,33.773Z" transform="translate(-199.066 -310.834)" fill="#1d272b"/>
    </g>
    <g id="Grupo_128279" data-name="Grupo 128279" transform="translate(101 -15)">
      <path id="Trazado_165302" data-name="Trazado 165302" d="M9.824-6.162H4.2v3.809h6.6V0H1.27V-14.219h9.512v2.373H4.2v3.389H9.824Zm6.533-1.25,1.777-3.154h3.018L18.145-5.391,21.279,0H18.252L16.367-3.32,14.492,0H11.455L14.59-5.391l-3-5.176h3.027ZM32.021-5.186a6.337,6.337,0,0,1-1.108,3.911A3.554,3.554,0,0,1,27.92.2,3.292,3.292,0,0,1,25.332-.918v4.98H22.51V-10.566h2.617l.1,1.035a3.317,3.317,0,0,1,2.676-1.23,3.578,3.578,0,0,1,3.037,1.445,6.509,6.509,0,0,1,1.084,3.984ZM29.2-5.391a4.159,4.159,0,0,0-.522-2.275,1.7,1.7,0,0,0-1.519-.8,1.848,1.848,0,0,0-1.826,1.016v4.326A1.879,1.879,0,0,0,27.178-2.08Q29.2-2.08,29.2-5.391Zm4.131.01a6.267,6.267,0,0,1,.605-2.8,4.432,4.432,0,0,1,1.743-1.9,5.086,5.086,0,0,1,2.642-.674,4.812,4.812,0,0,1,3.491,1.309A5.252,5.252,0,0,1,43.32-5.9l.02.723a5.523,5.523,0,0,1-1.357,3.9A4.718,4.718,0,0,1,38.34.2,4.742,4.742,0,0,1,34.692-1.27,5.62,5.62,0,0,1,33.33-5.254Zm2.822.2a3.95,3.95,0,0,0,.566,2.3,1.868,1.868,0,0,0,1.621.8,1.873,1.873,0,0,0,1.6-.787,4.322,4.322,0,0,0,.576-2.518,3.91,3.91,0,0,0-.576-2.289,1.873,1.873,0,0,0-1.621-.812,1.842,1.842,0,0,0-1.6.807A4.395,4.395,0,0,0,36.152-5.181Zm11.523-5.386.088,1.221A3.689,3.689,0,0,1,50.8-10.762a3.066,3.066,0,0,1,2.5.986,4.6,4.6,0,0,1,.84,2.949V0H51.318V-6.758a1.831,1.831,0,0,0-.391-1.3,1.749,1.749,0,0,0-1.3-.405,1.942,1.942,0,0,0-1.787,1.016V0H45.02V-10.566ZM61.143.2A5.187,5.187,0,0,1,57.358-1.23a5.068,5.068,0,0,1-1.46-3.8V-5.3a6.383,6.383,0,0,1,.615-2.847,4.515,4.515,0,0,1,1.743-1.934,4.893,4.893,0,0,1,2.573-.679,4.385,4.385,0,0,1,3.413,1.367,5.555,5.555,0,0,1,1.245,3.877v1.152H58.76a2.622,2.622,0,0,0,.825,1.66,2.5,2.5,0,0,0,1.743.625,3.046,3.046,0,0,0,2.549-1.182l1.387,1.553a4.237,4.237,0,0,1-1.719,1.4A5.639,5.639,0,0,1,61.143.2ZM60.82-8.486a1.764,1.764,0,0,0-1.362.569,2.946,2.946,0,0,0-.669,1.628h3.926v-.226a2.1,2.1,0,0,0-.508-1.457A1.819,1.819,0,0,0,60.82-8.486Zm8.867-2.08.088,1.221a3.689,3.689,0,0,1,3.037-1.416,3.066,3.066,0,0,1,2.5.986,4.6,4.6,0,0,1,.84,2.949V0H73.33V-6.758a1.831,1.831,0,0,0-.391-1.3,1.749,1.749,0,0,0-1.3-.405,1.942,1.942,0,0,0-1.787,1.016V0H67.031V-10.566Zm11.982-2.6v2.6h1.807V-8.5H81.67v5.273a1.259,1.259,0,0,0,.225.84,1.128,1.128,0,0,0,.859.254,4.5,4.5,0,0,0,.83-.068V-.059A5.81,5.81,0,0,1,81.875.2q-2.969,0-3.027-3V-8.5H77.3v-2.07h1.543v-2.6ZM89.912.2A5.187,5.187,0,0,1,86.128-1.23a5.068,5.068,0,0,1-1.46-3.8V-5.3a6.383,6.383,0,0,1,.615-2.847,4.515,4.515,0,0,1,1.743-1.934,4.893,4.893,0,0,1,2.573-.679,4.385,4.385,0,0,1,3.413,1.367,5.555,5.555,0,0,1,1.245,3.877v1.152H87.529a2.622,2.622,0,0,0,.825,1.66A2.5,2.5,0,0,0,90.1-2.08a3.046,3.046,0,0,0,2.549-1.182l1.387,1.553a4.237,4.237,0,0,1-1.719,1.4A5.639,5.639,0,0,1,89.912.2ZM89.59-8.486a1.764,1.764,0,0,0-1.362.569,2.946,2.946,0,0,0-.669,1.628h3.926v-.226a2.1,2.1,0,0,0-.508-1.457A1.819,1.819,0,0,0,89.59-8.486ZM101.582-2.92a.909.909,0,0,0-.513-.815,5.824,5.824,0,0,0-1.646-.532q-3.77-.791-3.77-3.2a2.9,2.9,0,0,1,1.167-2.349,4.708,4.708,0,0,1,3.052-.942,5.067,5.067,0,0,1,3.218.947A2.985,2.985,0,0,1,104.3-7.354h-2.822a1.366,1.366,0,0,0-.391-1,1.653,1.653,0,0,0-1.221-.4,1.689,1.689,0,0,0-1.1.322,1.017,1.017,0,0,0-.391.82.87.87,0,0,0,.444.757,4.571,4.571,0,0,0,1.5.5,12.244,12.244,0,0,1,1.777.474,2.92,2.92,0,0,1,2.236,2.842A2.756,2.756,0,0,1,103.086-.7a5.35,5.35,0,0,1-3.2.894,5.588,5.588,0,0,1-2.358-.474,3.957,3.957,0,0,1-1.616-1.3,3.018,3.018,0,0,1-.586-1.782H98a1.473,1.473,0,0,0,.557,1.152,2.208,2.208,0,0,0,1.387.4,2.044,2.044,0,0,0,1.226-.308A.957.957,0,0,0,101.582-2.92Zm19.053-2.266a6.337,6.337,0,0,1-1.108,3.911A3.554,3.554,0,0,1,116.533.2a3.292,3.292,0,0,1-2.588-1.113v4.98h-2.822V-10.566h2.617l.1,1.035a3.317,3.317,0,0,1,2.676-1.23,3.578,3.578,0,0,1,3.037,1.445,6.509,6.509,0,0,1,1.084,3.984Zm-2.822-.205a4.159,4.159,0,0,0-.522-2.275,1.7,1.7,0,0,0-1.519-.8,1.848,1.848,0,0,0-1.826,1.016v4.326a1.879,1.879,0,0,0,1.846,1.045Q117.813-2.08,117.813-5.391ZM127.246.2a5.187,5.187,0,0,1-3.784-1.426,5.068,5.068,0,0,1-1.46-3.8V-5.3a6.383,6.383,0,0,1,.615-2.847,4.515,4.515,0,0,1,1.743-1.934,4.893,4.893,0,0,1,2.573-.679,4.385,4.385,0,0,1,3.413,1.367,5.555,5.555,0,0,1,1.245,3.877v1.152h-6.729a2.622,2.622,0,0,0,.825,1.66,2.5,2.5,0,0,0,1.743.625,3.046,3.046,0,0,0,2.549-1.182l1.387,1.553a4.237,4.237,0,0,1-1.719,1.4A5.639,5.639,0,0,1,127.246.2Zm-.322-8.682a1.764,1.764,0,0,0-1.362.569,2.946,2.946,0,0,0-.669,1.628h3.926v-.226a2.1,2.1,0,0,0-.508-1.457A1.819,1.819,0,0,0,126.924-8.486Zm12.207.566A7.667,7.667,0,0,0,138.115-8a2.067,2.067,0,0,0-2.1,1.084V0h-2.822V-10.566h2.666l.078,1.26a2.615,2.615,0,0,1,2.354-1.455,2.957,2.957,0,0,1,.879.127ZM143.467,0h-2.832V-10.566h2.832Zm-3-13.3a1.39,1.39,0,0,1,.425-1.045,1.6,1.6,0,0,1,1.157-.41,1.6,1.6,0,0,1,1.152.41,1.382,1.382,0,0,1,.43,1.045,1.386,1.386,0,0,1-.435,1.055,1.6,1.6,0,0,1-1.147.41,1.6,1.6,0,0,1-1.147-.41A1.386,1.386,0,0,1,140.469-13.3Zm4.883,7.92a6.267,6.267,0,0,1,.605-2.8,4.432,4.432,0,0,1,1.743-1.9,5.086,5.086,0,0,1,2.642-.674,4.812,4.812,0,0,1,3.491,1.309A5.252,5.252,0,0,1,155.342-5.9l.02.723A5.523,5.523,0,0,1,154-1.274,4.718,4.718,0,0,1,150.361.2a4.742,4.742,0,0,1-3.647-1.465,5.62,5.62,0,0,1-1.362-3.984Zm2.822.2a3.95,3.95,0,0,0,.566,2.3,1.868,1.868,0,0,0,1.621.8,1.873,1.873,0,0,0,1.6-.787,4.322,4.322,0,0,0,.576-2.518,3.91,3.91,0,0,0-.576-2.289,1.873,1.873,0,0,0-1.621-.812,1.842,1.842,0,0,0-1.6.807A4.395,4.395,0,0,0,148.174-5.181Zm8.486-.181A6.368,6.368,0,0,1,157.769-9.3a3.6,3.6,0,0,1,3.032-1.465,3.236,3.236,0,0,1,2.549,1.152V-15h2.832V0h-2.549L163.5-1.123A3.321,3.321,0,0,1,160.781.2a3.587,3.587,0,0,1-2.993-1.47A6.573,6.573,0,0,1,156.66-5.361Zm2.822.21A4.171,4.171,0,0,0,160-2.872a1.686,1.686,0,0,0,1.5.792,1.888,1.888,0,0,0,1.846-1.105V-7.362a1.861,1.861,0,0,0-1.826-1.105Q159.482-8.467,159.482-5.151Zm8.447-.23a6.267,6.267,0,0,1,.605-2.8,4.432,4.432,0,0,1,1.743-1.9,5.086,5.086,0,0,1,2.642-.674,4.812,4.812,0,0,1,3.491,1.309A5.252,5.252,0,0,1,177.92-5.9l.02.723a5.523,5.523,0,0,1-1.357,3.9A4.718,4.718,0,0,1,172.939.2a4.742,4.742,0,0,1-3.647-1.465,5.62,5.62,0,0,1-1.362-3.984Zm2.822.2a3.95,3.95,0,0,0,.566,2.3,1.868,1.868,0,0,0,1.621.8,1.873,1.873,0,0,0,1.6-.787,4.322,4.322,0,0,0,.576-2.518,3.91,3.91,0,0,0-.576-2.289,1.873,1.873,0,0,0-1.621-.812,1.842,1.842,0,0,0-1.6.807A4.395,4.395,0,0,0,170.752-5.181Z" transform="translate(360 5436)" fill="#008f85"/>
      <path id="Trazado_165301" data-name="Trazado 165301" d="M3.917-11.095l.092,1.241A3.9,3.9,0,0,1,7.2-11.3a2.959,2.959,0,0,1,2.943,1.692A3.809,3.809,0,0,1,13.474-11.3a3.309,3.309,0,0,1,2.687,1.051,4.831,4.831,0,0,1,.882,3.163V0H14.068V-7.075A2.113,2.113,0,0,0,13.7-8.454a1.636,1.636,0,0,0-1.3-.436,1.85,1.85,0,0,0-1.846,1.271L10.562,0H7.6V-7.065a2.087,2.087,0,0,0-.379-1.395A1.652,1.652,0,0,0,5.927-8.89,1.92,1.92,0,0,0,4.1-7.844V0H1.138V-11.095ZM18.857-5.65a6.58,6.58,0,0,1,.636-2.943,4.654,4.654,0,0,1,1.83-2A5.34,5.34,0,0,1,24.1-11.3a5.052,5.052,0,0,1,3.666,1.374,5.514,5.514,0,0,1,1.584,3.732l.021.759a5.8,5.8,0,0,1-1.425,4.1A4.954,4.954,0,0,1,24.117.205a4.979,4.979,0,0,1-3.83-1.538,5.9,5.9,0,0,1-1.43-4.184Zm2.963.21a4.147,4.147,0,0,0,.595,2.418,1.962,1.962,0,0,0,1.7.837A1.966,1.966,0,0,0,25.8-3.011a4.538,4.538,0,0,0,.6-2.644,4.106,4.106,0,0,0-.6-2.4,1.967,1.967,0,0,0-1.7-.852,1.934,1.934,0,0,0-1.682.847A4.614,4.614,0,0,0,21.82-5.44Zm8.911-.19a6.686,6.686,0,0,1,1.164-4.132A3.776,3.776,0,0,1,35.079-11.3a3.4,3.4,0,0,1,2.676,1.21v-5.66h2.974V0H38.052l-.144-1.179A3.487,3.487,0,0,1,35.058.205a3.766,3.766,0,0,1-3.143-1.543A6.9,6.9,0,0,1,30.731-5.629Zm2.963.221a4.38,4.38,0,0,0,.543,2.393,1.77,1.77,0,0,0,1.579.832,1.983,1.983,0,0,0,1.938-1.16V-7.73a1.954,1.954,0,0,0-1.917-1.16Q33.694-8.89,33.694-5.409ZM48.132.205a5.447,5.447,0,0,1-3.973-1.5,5.321,5.321,0,0,1-1.533-3.989v-.287a6.7,6.7,0,0,1,.646-2.989,4.741,4.741,0,0,1,1.83-2.03,5.137,5.137,0,0,1,2.7-.713,4.6,4.6,0,0,1,3.584,1.436,5.833,5.833,0,0,1,1.307,4.071v1.21H45.63A2.753,2.753,0,0,0,46.5-2.84a2.619,2.619,0,0,0,1.83.656A3.2,3.2,0,0,0,51-3.425l1.456,1.63a4.449,4.449,0,0,1-1.8,1.471A5.921,5.921,0,0,1,48.132.205Zm-.338-9.116a1.852,1.852,0,0,0-1.43.6,3.093,3.093,0,0,0-.7,1.71h4.122V-6.84A2.206,2.206,0,0,0,49.25-8.37,1.91,1.91,0,0,0,47.793-8.911Zm12.817.595A8.051,8.051,0,0,0,59.544-8.4a2.171,2.171,0,0,0-2.2,1.138V0H54.376V-11.095h2.8l.082,1.323A2.746,2.746,0,0,1,59.729-11.3a3.105,3.105,0,0,1,.923.133Zm4.153-2.779.092,1.282A3.874,3.874,0,0,1,68.045-11.3a3.219,3.219,0,0,1,2.625,1.036,4.832,4.832,0,0,1,.882,3.1V0H68.588V-7.1a1.923,1.923,0,0,0-.41-1.369,1.836,1.836,0,0,0-1.364-.426,2.039,2.039,0,0,0-1.876,1.066V0H61.975V-11.095ZM73.336-5.65a6.58,6.58,0,0,1,.636-2.943,4.654,4.654,0,0,1,1.83-2,5.34,5.34,0,0,1,2.774-.708,5.052,5.052,0,0,1,3.666,1.374,5.514,5.514,0,0,1,1.584,3.732l.021.759a5.8,5.8,0,0,1-1.425,4.1A4.954,4.954,0,0,1,78.6.205a4.979,4.979,0,0,1-3.83-1.538,5.9,5.9,0,0,1-1.43-4.184Zm2.963.21a4.147,4.147,0,0,0,.595,2.418,1.962,1.962,0,0,0,1.7.837,1.966,1.966,0,0,0,1.682-.827,4.538,4.538,0,0,0,.6-2.644,4.106,4.106,0,0,0-.6-2.4,1.967,1.967,0,0,0-1.7-.852,1.934,1.934,0,0,0-1.682.847A4.614,4.614,0,0,0,76.3-5.44Zm25.419-7H97.146V0H94.069V-12.438H89.558V-14.93h12.161ZM107.984,0a3.291,3.291,0,0,1-.3-.995,3.586,3.586,0,0,1-2.8,1.2,3.939,3.939,0,0,1-2.7-.943,3.034,3.034,0,0,1-1.072-2.379,3.135,3.135,0,0,1,1.307-2.707,6.451,6.451,0,0,1,3.779-.954h1.364v-.636a1.828,1.828,0,0,0-.395-1.23,1.553,1.553,0,0,0-1.246-.461,1.766,1.766,0,0,0-1.174.359,1.219,1.219,0,0,0-.426.984H101.36a2.977,2.977,0,0,1,.595-1.784,3.931,3.931,0,0,1,1.682-1.287,6.129,6.129,0,0,1,2.44-.467,4.842,4.842,0,0,1,3.256,1.031,3.605,3.605,0,0,1,1.2,2.9v4.809a5.3,5.3,0,0,0,.441,2.389V0Zm-2.451-2.061a2.552,2.552,0,0,0,1.21-.292,1.919,1.919,0,0,0,.82-.784V-5.045h-1.107q-2.225,0-2.369,1.538l-.01.174a1.186,1.186,0,0,0,.39.913A1.514,1.514,0,0,0,105.533-2.061Zm10.008-9.034.092,1.282a3.874,3.874,0,0,1,3.189-1.487,3.219,3.219,0,0,1,2.625,1.036,4.832,4.832,0,0,1,.882,3.1V0h-2.963V-7.1a1.923,1.923,0,0,0-.41-1.369,1.836,1.836,0,0,0-1.364-.426,2.039,2.039,0,0,0-1.876,1.066V0h-2.963V-11.095ZM131,0a3.291,3.291,0,0,1-.3-.995,3.586,3.586,0,0,1-2.8,1.2,3.939,3.939,0,0,1-2.7-.943,3.034,3.034,0,0,1-1.072-2.379,3.135,3.135,0,0,1,1.307-2.707,6.451,6.451,0,0,1,3.779-.954h1.364v-.636a1.828,1.828,0,0,0-.395-1.23,1.553,1.553,0,0,0-1.246-.461,1.766,1.766,0,0,0-1.174.359,1.219,1.219,0,0,0-.426.984H124.38a2.977,2.977,0,0,1,.595-1.784,3.931,3.931,0,0,1,1.682-1.287,6.129,6.129,0,0,1,2.44-.467,4.842,4.842,0,0,1,3.256,1.031,3.605,3.605,0,0,1,1.2,2.9v4.809A5.3,5.3,0,0,0,134-.174V0Zm-2.451-2.061a2.552,2.552,0,0,0,1.21-.292,1.919,1.919,0,0,0,.82-.784V-5.045h-1.107q-2.225,0-2.369,1.538l-.01.174a1.186,1.186,0,0,0,.39.913A1.514,1.514,0,0,0,128.553-2.061Zm10.828-11.761v2.728h1.9v2.174h-1.9v5.537a1.322,1.322,0,0,0,.236.882,1.184,1.184,0,0,0,.9.267,4.726,4.726,0,0,0,.872-.072V-.062A6.1,6.1,0,0,1,139.6.205q-3.117,0-3.179-3.148V-8.921H134.8v-2.174h1.62v-2.728ZM142.16-5.65a6.58,6.58,0,0,1,.636-2.943,4.654,4.654,0,0,1,1.83-2A5.34,5.34,0,0,1,147.4-11.3a5.052,5.052,0,0,1,3.666,1.374,5.514,5.514,0,0,1,1.584,3.732l.021.759a5.8,5.8,0,0,1-1.425,4.1A4.954,4.954,0,0,1,147.42.205a4.979,4.979,0,0,1-3.83-1.538,5.9,5.9,0,0,1-1.43-4.184Zm2.963.21a4.147,4.147,0,0,0,.595,2.418,1.962,1.962,0,0,0,1.7.837,1.966,1.966,0,0,0,1.682-.827,4.538,4.538,0,0,0,.6-2.644,4.106,4.106,0,0,0-.6-2.4,1.967,1.967,0,0,0-1.7-.852,1.934,1.934,0,0,0-1.682.847A4.614,4.614,0,0,0,145.124-5.44Zm19.359-.005a6.654,6.654,0,0,1-1.164,4.107A3.731,3.731,0,0,1,160.176.205a3.456,3.456,0,0,1-2.717-1.169V4.266H154.5v-15.36h2.748l.1,1.087a3.483,3.483,0,0,1,2.81-1.292,3.757,3.757,0,0,1,3.189,1.518A6.834,6.834,0,0,1,164.483-5.6ZM161.52-5.66a4.366,4.366,0,0,0-.549-2.389,1.787,1.787,0,0,0-1.594-.841,1.941,1.941,0,0,0-1.917,1.066v4.542a1.973,1.973,0,0,0,1.938,1.1Q161.52-2.184,161.52-5.66Zm11.033-2.656a8.051,8.051,0,0,0-1.066-.082,2.171,2.171,0,0,0-2.2,1.138V0h-2.963V-11.095h2.8l.082,1.323a2.746,2.746,0,0,1,2.471-1.528,3.105,3.105,0,0,1,.923.133ZM180.1,0a3.291,3.291,0,0,1-.3-.995,3.586,3.586,0,0,1-2.8,1.2,3.939,3.939,0,0,1-2.7-.943,3.034,3.034,0,0,1-1.072-2.379,3.135,3.135,0,0,1,1.307-2.707,6.451,6.451,0,0,1,3.779-.954h1.364v-.636a1.828,1.828,0,0,0-.395-1.23,1.553,1.553,0,0,0-1.246-.461,1.766,1.766,0,0,0-1.174.359,1.219,1.219,0,0,0-.426.984h-2.963a2.977,2.977,0,0,1,.595-1.784,3.931,3.931,0,0,1,1.682-1.287,6.129,6.129,0,0,1,2.44-.467,4.842,4.842,0,0,1,3.256,1.031,3.605,3.605,0,0,1,1.2,2.9v4.809a5.3,5.3,0,0,0,.441,2.389V0Zm-2.451-2.061a2.552,2.552,0,0,0,1.21-.292,1.919,1.919,0,0,0,.82-.784V-5.045h-1.107q-2.225,0-2.369,1.538l-.01.174a1.186,1.186,0,0,0,.39.913A1.514,1.514,0,0,0,177.649-2.061Zm11.5-5.722,1.866-3.312h3.168L191.03-5.66,194.322,0h-3.179l-1.979-3.486L187.2,0h-3.189L187.3-5.66l-3.148-5.435h3.179ZM198.741,0h-2.974V-11.095h2.974Zm-3.148-13.966a1.459,1.459,0,0,1,.446-1.1,1.676,1.676,0,0,1,1.215-.431,1.679,1.679,0,0,1,1.21.431,1.451,1.451,0,0,1,.451,1.1,1.455,1.455,0,0,1-.456,1.107,1.684,1.684,0,0,1-1.2.431,1.684,1.684,0,0,1-1.2-.431A1.455,1.455,0,0,1,195.593-13.966ZM207.611,0a3.291,3.291,0,0,1-.3-.995,3.586,3.586,0,0,1-2.8,1.2,3.939,3.939,0,0,1-2.7-.943,3.034,3.034,0,0,1-1.072-2.379,3.135,3.135,0,0,1,1.307-2.707,6.451,6.451,0,0,1,3.779-.954h1.364v-.636a1.828,1.828,0,0,0-.395-1.23,1.553,1.553,0,0,0-1.246-.461,1.766,1.766,0,0,0-1.174.359,1.219,1.219,0,0,0-.426.984h-2.963a2.977,2.977,0,0,1,.595-1.784,3.931,3.931,0,0,1,1.682-1.287,6.129,6.129,0,0,1,2.44-.467,4.842,4.842,0,0,1,3.256,1.031,3.605,3.605,0,0,1,1.2,2.9v4.809A5.3,5.3,0,0,0,210.6-.174V0ZM205.16-2.061a2.552,2.552,0,0,0,1.21-.292,1.919,1.919,0,0,0,.82-.784V-5.045h-1.107q-2.225,0-2.369,1.538l-.01.174a1.186,1.186,0,0,0,.39.913A1.514,1.514,0,0,0,205.16-2.061Z" transform="translate(360 5455)" fill="#1d272b"/>
      <rect id="Rectángulo_34968" data-name="Rectángulo 34968" width="5" height="42" transform="translate(350 5417)" fill="#d93328"/>
    </g>
  </g>
</svg>
