<svg xmlns="http://www.w3.org/2000/svg" width="453.877" height="305.543" viewBox="0 0 453.877 305.543">
  <g id="img4" transform="translate(-962.123 -2100)">
    <g id="Grupo_128124" data-name="Grupo 128124" transform="translate(0 2)">
      <path id="Trazado_151846" data-name="Trazado 151846" d="M471.716,383.8c17.036-18.563,21.883-42.656,12.862-63.93-5.7-13.45-16.648-25.946-18.048-39.972-2.8-28.043,32.481-50.714,39.8-78.333,3.217-12.138-.293-26.279-14.082-33.652-13.62-7.282-33.06-5.8-48.479-.7S415.3,180.477,400.5,186.445s-33.033,9.658-48.668,4.908c-15.836-4.812-24.819-16.94-29.85-28.761s-7.5-24.411-16.088-35.12c-14.153-17.65-44.328-27.273-72.449-24.783s-53.245,16.131-66.722,34.053-15.832,39.6-9.123,59.392c3.4,10.039,9.009,19.653,12.066,29.75s3.337,21.148-3.488,30.243c-14.271,19.018-51.92,21.67-71.635,37.979-16.272,13.461-16.782,34-7.548,50.556s26.589,29.984,43.892,42.763c80.708,1.951,162.862,2.08,243.569,4.031C405.823,392.214,440.386,385.122,471.716,383.8Z" transform="translate(881.161 2008.031)" fill="#a4a4b4" opacity="0.354" style="mix-blend-mode: multiply;isolation: isolate"/>
      <path id="Trazado_151847" data-name="Trazado 151847" d="M359.21,189.2c-.213,22.828,21.487,42.7,17.711,65.21-2.019,12.046-11.2,24.258-5.864,35.245,4.719,9.722,18.237,11.408,28.572,8.247,24.193-7.4,38.9-32.13,45.93-56.433,6.615-22.859,8.256-48.393-2.337-69.7-8.536-17.169-28.231-32.327-48.23-30.924C376.674,142.13,359.371,172.008,359.21,189.2Z" transform="translate(965.153 2011.174)" fill="#a4a4b4" opacity="0.31" style="mix-blend-mode: multiply;isolation: isolate"/>
      <path id="Trazado_151848" data-name="Trazado 151848" d="M119.2,155.625c-16.16,26.962-16.889,62.5-1.847,90.1,4.753,8.721,11.173,16.849,19.84,21.7s19.85,5.931,28.477,1.01c13.084-7.464,15.978-25.067,14.936-40.095s-4.446-30.781,1.341-44.688c3.773-9.065,11.016-16.133,17.442-23.556s12.424-16.088,12.756-25.9c.861-25.438-26.147-23.538-42.423-18.255C148.944,122.683,130.467,136.829,119.2,155.625Z" transform="translate(888.888 2011.158)" fill="#a4a4b4" opacity="0.31" style="mix-blend-mode: multiply;isolation: isolate"/>
      <g id="Grupo_107069" data-name="Grupo 107069" transform="translate(971.163 2104.393)" style="mix-blend-mode: multiply;isolation: isolate">
        <path id="Trazado_151849" data-name="Trazado 151849" d="M465.591,387.377l-1.735-1.14c4.775-3.754,12.4-12.361,9.817-27.835-1.148-6.888-4-13.693-6.749-20.273-1.229-2.94-2.5-5.98-3.611-9-11.842-32.208-6.662-67.738,14.211-97.478,1.854-2.639,3.86-5.288,5.8-7.848,5.753-7.591,11.7-15.442,14.259-23.923,4.486-14.881-4.382-26.035-14.52-30.1-9.726-3.9-23.456-3.306-37.665,1.637-5.2,1.807-10.251,4.019-15.137,6.157a163.993,163.993,0,0,1-20.3,7.817c-28.2,8.14-63.468,1.222-82.024-16.089-8.918-8.319-13.953-18.374-18.822-28.1-1.886-3.768-3.838-7.664-5.983-11.393-6.673-11.591-18.887-26.141-39.177-29.621-17.828-3.06-35.885,3.665-47.89,9.844-22.97,11.823-39.161,27.834-45.594,45.084-4.336,11.633-4.511,24.293-4.68,36.537-.251,18.234-.512,37.089-14.826,52.274-6.512,6.908-15.469,12.419-24.129,17.75-8.112,4.992-16.5,10.154-22.753,16.411C89.913,292.269,86.44,312.34,94.553,333.16c7.29,18.706,22.151,35.3,36.522,51.356l-1.975.914c-14.465-16.156-29.423-32.863-36.809-51.814-8.307-21.317-4.7-41.915,9.882-56.511,6.418-6.423,14.915-11.651,23.131-16.709,8.544-5.258,17.379-10.7,23.712-17.414,13.917-14.763,14.162-32.531,14.421-51.342.171-12.35.346-25.119,4.762-36.96,6.572-17.626,23.085-33.97,46.495-46.021,12.4-6.383,31.111-13.32,49.8-10.113,21.254,3.646,33.92,18.663,40.8,30.619,2.168,3.765,4.128,7.68,6.024,11.467,4.808,9.6,9.778,19.528,18.472,27.638,17.937,16.735,52.025,23.421,79.29,15.553a162.126,162.126,0,0,0,19.956-7.692c4.933-2.16,10.033-4.392,15.333-6.235,14.908-5.185,29.426-5.767,39.833-1.592,10.871,4.36,20.412,16.214,15.672,31.935-2.63,8.718-8.66,16.677-14.494,24.374-1.932,2.549-3.93,5.185-5.766,7.8C459,261.79,453.887,296.885,465.584,328.7c1.1,2.991,2.365,6.017,3.589,8.944,2.782,6.649,5.659,13.524,6.834,20.559C478.7,374.344,470.635,383.411,465.591,387.377Z" transform="translate(-87.906 -97.739)" fill="#a4a4b4"/>
      </g>
    </g>
    <g id="rZLulr" transform="translate(1466.439 2634.061)">
      <g id="Grupo_127421" data-name="Grupo 127421" transform="translate(-494.017 -474.061)">
        <path id="Trazado_163215" data-name="Trazado 163215" d="M852.83-253.175c-.388,1.771-.879,3.528-1.143,5.317a12.314,12.314,0,0,1-3.924,7.515c-9.606,8.685-19.3,17.276-28.966,25.895-4.586,4.088-9.159,8.191-13.8,12.217a1.911,1.911,0,0,0-.54,2.475q9.715,28.02,19.38,56.059c2.86,8.277-1.414,16.67-9.707,19.045a14.27,14.27,0,0,1-17.237-8.655c-3.112-8.59-6.019-17.255-9-25.893q-4.365-12.654-8.7-25.319c-1.884-5.475-3.864-10.919-5.647-16.427-2.065-6.382-.251-11.737,4.685-16.136q15.019-13.384,30.04-26.767c1.559-1.389,3.1-2.806,4.7-4.135a1.188,1.188,0,0,0,.4-1.581,130.008,130.008,0,0,0-11.148-22.809,26.622,26.622,0,0,0-1.905-3.089c-.884-1.1-.693-1.954-.028-3.1,4.294-7.405,8.61-14.8,12.71-22.315a11.68,11.68,0,0,0-4.907-15.84,11.827,11.827,0,0,0-15.91,4.463q-7.756,13.459-15.428,26.965a1.274,1.274,0,0,1-1.474.768c-2.36-.3-4.729-.547-7.256-.831.56-1.55,1.09-3.055,1.646-4.55q5.5-14.777,11.014-29.549a15.525,15.525,0,0,1,9.415-9.143c7.521-2.934,14.8-2.035,21.852,1.689,5,2.642,8.681,6.736,12.253,10.96a137.341,137.341,0,0,1,15.608,22.059,128.484,128.484,0,0,1,9.7,22.9c1.1,3.407,1.968,6.888,2.914,10.343.2.714.266,1.462.395,2.194Z" transform="translate(-451.367 366.401)" fill="#1d272b"/>
        <path id="Trazado_163216" data-name="Trazado 163216" d="M-494.017,119.441a11.44,11.44,0,0,1,3.206-5.365,9.421,9.421,0,0,1,6.222-2.253c6.1.013,12.207.041,18.31,0a3.638,3.638,0,0,1,2.8,1.193c3.387,3.227,6.914,6.305,10.393,9.435,2.811,2.529,5.628,5.051,8.36,7.865h-1.435q-18.938,0-37.875-.007c-5.286-.007-8.383-2.415-9.8-7.524a1.6,1.6,0,0,0-.181-.329Z" transform="translate(494.017 35.186)" fill="#008f85"/>
        <path id="Trazado_163217" data-name="Trazado 163217" d="M-378.2-249.76c-3.246-1.867-6.393-3.674-9.536-5.487-6.055-3.493-7.008-9.936-2.4-15.2,8.116-9.275,16.135-18.636,24.209-27.948a10.53,10.53,0,0,1,10.621-3.542c3.509.709,6.939,1.8,10.407,2.72,9.516,2.516,19,5.189,28.568,7.469a11.612,11.612,0,0,1,8.484,6.934c5.01,10.7,10.234,21.292,15.315,31.955a2.154,2.154,0,0,0,1.922,1.415c5.684.664,11.364,1.368,17.044,2.063,4.767.583,9.535,1.15,14.3,1.763a9.263,9.263,0,0,1,8,10.137,9.153,9.153,0,0,1-9.158,8.268c-3.578-.145-7.136-.786-10.7-1.22q-10.943-1.332-21.883-2.682c-2.32-.287-4.65-.531-6.947-.95a8.737,8.737,0,0,1-6.46-5.048c-1.919-3.893-3.776-7.816-5.666-11.724-.19-.393-.418-.769-.749-1.375-1.335,5.033-2.6,9.81-3.87,14.586q-2.747,10.336-5.505,20.669a1.68,1.68,0,0,0,.533,1.959q13.819,12.281,27.575,24.633a69.785,69.785,0,0,1,5.574,5.387c2.129,2.391,2.606,5.536,3.359,8.527q6.086,24.184,12.165,48.371a63.5,63.5,0,0,1,2.124,9.884c.651,7.731-4.66,14.133-12.516,15.213a14.261,14.261,0,0,1-15.8-10.769c-2.447-9.581-4.833-19.178-7.246-28.768-2.1-8.362-4.2-16.728-6.343-25.079a3.73,3.73,0,0,0-1.121-1.708q-16.1-14.429-32.24-28.811c-1.875-1.676-1.861-1.691-4.262-.26,2.1,1.881,4.167,3.732,6.235,5.582q11.493,10.28,22.961,20.585a1.83,1.83,0,0,1,.424,1.477q-3.138,15.068-6.366,30.118c-1.883,8.855-3.707,17.724-5.677,26.56a14.266,14.266,0,0,1-14.544,11.186,14.531,14.531,0,0,1-13.738-11.785c-.609-3.14.186-6.145.827-9.16q4.919-23.139,9.892-46.267a1.693,1.693,0,0,0-.69-1.818q-13.242-11.8-26.46-23.619c-1.9-1.7-3.8-3.395-5.685-5.115A14.758,14.758,0,0,1-386.9-216.5c1.052-2.923,1.533-6.049,2.323-9.07C-382.476-233.6-380.348-241.621-378.2-249.76Z" transform="translate(418.371 345.324)" fill="#1d272b"/>
        <path id="Trazado_163218" data-name="Trazado 163218" d="M63.07,130.387v72.789H27.417c.115-.288.206-.586.346-.86a20.675,20.675,0,0,0,1.547-15.075c-2.67-10.38-5.232-20.787-7.84-31.183q-2.04-8.134-4.084-16.267c-.812-3.228-1.724-6.433-2.436-9.683a22.3,22.3,0,0,0-8.062-12.767c-2-1.635-3.873-3.418-6.031-5.336.65-.042,1.033-.089,1.415-.089q68.811,0,137.623,0,17.125,0,34.249.009a8.887,8.887,0,0,1,8.505,5.354A9.191,9.191,0,0,1,175,130.334c-.875.059-1.755.052-2.633.052q-53.757,0-107.514,0Z" transform="translate(123.314 35.114)" fill="#008f85"/>
        <path id="Trazado_163219" data-name="Trazado 163219" d="M-79.876-26.922l-1.189-.284c.948-3.62,1.864-7.169,2.814-10.709a1.5,1.5,0,0,1,2.339-.451c3.256,3.944,7.654,5.137,12.517,5.66,9.05.972,18.068,2.247,27.11,3.31a67.444,67.444,0,0,0,11.081.863A14.43,14.43,0,0,0-12.14-40.173c.191-.937.576-1.1,1.4-1.11,11.454-.144,22.908-.344,34.363-.456a116.361,116.361,0,0,1,12.487.247,21.5,21.5,0,0,1,13.568,6.326c3.617,3.669,4.358,8.16,3.666,13A24.53,24.53,0,0,1,45.6-7.63a3.242,3.242,0,0,1-2.45.943q-44.658-.033-89.315,0a1.922,1.922,0,0,1-1.874-.942A10.279,10.279,0,0,1-49.2-9.4c-.5-1.486-1.5-1.643-2.886-1.556-5.048.315-10.1.534-15.157.725a2.785,2.785,0,0,1-1.786-.562Q-74.217-15.33-79.289-20a2.152,2.152,0,0,1-.56-1.393C-79.914-23.226-79.876-25.063-79.876-26.922Z" transform="translate(184.68 150.251)" fill="#1d272b"/>
        <path id="Trazado_163220" data-name="Trazado 163220" d="M682.707-261.77a29.037,29.037,0,0,1-1.687,4.635q-9.708,17.172-19.568,34.258a9.3,9.3,0,0,1-9.547,4.6c-9.33-1.107-18.67-2.132-28.005-3.2-6.969-.8-13.954-1.491-20.9-2.473a9.022,9.022,0,0,1-7.436-10.693,9.348,9.348,0,0,1,10.388-7.513c9.911,1.181,19.832,2.28,29.75,3.406,3.9.443,7.808.828,11.7,1.336a1.212,1.212,0,0,0,1.466-.715q8.056-14.146,16.143-28.273a9.236,9.236,0,0,1,10.213-4.564,9.132,9.132,0,0,1,7.16,9.087Z" transform="translate(-322.071 322.133)" fill="#1d272b"/>
        <path id="Trazado_163221" data-name="Trazado 163221" d="M503.123-75.66l-3.971,6.06,7,4.607,5.984-9.021A25.118,25.118,0,0,1,524.495-64.1c5.409,8.461,5.864,17.3,1.455,26.311a35.992,35.992,0,0,1-3.511,5.16,1.623,1.623,0,0,1-1.165.5q-18.437.04-36.874-.008a2.072,2.072,0,0,1-1.314-.72A25.854,25.854,0,0,1,480.627-63.2c4.623-7.473,11.439-11.487,20.112-12.448C501.438-75.727,502.154-75.66,503.123-75.66Z" transform="translate(-233.232 175.644)" fill="#1d272b"/>
        <path id="Trazado_163222" data-name="Trazado 163222" d="M-173.6-400.009c-2.493-3.009-6.163-3.628-9.726-4.55-9.2-2.382-18.387-4.845-27.587-7.24a2.206,2.206,0,0,1-1.772-1.623,26.146,26.146,0,0,1,19.55-33.7,25.822,25.822,0,0,1,26.9,11.2,25.912,25.912,0,0,1-7.019,35.8A1.805,1.805,0,0,1-173.6-400.009Z" transform="translate(284.232 454.286)" fill="#1d272b"/>
        <path id="Trazado_163223" data-name="Trazado 163223" d="M617.883-427.189c-8.168-6.759-11.774-15.273-9.828-25.548,2.023-10.676,8.63-17.711,19.185-20.422,10.057-2.583,18.666.475,25.955,7.964Z" transform="translate(-331.143 474.061)" fill="#1d272b"/>
        <path id="Trazado_163224" data-name="Trazado 163224" d="M735.078-430.935c5.063,7.671,6.316,15.514,3.43,23.835-2.619,7.552-7.832,12.7-15.444,15.773a25.714,25.714,0,0,0-8.168-17.92Z" transform="translate(-411.563 441.756)" fill="#1d272b"/>
        <path id="Trazado_163225" data-name="Trazado 163225" d="M-438.343,25.309c-4.448,0-8.836.026-13.223-.038a2.036,2.036,0,0,1-1.356-.849A14.457,14.457,0,0,1-443,1.776c1.848-.26,3.694-.533,5.724-.827-.277,1.1-.5,2.01-.738,2.92-.683,2.664-1.478,5.305-2.027,8a19.826,19.826,0,0,0,1.352,12.25c.118.267.237.534.342.806A1.585,1.585,0,0,1-438.343,25.309Z" transform="translate(465.215 118.238)" fill="#1d272b"/>
        <path id="Trazado_163226" data-name="Trazado 163226" d="M689.428-63.111,666.478-49.757a30.515,30.515,0,0,0-9.592-15.657,4.438,4.438,0,0,1,3.847-1.276c7.125.882,14.264,1.648,21.4,2.461,2.4.273,4.793.563,7.189.846Z" transform="translate(-368.108 168.938)" fill="#1d272b"/>
        <path id="Trazado_163227" data-name="Trazado 163227" d="M652.8-208.438l9.733-14.793,2.583,1.682c-2.886,4.379-5.717,8.694-8.588,12.982a1.366,1.366,0,0,1-1.028.443C654.673-208.145,653.852-208.3,652.8-208.438Z" transform="translate(-365.045 286.168)" fill="#1d272b"/>
        <path id="Trazado_163228" data-name="Trazado 163228" d="M587.774-82.025a3.224,3.224,0,0,1-.207.476c-1.47,2.262-2.945,4.52-4.468,6.855l-2.582-1.712,4.855-7.345Z" transform="translate(-310.902 181.685)" fill="#1d272b"/>
      </g>
      <g id="Grupo_128125" data-name="Grupo 128125" transform="translate(-234.183 -326.599)">
        <g id="Grupo_91938" data-name="Grupo 91938" transform="translate(0 0)">
          <g id="Grupo_91937" data-name="Grupo 91937">
            <path id="Trazado_151023" data-name="Trazado 151023" d="M2027.4,2155.89a7.135,7.135,0,0,1-6.228-10.719l48.373-83.773a7.193,7.193,0,0,1,12.455.009l48.373,83.784a7.126,7.126,0,0,1-6.228,10.7Z" transform="translate(-2020.21 -2057.808)" fill="#1d272b"/>
            <path id="Trazado_151024" data-name="Trazado 151024" d="M2160.153,2183.547a4.161,4.161,0,0,1-3.527,2.126h-96.745a4.187,4.187,0,0,1-3.525-6.244l48.371-83.805a4.088,4.088,0,0,1,2.747-1.972,3.976,3.976,0,0,1,.78-.082,4.068,4.068,0,0,1,3.527,2.034l48.373,83.826A4.157,4.157,0,0,1,2160.153,2183.547Z" transform="translate(-2052.694 -2090.439)" fill="#db8804"/>
          </g>
        </g>
        <g id="Grupo_91939" data-name="Grupo 91939" transform="translate(49.553 29.948)">
          <path id="Trazado_151026" data-name="Trazado 151026" d="M2595.712,2434.037l-4.215-.1a2.334,2.334,0,0,1-2.208-2.215l-1.543-29.7a1.927,1.927,0,0,1,.608-1.531,2.02,2.02,0,0,1,1.609-.5l7.26.506a2.223,2.223,0,0,1,1.572.7,2.252,2.252,0,0,1,.591,1.62l-1.5,29.157A2.148,2.148,0,0,1,2595.712,2434.037Z" transform="translate(-2587.623 -2399.979)" fill="#fff"/>
          <path id="Trazado_151027" data-name="Trazado 151027" d="M2587.962,2856.737a6.022,6.022,0,0,1,4.438-1.461,6.27,6.27,0,0,1,4.47,1.551,5.875,5.875,0,0,1,1.523,4.381,5.749,5.749,0,0,1-1.557,4.305,6.073,6.073,0,0,1-4.436,1.531,6,6,0,0,1-4.421-1.584,5.854,5.854,0,0,1-1.6-4.348A5.77,5.77,0,0,1,2587.962,2856.737Z" transform="translate(-2586.378 -2815.426)" fill="#fff"/>
        </g>
      </g>
    </g>
    <g id="Grupo_128292" data-name="Grupo 128292">
      <path id="Trazado_165299" data-name="Trazado 165299" d="M4.619-5.511V0H1.4V-15.641H7.5A7.059,7.059,0,0,1,10.6-15a4.75,4.75,0,0,1,2.057,1.832,5.107,5.107,0,0,1,.72,2.7A4.491,4.491,0,0,1,11.8-6.837,6.555,6.555,0,0,1,7.444-5.511Zm0-2.61H7.5a2.831,2.831,0,0,0,1.95-.6,2.188,2.188,0,0,0,.671-1.719A2.58,2.58,0,0,0,9.442-12.3a2.528,2.528,0,0,0-1.869-.73H4.619Zm17.295-.591A8.434,8.434,0,0,0,20.8-8.8a2.274,2.274,0,0,0-2.31,1.192V0h-3.1V-11.623h2.933l.086,1.386a2.877,2.877,0,0,1,2.589-1.6,3.253,3.253,0,0,1,.967.14Zm.623,2.793A6.893,6.893,0,0,1,23.2-9,4.876,4.876,0,0,1,25.121-11.1a5.594,5.594,0,0,1,2.906-.741,5.293,5.293,0,0,1,3.84,1.439,5.777,5.777,0,0,1,1.66,3.91l.021.795A6.075,6.075,0,0,1,32.055-1.4,5.19,5.19,0,0,1,28.048.215,5.216,5.216,0,0,1,24.036-1.4a6.182,6.182,0,0,1-1.5-4.383Zm3.1.22a4.345,4.345,0,0,0,.623,2.534,2.055,2.055,0,0,0,1.783.877,2.06,2.06,0,0,0,1.762-.866,4.754,4.754,0,0,0,.634-2.77,4.3,4.3,0,0,0-.634-2.518,2.06,2.06,0,0,0-1.783-.893,2.027,2.027,0,0,0-1.762.888A4.834,4.834,0,0,0,25.642-5.7Zm14.652,3.41a2.036,2.036,0,0,0,1.4-.473,1.656,1.656,0,0,0,.559-1.257H45.16a3.982,3.982,0,0,1-.645,2.165A4.253,4.253,0,0,1,42.781-.328a5.43,5.43,0,0,1-2.433.542A5.046,5.046,0,0,1,36.416-1.37a6.27,6.27,0,0,1-1.439-4.377v-.2a6.2,6.2,0,0,1,1.429-4.286,4.987,4.987,0,0,1,3.921-1.6,4.889,4.889,0,0,1,3.5,1.241,4.393,4.393,0,0,1,1.337,3.3H42.249a2.133,2.133,0,0,0-.559-1.474,1.862,1.862,0,0,0-1.418-.567,1.87,1.87,0,0,0-1.638.791,4.583,4.583,0,0,0-.553,2.566v.323a4.641,4.641,0,0,0,.548,2.582A1.893,1.893,0,0,0,40.294-2.288ZM52.282.215A5.706,5.706,0,0,1,48.12-1.354a5.575,5.575,0,0,1-1.606-4.179v-.3a7.021,7.021,0,0,1,.677-3.131,4.967,4.967,0,0,1,1.917-2.127,5.382,5.382,0,0,1,2.831-.747,4.824,4.824,0,0,1,3.754,1.5,6.111,6.111,0,0,1,1.37,4.265V-4.8h-7.4a2.884,2.884,0,0,0,.908,1.826,2.744,2.744,0,0,0,1.917.688,3.351,3.351,0,0,0,2.8-1.3L56.815-1.88A4.66,4.66,0,0,1,54.925-.338,6.2,6.2,0,0,1,52.282.215Zm-.354-9.55a1.94,1.94,0,0,0-1.5.626,3.241,3.241,0,0,0-.736,1.791h4.318v-.248a2.311,2.311,0,0,0-.559-1.6A2,2,0,0,0,51.928-9.335ZM65.119-3.212a1,1,0,0,0-.564-.9,6.406,6.406,0,0,0-1.81-.585Q58.6-5.564,58.6-8.218A3.194,3.194,0,0,1,59.882-10.8a5.178,5.178,0,0,1,3.357-1.037,5.573,5.573,0,0,1,3.54,1.042,3.284,3.284,0,0,1,1.327,2.707H65a1.5,1.5,0,0,0-.43-1.1,1.818,1.818,0,0,0-1.343-.435,1.858,1.858,0,0,0-1.214.354,1.119,1.119,0,0,0-.43.9.957.957,0,0,0,.489.833,5.028,5.028,0,0,0,1.649.548,13.468,13.468,0,0,1,1.955.521,3.212,3.212,0,0,1,2.46,3.126A3.032,3.032,0,0,1,66.773-.768,5.885,5.885,0,0,1,63.25.215a6.147,6.147,0,0,1-2.594-.521,4.353,4.353,0,0,1-1.778-1.429,3.32,3.32,0,0,1-.645-1.96h2.943a1.621,1.621,0,0,0,.612,1.268,2.429,2.429,0,0,0,1.525.44,2.248,2.248,0,0,0,1.348-.338A1.053,1.053,0,0,0,65.119-3.212Zm4.533-2.707A6.893,6.893,0,0,1,70.318-9,4.876,4.876,0,0,1,72.236-11.1a5.594,5.594,0,0,1,2.906-.741,5.293,5.293,0,0,1,3.84,1.439,5.777,5.777,0,0,1,1.66,3.91l.021.795A6.075,6.075,0,0,1,79.17-1.4,5.19,5.19,0,0,1,75.163.215,5.216,5.216,0,0,1,71.151-1.4a6.182,6.182,0,0,1-1.5-4.383Zm3.1.22a4.345,4.345,0,0,0,.623,2.534,2.055,2.055,0,0,0,1.783.877,2.06,2.06,0,0,0,1.762-.866,4.754,4.754,0,0,0,.634-2.77,4.3,4.3,0,0,0-.634-2.518,2.06,2.06,0,0,0-1.783-.893,2.027,2.027,0,0,0-1.762.888A4.834,4.834,0,0,0,72.757-5.7ZM88.87-3.212a1,1,0,0,0-.564-.9,6.406,6.406,0,0,0-1.81-.585q-4.146-.87-4.146-3.523A3.194,3.194,0,0,1,83.633-10.8a5.178,5.178,0,0,1,3.357-1.037A5.573,5.573,0,0,1,90.53-10.8a3.284,3.284,0,0,1,1.327,2.707h-3.1a1.5,1.5,0,0,0-.43-1.1,1.818,1.818,0,0,0-1.343-.435,1.858,1.858,0,0,0-1.214.354,1.119,1.119,0,0,0-.43.9.957.957,0,0,0,.489.833,5.028,5.028,0,0,0,1.649.548,13.468,13.468,0,0,1,1.955.521,3.212,3.212,0,0,1,2.46,3.126A3.032,3.032,0,0,1,90.524-.768,5.885,5.885,0,0,1,87,.215a6.147,6.147,0,0,1-2.594-.521,4.353,4.353,0,0,1-1.778-1.429,3.32,3.32,0,0,1-.645-1.96h2.943a1.621,1.621,0,0,0,.612,1.268,2.429,2.429,0,0,0,1.525.44,2.248,2.248,0,0,0,1.348-.338A1.053,1.053,0,0,0,88.87-3.212ZM98.882-5.9a7,7,0,0,1,1.219-4.329,3.956,3.956,0,0,1,3.335-1.611,3.56,3.56,0,0,1,2.8,1.268V-16.5h3.115V0h-2.8l-.15-1.235a3.653,3.653,0,0,1-2.986,1.45A3.945,3.945,0,0,1,100.123-1.4,7.23,7.23,0,0,1,98.882-5.9Zm3.1.231a4.588,4.588,0,0,0,.569,2.507,1.855,1.855,0,0,0,1.654.871A2.077,2.077,0,0,0,106.24-3.5V-8.1a2.048,2.048,0,0,0-2.009-1.216Q101.986-9.313,101.986-5.666ZM117.111.215a5.706,5.706,0,0,1-4.163-1.568,5.575,5.575,0,0,1-1.606-4.179v-.3a7.021,7.021,0,0,1,.677-3.131,4.967,4.967,0,0,1,1.917-2.127,5.382,5.382,0,0,1,2.831-.747,4.824,4.824,0,0,1,3.754,1.5,6.111,6.111,0,0,1,1.37,4.265V-4.8h-7.4a2.884,2.884,0,0,0,.908,1.826,2.744,2.744,0,0,0,1.917.688,3.351,3.351,0,0,0,2.8-1.3l1.525,1.708a4.66,4.66,0,0,1-1.891,1.542A6.2,6.2,0,0,1,117.111.215Zm-.354-9.55a1.94,1.94,0,0,0-1.5.626,3.241,3.241,0,0,0-.736,1.791h4.318v-.248a2.311,2.311,0,0,0-.559-1.6A2,2,0,0,0,116.757-9.335Z" transform="translate(1205 2120)" fill="#008f85"/>
      <path id="Trazado_165300" data-name="Trazado 165300" d="M5.65.186A4.928,4.928,0,0,1,2.055-1.169,4.815,4.815,0,0,1,.668-4.778v-.26a6.064,6.064,0,0,1,.584-2.7A4.289,4.289,0,0,1,2.908-9.579a4.648,4.648,0,0,1,2.445-.645A4.166,4.166,0,0,1,8.6-8.925,5.278,5.278,0,0,1,9.778-5.242v1.095H3.386A2.491,2.491,0,0,0,4.17-2.57a2.37,2.37,0,0,0,1.656.594A2.894,2.894,0,0,0,8.248-3.1L9.565-1.624A4.025,4.025,0,0,1,7.932-.292,5.357,5.357,0,0,1,5.65.186ZM5.344-8.062a1.675,1.675,0,0,0-1.294.54,2.8,2.8,0,0,0-.635,1.547H7.144v-.214a2,2,0,0,0-.482-1.384A1.729,1.729,0,0,0,5.344-8.062Zm8.47-1.976L13.9-8.916a3.528,3.528,0,0,1,2.885-1.308,2.677,2.677,0,0,1,2.663,1.531,3.447,3.447,0,0,1,3.015-1.531,2.994,2.994,0,0,1,2.431.951,4.371,4.371,0,0,1,.8,2.862V0H23V-6.4a1.911,1.911,0,0,0-.334-1.248,1.48,1.48,0,0,0-1.178-.394,1.673,1.673,0,0,0-1.67,1.15L19.826,0H17.145V-6.392A1.888,1.888,0,0,0,16.8-7.654a1.5,1.5,0,0,0-1.169-.39,1.738,1.738,0,0,0-1.651.946V0H11.3V-10.038Zm22.98,5.112a6.078,6.078,0,0,1-1.03,3.762A3.411,3.411,0,0,1,32.888.186a3.134,3.134,0,0,1-2.607-1.252L30.161,0H27.749V-14.25H30.43v5.112a3.054,3.054,0,0,1,2.44-1.085,3.439,3.439,0,0,1,2.881,1.35,6.087,6.087,0,0,1,1.044,3.8Zm-2.681-.195a3.993,3.993,0,0,0-.482-2.222,1.631,1.631,0,0,0-1.438-.7A1.769,1.769,0,0,0,30.43-7v3.961a1.793,1.793,0,0,0,1.781,1.058,1.655,1.655,0,0,0,1.707-1.28A6.6,6.6,0,0,0,34.113-5.121ZM44.262,0a2.977,2.977,0,0,1-.269-.9A3.244,3.244,0,0,1,41.46.186a3.564,3.564,0,0,1-2.445-.854,2.745,2.745,0,0,1-.969-2.152A2.837,2.837,0,0,1,39.229-5.27a5.837,5.837,0,0,1,3.419-.863h1.234v-.575a1.654,1.654,0,0,0-.357-1.113A1.405,1.405,0,0,0,42.4-8.238a1.6,1.6,0,0,0-1.062.325,1.1,1.1,0,0,0-.385.891H38.269a2.693,2.693,0,0,1,.538-1.614A3.557,3.557,0,0,1,40.329-9.8a5.545,5.545,0,0,1,2.208-.422,4.381,4.381,0,0,1,2.946.932,3.262,3.262,0,0,1,1.09,2.621v4.351a4.8,4.8,0,0,0,.4,2.162V0ZM42.045-1.865a2.309,2.309,0,0,0,1.095-.264,1.737,1.737,0,0,0,.742-.71V-4.564h-1q-2.013,0-2.143,1.392l-.009.158a1.073,1.073,0,0,0,.353.826A1.369,1.369,0,0,0,42.045-1.865ZM51.461,0h-2.69V-14.25h2.69Zm7.645-2.774a.864.864,0,0,0-.487-.775,5.533,5.533,0,0,0-1.563-.506Q53.475-4.806,53.475-7.1a2.758,2.758,0,0,1,1.109-2.231,4.472,4.472,0,0,1,2.9-.9,4.813,4.813,0,0,1,3.057.9,2.836,2.836,0,0,1,1.146,2.338H59a1.3,1.3,0,0,0-.371-.951,1.57,1.57,0,0,0-1.16-.376,1.6,1.6,0,0,0-1.048.306.966.966,0,0,0-.371.779.826.826,0,0,0,.422.719,4.342,4.342,0,0,0,1.424.473,11.632,11.632,0,0,1,1.688.45,2.774,2.774,0,0,1,2.125,2.7A2.618,2.618,0,0,1,60.535-.663a5.083,5.083,0,0,1-3.043.849,5.309,5.309,0,0,1-2.24-.45A3.759,3.759,0,0,1,53.716-1.5a2.867,2.867,0,0,1-.557-1.693H55.7A1.4,1.4,0,0,0,56.23-2.1a2.1,2.1,0,0,0,1.317.38,1.941,1.941,0,0,0,1.164-.292A.909.909,0,0,0,59.106-2.774ZM69.255,0a2.977,2.977,0,0,1-.269-.9A3.244,3.244,0,0,1,66.454.186a3.564,3.564,0,0,1-2.445-.854A2.745,2.745,0,0,1,63.04-2.82,2.837,2.837,0,0,1,64.222-5.27a5.837,5.837,0,0,1,3.419-.863h1.234v-.575a1.654,1.654,0,0,0-.357-1.113,1.405,1.405,0,0,0-1.127-.417,1.6,1.6,0,0,0-1.062.325,1.1,1.1,0,0,0-.385.891H63.262A2.693,2.693,0,0,1,63.8-8.637,3.557,3.557,0,0,1,65.322-9.8a5.545,5.545,0,0,1,2.208-.422,4.381,4.381,0,0,1,2.946.932,3.262,3.262,0,0,1,1.09,2.621v4.351a4.8,4.8,0,0,0,.4,2.162V0ZM67.038-1.865a2.309,2.309,0,0,0,1.095-.264,1.737,1.737,0,0,0,.742-.71V-4.564h-1q-2.013,0-2.143,1.392l-.009.158a1.073,1.073,0,0,0,.353.826A1.369,1.369,0,0,0,67.038-1.865Zm9.1-8.173.083,1.123a3.528,3.528,0,0,1,2.885-1.308,2.677,2.677,0,0,1,2.663,1.531,3.447,3.447,0,0,1,3.015-1.531,2.994,2.994,0,0,1,2.431.951,4.371,4.371,0,0,1,.8,2.862V0h-2.69V-6.4a1.911,1.911,0,0,0-.334-1.248,1.48,1.48,0,0,0-1.178-.394,1.673,1.673,0,0,0-1.67,1.15L82.151,0H79.47V-6.392a1.888,1.888,0,0,0-.343-1.262,1.5,1.5,0,0,0-1.169-.39,1.738,1.738,0,0,0-1.651.946V0H73.625V-10.038ZM95.891,0a2.977,2.977,0,0,1-.269-.9A3.244,3.244,0,0,1,93.089.186a3.564,3.564,0,0,1-2.445-.854,2.745,2.745,0,0,1-.969-2.152A2.837,2.837,0,0,1,90.858-5.27a5.837,5.837,0,0,1,3.419-.863H95.51v-.575a1.654,1.654,0,0,0-.357-1.113,1.405,1.405,0,0,0-1.127-.417,1.6,1.6,0,0,0-1.062.325,1.1,1.1,0,0,0-.385.891H89.9a2.693,2.693,0,0,1,.538-1.614A3.557,3.557,0,0,1,91.957-9.8a5.545,5.545,0,0,1,2.208-.422,4.381,4.381,0,0,1,2.946.932A3.262,3.262,0,0,1,98.2-6.67v4.351a4.8,4.8,0,0,0,.4,2.162V0ZM93.673-1.865a2.309,2.309,0,0,0,1.095-.264,1.737,1.737,0,0,0,.742-.71V-4.564h-1q-2.013,0-2.143,1.392l-.009.158a1.073,1.073,0,0,0,.353.826A1.369,1.369,0,0,0,93.673-1.865Zm9.1-8.173.083,1.123a3.528,3.528,0,0,1,2.885-1.308,2.677,2.677,0,0,1,2.663,1.531,3.447,3.447,0,0,1,3.015-1.531,2.994,2.994,0,0,1,2.431.951,4.371,4.371,0,0,1,.8,2.862V0h-2.69V-6.4a1.911,1.911,0,0,0-.334-1.248,1.48,1.48,0,0,0-1.178-.394,1.673,1.673,0,0,0-1.67,1.15L108.786,0H106.1V-6.392a1.888,1.888,0,0,0-.343-1.262,1.5,1.5,0,0,0-1.169-.39,1.738,1.738,0,0,0-1.651.946V0H100.26V-10.038ZM119.539,0h-2.69V-10.038h2.69ZM116.69-12.636a1.32,1.32,0,0,1,.4-.993,1.516,1.516,0,0,1,1.1-.39,1.52,1.52,0,0,1,1.095.39,1.313,1.313,0,0,1,.408.993,1.316,1.316,0,0,1-.413,1,1.523,1.523,0,0,1-1.09.39,1.523,1.523,0,0,1-1.09-.39A1.316,1.316,0,0,1,116.69-12.636ZM126.367.186a4.928,4.928,0,0,1-3.595-1.354,4.815,4.815,0,0,1-1.387-3.609v-.26a6.064,6.064,0,0,1,.584-2.7,4.289,4.289,0,0,1,1.656-1.837,4.648,4.648,0,0,1,2.445-.645,4.166,4.166,0,0,1,3.242,1.3A5.278,5.278,0,0,1,130.5-5.242v1.095H124.1a2.491,2.491,0,0,0,.784,1.577,2.37,2.37,0,0,0,1.656.594A2.894,2.894,0,0,0,128.964-3.1l1.317,1.475a4.025,4.025,0,0,1-1.633,1.331A5.357,5.357,0,0,1,126.367.186Zm-.306-8.248a1.675,1.675,0,0,0-1.294.54,2.8,2.8,0,0,0-.635,1.547h3.729v-.214a2,2,0,0,0-.482-1.384A1.729,1.729,0,0,0,126.061-8.062Zm8.424-1.976.083,1.16a3.5,3.5,0,0,1,2.885-1.345,2.913,2.913,0,0,1,2.375.937,4.372,4.372,0,0,1,.8,2.8V0h-2.681V-6.42a1.739,1.739,0,0,0-.371-1.239,1.661,1.661,0,0,0-1.234-.385,1.844,1.844,0,0,0-1.7.965V0h-2.681V-10.038Zm11.383-2.468v2.468h1.716v1.967h-1.716v5.01a1.2,1.2,0,0,0,.213.8,1.072,1.072,0,0,0,.816.241,4.276,4.276,0,0,0,.789-.065V-.056a5.519,5.519,0,0,1-1.624.241,2.56,2.56,0,0,1-2.876-2.848V-8.071h-1.466v-1.967h1.466v-2.468Zm2.514,7.394a5.953,5.953,0,0,1,.575-2.663,4.211,4.211,0,0,1,1.656-1.809,4.831,4.831,0,0,1,2.51-.64,4.571,4.571,0,0,1,3.317,1.243A4.989,4.989,0,0,1,157.873-5.6l.019.687a5.247,5.247,0,0,1-1.29,3.706,4.482,4.482,0,0,1-3.46,1.4,4.5,4.5,0,0,1-3.465-1.392,5.339,5.339,0,0,1-1.294-3.785Zm2.681.19a3.752,3.752,0,0,0,.538,2.188,1.775,1.775,0,0,0,1.54.757,1.779,1.779,0,0,0,1.521-.748,4.106,4.106,0,0,0,.547-2.393,3.715,3.715,0,0,0-.547-2.174,1.779,1.779,0,0,0-1.54-.771A1.75,1.75,0,0,0,151.6-7.3,4.175,4.175,0,0,0,151.063-4.921Z" transform="translate(1205 2138)" fill="#1d272b"/>
      <rect id="Rectángulo_35428" data-name="Rectángulo 35428" width="4" height="43" transform="translate(1196 2100)" fill="#d93328"/>
    </g>
  </g>
</svg>
