<svg id="icon21" xmlns="http://www.w3.org/2000/svg" xmlns:xlink="http://www.w3.org/1999/xlink" width="76.783" height="76.783" viewBox="0 0 76.783 76.783">
  <defs>
    <radialGradient id="radial-gradient" cx="0.076" cy="0.019" r="1.465" gradientTransform="translate(0.001)" gradientUnits="objectBoundingBox">
      <stop offset="0" stop-color="#f6f6f7"/>
      <stop offset="0.477" stop-color="#f9f9fa"/>
      <stop offset="0.715" stop-color="#fff"/>
    </radialGradient>
  </defs>
  <g id="Grupo_18423" data-name="Grupo 18423" transform="translate(0 0)">
    <g id="Grupo_18421" data-name="Grupo 18421">
      <g id="Grupo_18420" data-name="Grupo 18420">
        <g id="Grupo_18419" data-name="Grupo 18419">
          <path id="Trazado_40936" data-name="Trazado 40936" d="M271.406,2184.112a38.391,38.391,0,1,1-38.391-38.39A38.391,38.391,0,0,1,271.406,2184.112Z" transform="translate(-194.623 -2145.721)" fill="#fff"/>
        </g>
      </g>
    </g>
    <path id="Trazado_40937" data-name="Trazado 40937" d="M271.279,2183.973a38.391,38.391,0,1,0-38.391,38.392A38.239,38.239,0,0,0,271.279,2183.973Z" transform="translate(-194.496 -2145.583)" fill="url(#radial-gradient)"/>
    <path id="Trazado_40938" data-name="Trazado 40938" d="M261.148,2182.943a29.3,29.3,0,1,0-29.3,29.3A29.2,29.2,0,0,0,261.148,2182.943Z" transform="translate(-193.336 -2144.424)" fill="none" stroke="#1d272b" stroke-miterlimit="10" stroke-width="2"/>
    <g id="Grupo_18422" data-name="Grupo 18422" transform="translate(6.801 21.554)">
      <path id="Trazado_40939" data-name="Trazado 40939" d="M266.644,2164.488a38.4,38.4,0,0,1-66.1,38.232,38.274,38.274,0,0,0,66.1-38.232Z" transform="translate(-200.545 -2164.488)" fill="#eceef0"/>
    </g>
  </g>
  <g id="Grupo_127481" data-name="Grupo 127481" transform="translate(-5479.977 -1383.05)">
    <path id="Trazado_163342" data-name="Trazado 163342" d="M5568.268,1489.8a18.127,18.127,0,0,0,5.9-.021,44.775,44.775,0,0,1,6.344.217,7.846,7.846,0,0,1,4.22,4.974l-.446.011c-.872-1.456-1.442-3.127-3.137-3.965a3.235,3.235,0,0,0-1.84-.637c-2.538.37-5.118-.535-7.648.31a4.508,4.508,0,0,1-2.339-.321C5569.056,1490.012,5568.419,1490.35,5568.268,1489.8Z" transform="translate(-48.092 -64.059)" fill="#1d272b"/>
    <path id="Trazado_163343" data-name="Trazado 163343" d="M5524.24,1405.339a35.957,35.957,0,0,1,5.9-.155c1.9-.038,1.906.07,2.009-1.839a1.339,1.339,0,0,1,.07-.387c.027-.072.117-.12.179-.178.958,2.022.306,3.081-1.78,3.013-2.116-.069-4.234-.047-6.351-.064C5524.257,1405.6,5524.249,1405.469,5524.24,1405.339Z" transform="translate(-15.826 -0.356)" fill="#1d272b"/>
    <path id="Trazado_163344" data-name="Trazado 163344" d="M5507.5,1484.949c-.3.315-.638.21-.981.1-1.49-.488-3.55-3.112-3.47-4.682.069-1.355.376-2.7.332-4.071a1.549,1.549,0,0,1,.508-1.048l.286.316a15,15,0,0,0-.434,5.071,4.978,4.978,0,0,0,3,3.9c.265.127.636.045.791.393Z" transform="translate(-0.292 -53.46)" fill="#1d272b"/>
    <path id="Trazado_163345" data-name="Trazado 163345" d="M5560.3,1437.777l1.864-.274a9.964,9.964,0,0,0,4.242.32,8.786,8.786,0,0,1,4.04-.067l-.27.51a7.368,7.368,0,0,0-2.762.009,9.155,9.155,0,0,1-4.181.023c-.83-.509-1.735-.153-2.6-.227Z" transform="translate(-42.25 -25.801)" fill="#1d272b"/>
    <path id="Trazado_163346" data-name="Trazado 163346" d="M5592.562,1479.562a25.125,25.125,0,0,1-8.008.262l-.255-.459c2.234.475,4.475-.024,6.707-.043a5.319,5.319,0,0,0,3.851-2.254l.286.234a2.325,2.325,0,0,1-.953,1.271,3.128,3.128,0,0,0-1.628.992Z" transform="translate(-59.84 -54.795)" fill="#1d272b"/>
    <path id="Trazado_163347" data-name="Trazado 163347" d="M5610.871,1520.42c-.728,3.349-4.021,5.688-6.58,5.165l-.316-.091c.089-.136.186-.393.27-.389,3.367.141,5.016-1.976,6.213-4.694Z" transform="translate(-74.258 -86.559)" fill="#1d272b"/>
    <path id="Trazado_163348" data-name="Trazado 163348" d="M5568.359,1409.371c2.177-1.814,2.312-4.333,2.233-7.075,1.332,1.844.316,5.393-1.961,7.547A.447.447,0,0,1,5568.359,1409.371Z" transform="translate(-48.158 0)" fill="#1d272b"/>
    <path id="Trazado_163349" data-name="Trazado 163349" d="M5519.712,1510.963l.033-.022a18.68,18.68,0,0,0,5.375-.146c.732-.067,1.615-.2,2.177.584a.343.343,0,0,1,.007.132,17.122,17.122,0,0,0-4.593.135C5521.685,1511.821,5520.527,1511.98,5519.712,1510.963Z" transform="translate(-12.508 -79.473)" fill="#1d272b"/>
    <path id="Trazado_163350" data-name="Trazado 163350" d="M5509.021,1412.354c.009.13.017.261.025.391-1.271.554-2.693.725-3.665,1.974a6.537,6.537,0,0,0-1.447,2.478h-.461C5503.823,1414.7,5505.82,1412.955,5509.021,1412.354Z" transform="translate(-0.607 -7.371)" fill="#1d272b"/>
    <path id="Trazado_163351" data-name="Trazado 163351" d="M5510.221,1448.787c-.672.59-1.228-.221-1.855-.155-2.2-.6-4.169-2.582-4.336-4.457.726.447.881,1.237,1.308,1.807a7.05,7.05,0,0,0,4.486,2.539C5510,1448.559,5510.167,1448.581,5510.221,1448.787Z" transform="translate(-1.015 -30.69)" fill="#1d272b"/>
    <path id="Trazado_163352" data-name="Trazado 163352" d="M5552.9,1485.518a12.9,12.9,0,0,1-6.39.07c-.959-.277-1.906.26-2.875.232l-.352-.326,1.581-.342,2.894.179c1.724.551,3.422-.263,5.139-.093Z" transform="translate(-29.784 -60.72)" fill="#1d272b"/>
    <path id="Trazado_163353" data-name="Trazado 163353" d="M5540.6,1458.78a2.553,2.553,0,0,1-2.394.7c-1.952-.075-3.868-.583-5.834-.545a4.333,4.333,0,0,1,3.547-.245C5537.468,1459.275,5539.039,1458.782,5540.6,1458.78Z" transform="translate(-21.785 -41.131)" fill="#1d272b"/>
    <path id="Trazado_163354" data-name="Trazado 163354" d="M5606.259,1438.353c2.043-.289,3.447.839,4.771,2.149l-.266.316a7.8,7.8,0,0,0-4.27-2.074Z" transform="translate(-75.933 -26.39)" fill="#1d272b"/>
    <path id="Trazado_163355" data-name="Trazado 163355" d="M5623.119,1446.838l.267-.316c1.862,1.83,1.4,4.161,1.377,6.4-.228-.111-.253-.325-.275-.541A7.882,7.882,0,0,0,5623.119,1446.838Z" transform="translate(-88.288 -32.411)" fill="#1d272b"/>
    <path id="Trazado_163356" data-name="Trazado 163356" d="M5590.723,1459.777c-1.51-.364-2.969-1.091-4.595-.654-.382.1-.825.305-.8-.4l.505-.078a.571.571,0,0,0,.561-.159,5.532,5.532,0,0,1,2.573.274l.345.122c.534.147,1.146-.117,1.628.3C5590.867,1459.379,5590.795,1459.578,5590.723,1459.777Z" transform="translate(-60.593 -41.142)" fill="#1d272b"/>
    <path id="Trazado_163357" data-name="Trazado 163357" d="M5558.378,1511.284c.8-1.208,2-.849,3.111-.755a6.957,6.957,0,0,1,1.4.419l-.805.461.006.081c-1.206-.975-2.466-.32-3.711-.121Z" transform="translate(-40.844 -79.227)" fill="#1d272b"/>
    <path id="Trazado_163358" data-name="Trazado 163358" d="M5564.921,1516.266l.825.079.332.277a14.861,14.861,0,0,0-3.822,1.812l.017.018c.049-.877.707-1.23,1.368-1.571C5564.062,1516.664,5564.494,1516.47,5564.921,1516.266Z" transform="translate(-43.685 -83.522)" fill="#1d272b"/>
    <path id="Trazado_163359" data-name="Trazado 163359" d="M5575.651,1514.431l-.333-.277q3.313-.043,6.627-.088c.559-.009,1.171.178,1.594-.391l.054-.4c.79.594.4.887-.282,1.1l-1.888.011-.979.016L5579,1514.4l-.979,0-1.15-.006Z" transform="translate(-53.259 -81.331)" fill="#1d272b"/>
    <path id="Trazado_163360" data-name="Trazado 163360" d="M5517.4,1464.024c1.377-.216,2.714-.887,4.162-.3.306.123.589.178.635.557l-1.053-.02a1.218,1.218,0,0,0-1.089-.174c-.95-.2-1.721.551-2.644.5l-.344-.339Z" transform="translate(-10.573 -44.843)" fill="#1d272b"/>
    <path id="Trazado_163361" data-name="Trazado 163361" d="M5554.58,1532.579q-.177,1.38-.354,2.76c-.026.207.03.487-.276.51-.387.03-.422-.283-.383-.542a7.417,7.417,0,0,1,.678-3.076Z" transform="translate(-37.309 -95.222)" fill="#1d272b"/>
    <path id="Trazado_163362" data-name="Trazado 163362" d="M5558.771,1489.74c.152.554.789.217,1.049.571a26.3,26.3,0,0,0-4.512.115A3.989,3.989,0,0,1,5558.771,1489.74Z" transform="translate(-38.594 -64.003)" fill="#1d272b"/>
    <path id="Trazado_163363" data-name="Trazado 163363" d="M5526.027,1486.334c.009.4-.692.4-.531.77.172.393.666.334,1.052.334.346,0,.691-.039,1.037-.061l.265-.061.569-.088c0,.145.01.291.014.436l-.489.022-.548.118a2.321,2.321,0,0,1-1.551.069c-.455-.132-1.039-.338-1-.891C5524.88,1486.313,5525.444,1486.216,5526.027,1486.334Z" transform="translate(-16.265 -61.555)" fill="#1d272b"/>
    <path id="Trazado_163364" data-name="Trazado 163364" d="M5546.372,1438.041l.329.293a.356.356,0,0,0-.088.183l-1.038.122-.363.119-1.443.03-.335-.12-1.267-.149-.872-.248c0-.137,0-.273.007-.41C5542.986,1438.063,5544.663,1438.5,5546.372,1438.041Z" transform="translate(-28.324 -26.065)" fill="#1d272b"/>
    <path id="Trazado_163365" data-name="Trazado 163365" d="M5544.274,1464.255c.107-.866.889-.613,1.34-.683,1.206-.187,2.463-.324,3.465.674l-1.055-.015a1.2,1.2,0,0,0-1.088-.174l-1.066.022a.531.531,0,0,0-.565.143Z" transform="translate(-30.508 -44.808)" fill="#1d272b"/>
    <path id="Trazado_163366" data-name="Trazado 163366" d="M5568.4,1464.431l-.33-.169c.771-.772,3.991-.875,4.831-.145.048.042.022.17.03.258l-.8.016c-.205-.327-.512-.246-.81-.2l-1.066.017a.558.558,0,0,0-.578.143Z" transform="translate(-47.945 -44.942)" fill="#1d272b"/>
    <path id="Trazado_163367" data-name="Trazado 163367" d="M5590.167,1538.663l.318.091a22.761,22.761,0,0,1-5.35.053A9.147,9.147,0,0,1,5590.167,1538.663Z" transform="translate(-60.452 -99.728)" fill="#1d272b"/>
    <path id="Trazado_163368" data-name="Trazado 163368" d="M5509.1,1466.316l.344.339c-1.337.349-1.906,1.663-2.963,2.363l-.286-.316c.278-.671,1.121-.847,1.364-1.55l.253-.271.008-.009.3-.24Z" transform="translate(-2.604 -46.916)" fill="#1d272b"/>
    <path id="Trazado_163369" data-name="Trazado 163369" d="M5502.866,1430.474h.46c-.014.878-.011,1.757-.053,2.635-.011.249.171.722-.365.642-.343-.051-.26-.41-.244-.658C5502.722,1432.22,5502.8,1431.347,5502.866,1430.474Z" transform="translate(0 -20.65)" fill="#1d272b"/>
    <path id="Trazado_163370" data-name="Trazado 163370" d="M5538.258,1490.1q-.007-.218-.014-.436c1.044-.031,2.14-.279,2.943.7Z" transform="translate(-26.089 -63.987)" fill="#1d272b"/>
    <path id="Trazado_163371" data-name="Trazado 163371" d="M5561.123,1428.778a.447.447,0,0,0,.272.472l-.585.471c-.459.211-.911.441-1.379.63-.372.15-.835.48-.947-.285C5559.556,1430.03,5560.156,1429.028,5561.123,1428.778Z" transform="translate(-40.921 -19.407)" fill="#1d272b"/>
    <path id="Trazado_163372" data-name="Trazado 163372" d="M5596.106,1511.784c-.019.132-.036.265-.055.4a13.553,13.553,0,0,1-3.66-.819l1.316-.123C5594.463,1511.616,5595.37,1511.325,5596.106,1511.784Z" transform="translate(-65.77 -79.838)" fill="#1d272b"/>
    <path id="Trazado_163373" data-name="Trazado 163373" d="M5528.715,1434.261c-.571.81-1.455.354-2.157.422a2.76,2.76,0,0,0-1.58.628l-.006-.01-.1-.562c.035-.091.07-.182.1-.274l.286-.237,2.134-.1.787.007Z" transform="translate(-16.29 -23.331)" fill="#1d272b"/>
    <path id="Trazado_163374" data-name="Trazado 163374" d="M5628.632,1512.344l-.414-.009-.008-2.933.446-.011A8.486,8.486,0,0,1,5628.632,1512.344Z" transform="translate(-92.02 -78.483)" fill="#1d272b"/>
    <path id="Trazado_163375" data-name="Trazado 163375" d="M5556.473,1526.825l-.336-.347c.144-1.016.481-1.878,1.651-2.079l-.016-.018c-.107.778-.993,1.1-1.1,1.876a.536.536,0,0,0-.2.556Z" transform="translate(-39.201 -89.468)" fill="#1d272b"/>
    <path id="Trazado_163376" data-name="Trazado 163376" d="M5552.1,1485.331l-2.893-.179" transform="translate(-34.121 -60.72)" fill="#1d272b"/>
    <path id="Trazado_163377" data-name="Trazado 163377" d="M5535.431,1486.176l.353.326a4.465,4.465,0,0,1-3.216-.11c.2-.338.5-.232.742-.309Z" transform="translate(-21.929 -61.402)" fill="#1d272b"/>
    <path id="Trazado_163378" data-name="Trazado 163378" d="M5597.648,1461.819c.072-.2.145-.4.216-.6a1.487,1.487,0,0,1,.261.057l-.01.809v0l-.292.253a.666.666,0,0,0-.247.077c-.542.033-1.1-.144-1.619.152l-.5.134-.677-.154C5595.633,1461.719,5596.769,1462.269,5597.648,1461.819Z" transform="translate(-67.518 -43.184)" fill="#1d272b"/>
    <path id="Trazado_163379" data-name="Trazado 163379" d="M5575.658,1460.061c.092.141.284.383.258.409-.479.486-2.27.133-2.671-.51A10.987,10.987,0,0,0,5575.658,1460.061Z" transform="translate(-51.739 -42.258)" fill="#1d272b"/>
    <path id="Trazado_163380" data-name="Trazado 163380" d="M5550.847,1512.551l0,.085a4.464,4.464,0,0,1-2.741-.1.36.36,0,0,0-.007-.134A2.946,2.946,0,0,1,5550.847,1512.551Z" transform="translate(-33.313 -80.495)" fill="#1d272b"/>
    <path id="Trazado_163381" data-name="Trazado 163381" d="M5599.666,1438.458l.235.391a7.1,7.1,0,0,1-2.638.112l.27-.51Z" transform="translate(-69.34 -26.495)" fill="#1d272b"/>
    <path id="Trazado_163382" data-name="Trazado 163382" d="M5572.259,1512.894l.805-.461,1.6.011c.168.119.462.225.475.359.025.244-.263.138-.4.138C5573.913,1512.94,5573.086,1512.913,5572.259,1512.894Z" transform="translate(-51.016 -80.713)" fill="#1d272b"/>
    <path id="Trazado_163383" data-name="Trazado 163383" d="M5626.671,1468.445c.021.216.047.429.275.541a2.619,2.619,0,0,1-.77,1.417q-.04-.258-.079-.514Z" transform="translate(-90.471 -48.477)" fill="#1d272b"/>
    <path id="Trazado_163384" data-name="Trazado 163384" d="M5615.223,1483.69a3.132,3.132,0,0,1,1.628-.992C5616.758,1483.766,5615.876,1483.54,5615.223,1483.69Z" transform="translate(-82.502 -58.922)" fill="#1d272b"/>
    <path id="Trazado_163385" data-name="Trazado 163385" d="M5529.524,1438.666l-.3.225-.51.1-.526,0-.535-.091c-.053-.193-.572-.618.107-.485a7.01,7.01,0,0,0,1.753-.082Q5529.518,1438.5,5529.524,1438.666Z" transform="translate(-18.151 -26.409)" fill="#1d272b"/>
    <path id="Trazado_163386" data-name="Trazado 163386" d="M5599.19,1465.8c.516-.3,1.077-.118,1.618-.152A1,1,0,0,1,5599.19,1465.8Z" transform="translate(-70.752 -46.408)" fill="#1d272b"/>
    <path id="Trazado_163387" data-name="Trazado 163387" d="M5528.254,1465.592a1.22,1.22,0,0,1,1.089.174C5528.91,1466.152,5528.521,1466.25,5528.254,1465.592Z" transform="translate(-18.768 -46.352)" fill="#1d272b"/>
    <path id="Trazado_163388" data-name="Trazado 163388" d="M5554.238,1465.615a1.2,1.2,0,0,1,1.087.174C5554.894,1466.168,5554.507,1466.26,5554.238,1465.615Z" transform="translate(-37.81 -46.366)" fill="#1d272b"/>
    <path id="Trazado_163389" data-name="Trazado 163389" d="M5598.174,1517.419l1.888-.01A2.416,2.416,0,0,1,5598.174,1517.419Z" transform="translate(-70.008 -84.359)" fill="#1d272b"/>
    <path id="Trazado_163390" data-name="Trazado 163390" d="M5607.272,1462.245q0-.4.01-.809c.272.042.512.127.464.473C5607.71,1462.177,5607.487,1462.212,5607.272,1462.245Z" transform="translate(-76.675 -43.339)" fill="#1d272b"/>
    <path id="Trazado_163391" data-name="Trazado 163391" d="M5580.226,1465.625c.3-.044.6-.125.81.2Q5580.463,1466.4,5580.226,1465.625Z" transform="translate(-56.855 -46.379)" fill="#1d272b"/>
    <path id="Trazado_163392" data-name="Trazado 163392" d="M5589.114,1517.473l1.441.01A1.481,1.481,0,0,1,5589.114,1517.473Z" transform="translate(-63.368 -84.406)" fill="#1d272b"/>
    <path id="Trazado_163393" data-name="Trazado 163393" d="M5624.427,1473.848q.039.257.079.514l-.4.579-.284-.234A1.528,1.528,0,0,1,5624.427,1473.848Z" transform="translate(-88.8 -52.436)" fill="#1d272b"/>
    <path id="Trazado_163394" data-name="Trazado 163394" d="M5587.783,1457.96a.568.568,0,0,1-.56.158C5587.32,1457.75,5587.462,1457.536,5587.783,1457.96Z" transform="translate(-61.983 -40.622)" fill="#1d272b"/>
    <path id="Trazado_163395" data-name="Trazado 163395" d="M5582.813,1485.542l.255.459-.783-.184c0-.107-.009-.213-.014-.321Z" transform="translate(-58.354 -60.972)" fill="#1d272b"/>
    <path id="Trazado_163396" data-name="Trazado 163396" d="M5580.073,1485.479q.007.16.013.32l-.812-.046,0-.281Z" transform="translate(-56.155 -60.955)" fill="#1d272b"/>
    <path id="Trazado_163397" data-name="Trazado 163397" d="M5554.961,1433.667c.006.181.008.383-.25.329-.063-.013-.087-.212-.129-.325Z" transform="translate(-38.062 -22.99)" fill="#1d272b"/>
    <path id="Trazado_163398" data-name="Trazado 163398" d="M5524.029,1436.406l.1.562c-.136-.078-.347-.128-.39-.241C5523.665,1436.533,5523.859,1436.452,5524.029,1436.406Z" transform="translate(-15.446 -24.997)" fill="#1d272b"/>
    <path id="Trazado_163399" data-name="Trazado 163399" d="M5581.145,1517.463l1.15.006A1.073,1.073,0,0,1,5581.145,1517.463Z" transform="translate(-57.528 -84.399)" fill="#1d272b"/>
    <path id="Trazado_163400" data-name="Trazado 163400" d="M5535.108,1433.646l-.787-.007A.514.514,0,0,1,5535.108,1433.646Z" transform="translate(-23.214 -22.838)" fill="#1d272b"/>
    <path id="Trazado_163401" data-name="Trazado 163401" d="M5542.483,1466.621l.494-.182Z" transform="translate(-29.195 -47.006)" fill="#1d272b"/>
    <path id="Trazado_163402" data-name="Trazado 163402" d="M5574.073,1465.886a.558.558,0,0,1,.578-.143A.583.583,0,0,1,5574.073,1465.886Z" transform="translate(-52.346 -46.479)" fill="#1d272b"/>
    <path id="Trazado_163403" data-name="Trazado 163403" d="M5548.132,1465.906a.531.531,0,0,1,.565-.143Z" transform="translate(-33.335 -46.493)" fill="#1d272b"/>
    <path id="Trazado_163404" data-name="Trazado 163404" d="M5530.312,1440.785l.526,0A.3.3,0,0,1,5530.312,1440.785Z" transform="translate(-20.276 -28.203)" fill="#1d272b"/>
    <path id="Trazado_163405" data-name="Trazado 163405" d="M5557.36,1531.957a.536.536,0,0,1,.2-.556Z" transform="translate(-40.091 -94.613)" fill="#1d272b"/>
    <path id="Trazado_163406" data-name="Trazado 163406" d="M5534.412,1491.632l.548-.118Z" transform="translate(-23.28 -65.382)" fill="#1d272b"/>
    <path id="Trazado_163407" data-name="Trazado 163407" d="M5549.3,1440.88l.334.12Z" transform="translate(-34.192 -28.276)" fill="#1d272b"/>
    <path id="Trazado_163408" data-name="Trazado 163408" d="M5525.553,1434.493l-.286.237Z" transform="translate(-16.579 -23.595)" fill="#1d272b"/>
    <path id="Trazado_163409" data-name="Trazado 163409" d="M5511.555,1468.428l-.252.271Z" transform="translate(-6.345 -48.464)" fill="#1d272b"/>
    <path id="Trazado_163410" data-name="Trazado 163410" d="M5606.17,1464.724l.293-.253Z" transform="translate(-75.868 -45.564)" fill="#1d272b"/>
    <path id="Trazado_163411" data-name="Trazado 163411" d="M5555.957,1440.889l.363-.119Z" transform="translate(-39.069 -28.195)" fill="#1d272b"/>
    <path id="Trazado_163412" data-name="Trazado 163412" d="M5512.583,1467.5l-.3.24Z" transform="translate(-7.062 -47.782)" fill="#1d272b"/>
    <path id="Trazado_163413" data-name="Trazado 163413" d="M5599.3,1459.748l-.346-.122Z" transform="translate(-70.576 -42.014)" fill="#1d272b"/>
    <path id="Trazado_163414" data-name="Trazado 163414" d="M5535.385,1490.128l-.265.061Z" transform="translate(-23.8 -64.367)" fill="#1d272b"/>
    <path id="Trazado_163415" data-name="Trazado 163415" d="M5535.284,1438.048c0-.111-.009-.222-.012-.333a2.1,2.1,0,0,1,1.615-.126c0,.137,0,.273-.007.41Z" transform="translate(-23.911 -25.791)" fill="#1d272b"/>
  </g>
</svg>
