<svg xmlns="http://www.w3.org/2000/svg" xmlns:xlink="http://www.w3.org/1999/xlink" width="76.783" height="76.783" viewBox="0 0 76.783 76.783">
  <defs>
    <radialGradient id="radial-gradient" cx="0.076" cy="0.019" r="1.465" gradientTransform="translate(0.001)" gradientUnits="objectBoundingBox">
      <stop offset="0" stop-color="#f6f6f7"/>
      <stop offset="0.477" stop-color="#f9f9fa"/>
      <stop offset="0.715" stop-color="#fff"/>
    </radialGradient>
  </defs>
  <g id="icon18" transform="translate(-233.65 -755.984)">
    <g id="Grupo_42274" data-name="Grupo 42274" transform="translate(233.65 755.984)">
      <g id="Grupo_18423" data-name="Grupo 18423" transform="translate(0 0)">
        <g id="Grupo_18421" data-name="Grupo 18421">
          <g id="Grupo_18420" data-name="Grupo 18420">
            <g id="Grupo_18419" data-name="Grupo 18419">
              <path id="Trazado_40936" data-name="Trazado 40936" d="M271.406,2184.112a38.391,38.391,0,1,1-38.391-38.39A38.391,38.391,0,0,1,271.406,2184.112Z" transform="translate(-194.623 -2145.721)" fill="#fff"/>
            </g>
          </g>
        </g>
        <path id="Trazado_40937" data-name="Trazado 40937" d="M271.279,2183.973a38.391,38.391,0,1,0-38.391,38.392A38.239,38.239,0,0,0,271.279,2183.973Z" transform="translate(-194.496 -2145.583)" fill="url(#radial-gradient)"/>
        <path id="Trazado_40938" data-name="Trazado 40938" d="M261.148,2182.943a29.3,29.3,0,1,0-29.3,29.3A29.2,29.2,0,0,0,261.148,2182.943Z" transform="translate(-193.336 -2144.424)" fill="none" stroke="#1d272b" stroke-miterlimit="10" stroke-width="2"/>
        <g id="Grupo_18422" data-name="Grupo 18422" transform="translate(6.801 21.554)">
          <path id="Trazado_40939" data-name="Trazado 40939" d="M266.644,2164.488a38.4,38.4,0,0,1-66.1,38.232,38.274,38.274,0,0,0,66.1-38.232Z" transform="translate(-200.545 -2164.488)" fill="#eceef0"/>
        </g>
      </g>
    </g>
    <g id="eg27Fq" transform="translate(-4813.958 -451.026)">
      <g id="Grupo_127479" data-name="Grupo 127479" transform="translate(5078.607 1227.253)">
        <path id="Trazado_163332" data-name="Trazado 163332" d="M5078.614,1288.88c0-3.314-.017-6.628,0-9.942.029-4.745,3.911-7.716,8.454-6.454a5.552,5.552,0,0,1,4.185,5.026,8.711,8.711,0,0,0,2.222,4.937,8.915,8.915,0,0,1,2.219,6.166c-.01,3.658-.019,7.317.024,10.974.011.937-.279,1.306-1.25,1.3q-7.354-.064-14.708-.029c-.978.006-1.16-.445-1.156-1.259C5078.622,1296.024,5078.614,1292.452,5078.614,1288.88Zm15.757,10.65c0-3.589-.018-7.019.006-10.45a8.346,8.346,0,0,0-2.093-5.927,9,9,0,0,1-2.346-5.3,4.8,4.8,0,0,0-6.544-4.05,5.1,5.1,0,0,0-3.4,5.11c-.042,6.5,0,12.991-.056,19.486-.009,1.084.514,1.182,1.331,1.176,3.224-.024,6.448-.033,9.672-.045C5092.046,1299.527,5093.152,1299.53,5094.371,1299.53Z" transform="translate(-5078.607 -1260.587)" fill="#1d272b"/>
        <path id="Trazado_163333" data-name="Trazado 163333" d="M5098.94,1227.326v3.266a26.165,26.165,0,0,0-3.9.834,27.853,27.853,0,0,0-3.452,1.884,2.7,2.7,0,0,1-1.117.446c-2.149.037-4.3.029-6.449,0a3.222,3.222,0,0,1-3.291-2.967,3.135,3.135,0,0,1,2.833-3.414C5088.662,1227.245,5093.767,1227.326,5098.94,1227.326Zm-1.038,1.785c-.484-.289-.589-.407-.695-.407-4.416-.025-8.833-.066-13.248-.036a1.892,1.892,0,1,0,.217,3.773c1.844.008,3.689.012,5.533-.03a2.012,2.012,0,0,0,1.164-.36,11.865,11.865,0,0,1,5.833-2.482A7.562,7.562,0,0,0,5097.9,1229.112Z" transform="translate(-5080.174 -1227.288)" fill="#1d272b"/>
        <path id="Trazado_163334" data-name="Trazado 163334" d="M5132.628,1254.107l-.627.973c-.125,0-.225.032-.272,0a11.207,11.207,0,0,1-3.685-5.172c-.317-.869-.167-1.4.932-1.675A9.573,9.573,0,0,0,5132.628,1254.107Z" transform="translate(-5115.168 -1242.811)" fill="#1d272b"/>
        <path id="Trazado_163335" data-name="Trazado 163335" d="M5091.661,1256.922v-1.263h6.4v1.263Z" transform="translate(-5088.29 -1248.323)" fill="#1d272b"/>
        <path id="Trazado_163336" data-name="Trazado 163336" d="M5098.123,1265.468h-6.494v-1.221h6.391Z" transform="translate(-5088.266 -1254.693)" fill="#1d272b"/>
        <path id="Trazado_163337" data-name="Trazado 163337" d="M5156.118,1230.654h-1.184v-3.344l1.184-.057Z" transform="translate(-5135.222 -1227.253)" fill="#1d272b"/>
        <path id="Trazado_163338" data-name="Trazado 163338" d="M5091.285,1309.349c0-2.145-.028-4.292.027-6.436.009-.372.37-.734.568-1.1.254.367.724.731.729,1.1q.078,6.5,0,13c0,.347-.434.69-.667,1.035-.218-.346-.617-.687-.626-1.039-.059-2.187-.029-4.377-.029-6.566Z" transform="translate(-5088.005 -1282.557)" fill="#1d272b"/>
      </g>
    </g>
  </g>
</svg>
