<svg xmlns="http://www.w3.org/2000/svg" xmlns:xlink="http://www.w3.org/1999/xlink" width="420.566" height="584.557" viewBox="0 0 420.566 584.557">
  <defs>
    <linearGradient id="linear-gradient" x1="0.5" x2="0.5" y2="1" gradientUnits="objectBoundingBox">
      <stop offset="0" stop-color="#f5f5f5"/>
      <stop offset="0.25" stop-color="#f5f5f5"/>
      <stop offset="1" stop-color="#eeeef2"/>
    </linearGradient>
    <linearGradient id="linear-gradient-2" x1="0.5" x2="0.5" y2="1" gradientUnits="objectBoundingBox">
      <stop offset="0" stop-color="#fff"/>
      <stop offset="1" stop-color="#f8f8f8"/>
    </linearGradient>
    <radialGradient id="radial-gradient" cx="0.076" cy="0.019" r="1.465" gradientTransform="translate(0.001)" gradientUnits="objectBoundingBox">
      <stop offset="0" stop-color="#f6f6f7"/>
      <stop offset="0.477" stop-color="#f9f9fa"/>
      <stop offset="0.715" stop-color="#fff"/>
    </radialGradient>
  </defs>
  <g id="img14" transform="translate(-205.292 -7679.056)">
    <g id="Grupo_128293" data-name="Grupo 128293" transform="translate(-816.036 4360.658)">
      <path id="Trazado_163418" data-name="Trazado 163418" d="M444.405,660.369c15.846-36.8,20.354-84.566,11.963-126.743-5.3-26.666-15.485-51.438-16.786-79.245-2.6-55.6,30.211-100.542,37.019-155.3,2.992-24.064-.272-52.1-13.1-66.716-12.668-14.437-30.749-11.49-45.09-1.379s-26.477,26.3-40.247,38.13-30.725,19.147-45.266,9.73c-14.729-9.539-23.084-33.584-27.764-57.019s-6.977-48.395-14.964-69.626c-13.163-34.991-41.23-54.07-67.385-49.133s-49.523,31.981-62.058,67.51-14.725,78.5-8.486,117.746c3.165,19.9,8.379,38.963,11.222,58.981s3.1,41.927-3.244,59.957c-13.274,37.7-48.291,42.961-66.628,75.294-15.135,26.686-15.609,67.41-7.021,100.228S111.3,642.232,127.4,667.565c75.067,3.868,151.479,4.124,226.546,7.991C383.117,677.059,415.264,663,444.405,660.369Z" transform="translate(940.366 3227.286)" fill="#a4a4b4" opacity="0.354" style="mix-blend-mode: multiply;isolation: isolate"/>
      <path id="Trazado_163419" data-name="Trazado 163419" d="M359.21,182.831c-.185,19.826,18.661,37.081,15.381,56.634-1.754,10.462-9.726,21.067-5.092,30.61,4.1,8.444,15.838,9.908,24.814,7.163,21.011-6.428,33.782-27.9,39.889-49.012,5.745-19.853,7.171-42.029-2.03-60.536-7.414-14.911-24.518-28.075-41.887-26.858C374.377,141.949,359.349,167.9,359.21,182.831Z" transform="translate(1003.099 3282.24)" fill="#a4a4b4" opacity="0.31" style="mix-blend-mode: multiply;isolation: isolate"/>
      <path id="Trazado_163420" data-name="Trazado 163420" d="M116.809,147.5c-13.1,21.861-13.694,50.674-1.5,73.053,3.854,7.071,9.059,13.661,16.087,17.593s16.094,4.809,23.09.819c10.609-6.052,12.955-20.325,12.111-32.51s-3.6-24.958,1.087-36.234c3.059-7.35,8.932-13.081,14.143-19.1s10.073-13.045,10.343-21c.7-20.626-21.2-19.085-34.4-14.8A75,75,0,0,0,116.809,147.5Z" transform="translate(955.784 3224.76)" fill="#a4a4b4" opacity="0.31" style="mix-blend-mode: multiply;isolation: isolate"/>
      <g id="Grupo_127514" data-name="Grupo 127514" transform="translate(1026.579 3326.138)" style="mix-blend-mode: multiply;isolation: isolate">
        <path id="Trazado_151849" data-name="Trazado 151849" d="M443.426,623.388l-1.634-2.069c4.495-6.814,11.67-22.433,9.241-50.517-1.081-12.5-3.761-24.85-6.353-36.792-1.157-5.335-2.354-10.852-3.4-16.33-11.147-58.452-6.271-122.933,13.377-176.907,1.745-4.79,3.633-9.6,5.461-14.243,5.415-13.777,11.014-28.025,13.422-43.416,4.223-27.007-4.125-47.25-13.668-54.628-9.155-7.082-22.079-6-35.455,2.971a167.322,167.322,0,0,0-14.248,11.173c-6.078,5.13-12.362,10.432-19.111,14.187-26.55,14.773-59.744,2.218-77.21-29.2-8.394-15.1-13.134-33.345-17.718-50.993-1.776-6.838-3.613-13.91-5.632-20.676-6.282-21.037-17.779-47.442-36.878-53.758-16.781-5.553-33.779,6.651-45.08,17.865-21.622,21.456-36.863,50.515-42.918,81.821-4.082,21.111-4.246,44.089-4.406,66.31-.236,33.092-.482,67.311-13.956,94.869-6.13,12.537-14.561,22.539-22.713,32.213-7.636,9.059-15.531,18.428-21.417,29.783-13.337,25.729-16.606,62.156-8.969,99.941,6.863,33.949,20.851,64.071,34.379,93.2l-1.859,1.659c-13.616-29.321-27.7-59.641-34.649-94.035-7.82-38.687-4.429-76.069,9.3-102.558,6.042-11.656,14.04-21.145,21.774-30.323,8.043-9.542,16.359-19.41,22.321-31.6,13.1-26.793,13.331-59.039,13.574-93.178.161-22.413.326-45.588,4.483-67.076,6.186-31.989,21.73-61.65,43.766-83.521,11.675-11.585,29.285-24.174,46.88-18.353,20.007,6.617,31.929,33.871,38.407,55.568,2.04,6.833,3.886,13.939,5.67,20.81,4.526,17.423,9.2,35.441,17.388,50.158,16.884,30.371,48.972,42.506,74.637,28.226,6.577-3.659,12.783-8.9,18.785-13.959A168.657,168.657,0,0,1,423.456,228.7c14.033-9.409,27.7-10.466,37.5-2.889,10.233,7.914,19.214,29.426,14.752,57.958-2.475,15.822-8.152,30.266-13.643,44.235-1.819,4.626-3.7,9.409-5.427,14.156-19.408,53.313-24.224,117-13.213,174.74,1.034,5.429,2.227,10.92,3.379,16.232,2.619,12.067,5.327,24.545,6.432,37.31C455.764,599.736,448.175,616.19,443.426,623.388Z" transform="translate(-87.906 -97.739)" fill="#a4a4b4"/>
      </g>
      <g id="Grupo_127520" data-name="Grupo 127520" transform="translate(1103.638 3318.398)">
        <g id="Grupo_121036" data-name="Grupo 121036" transform="translate(0 85.823)">
          <path id="Trazado_158690" data-name="Trazado 158690" d="M616.26,236.308c-1.427-3-10.779,27.232-10.779,27.232l-1.418-9.928-10.5-8.226s-5.106,6.241-6.241,10.5-12.481,55.032-10.212,62.975,1.135,25.247,12.481,32.055,23.261-13.332,28.651-19.573S621.933,248.222,616.26,236.308Z" transform="translate(-576.814 -236.099)" fill="url(#linear-gradient)"/>
          <path id="Trazado_158691" data-name="Trazado 158691" d="M590.08,249.451s-1.986,25.53.567,28.367-4.539,36.026-1.7,38.012,7.659-15.886,5.673-21.843,4.823,5.673,4.823-.284,3.12-30.069-9.645-45.387" transform="translate(-562.281 -220.591)" fill="#868695"/>
        </g>
        <g id="Grupo_121037" data-name="Grupo 121037" transform="translate(7.477 84.341)">
          <path id="Trazado_158692" data-name="Trazado 158692" d="M606,268.806c-.817-.182-3.812.681-7.148,1.067a16.713,16.713,0,0,1-6.649-.3c-9.463-2.837-12.1-9.849-12.1-9.849,2.9-3.041,10.8-24.282,10.8-24.282l8.714,1.77,3.812.772c-.318,1.952-.522,3.79-.658,5.537v.023a84.984,84.984,0,0,0,.159,13.14C603.188,260.59,608.158,269.237,606,268.806Z" transform="translate(-580.109 -235.446)" fill="#db8804"/>
          <path id="Trazado_158693" data-name="Trazado 158693" d="M596.39,237c-.318,1.952-.522,3.79-.658,5.537v.023a2.684,2.684,0,0,1-.431.25c-4.834,2.405-9.645-3.971-9.645-3.971l6.922-2.61Z" transform="translate(-573.068 -234.456)" fill="#f7b242"/>
          <path id="Trazado_158694" data-name="Trazado 158694" d="M598.883,259.615c-.817-.182-3.813.681-7.148,1.067-1.316-2.088-1.748-4.2-.794-6.173-1.7-2.723-5.219-11.1-5.219-11.1-.136-2.564,5.378,2.406,7.375,3.676a3.6,3.6,0,0,0,2.723.408C596.069,251.4,601.039,260.046,598.883,259.615Z" transform="translate(-572.989 -226.255)" fill="#f7b242"/>
        </g>
        <g id="Grupo_121038" data-name="Grupo 121038" transform="translate(3.971 44.866)">
          <path id="Trazado_158695" data-name="Trazado 158695" d="M614.374,239.233l-3.883,11.984c-3.86,12-5.6,10.682-12.025,12.895-6.009,2.076-11.013-8.483-11.875-13.389-.761-4.142-8.32-11.712-8.018-15.3.12-1.45,1.132-.715,3.2,1.965a24.675,24.675,0,0,0,5.732,5.185c1.784-4.046-8.14-14.537-5.58-18.577,1.253-1.958,7.049,14.361,9.742,14.576,0,0,.785-1.409-1.414-9.64-1.255-4.727-2.592-9.583-1.4-10.646,2.17-1.92,3.089,8.435,8.428,18.958,0,0-.452-5.315-1.2-10.21-.7-4.468-1.825-8.571.193-8.694,1.654-.107,2.557,6.894,3.3,11.333a50.326,50.326,0,0,0,5.9,16.877,17.725,17.725,0,0,0,1.339,2.072C611.78,236.726,614.374,239.233,614.374,239.233Z" transform="translate(-578.564 -218.051)" fill="#db8804"/>
          <path id="Trazado_158696" data-name="Trazado 158696" d="M594.539,232.68s-5.079,2.251-6.077,6.375a6.856,6.856,0,0,1,4.738-8.447A17.675,17.675,0,0,0,594.539,232.68Z" transform="translate(-566.288 -202.112)" fill="#f7b242"/>
        </g>
        <g id="Grupo_121039" data-name="Grupo 121039" transform="translate(15.442 77.583)">
          <path id="Trazado_158697" data-name="Trazado 158697" d="M727.792,285.317a115.466,115.466,0,0,1-1.7,14.637q-1.158,6.74-2.723,13.412v.023a321.825,321.825,0,0,1-9.8,33.5c-2.269,6.558-4.494,13.571-7.829,19.675-1.5,2.746-4.107,5.151-4.493,8.351-.658,5.356,1.521,5.56-2.247,10.189-2.451,3.018-.93,7.443.59,11.029.726,1.725,1.43,3.449,2.088,5.2,10.938,28.14,13.911,57.392,11.211,87.484-1.316,14.615-3.177,29.184-4.924,43.753-.908,7.421-3.132,16.43-1.634,23.9,1.634,8.238-2,87.3-12.935,130.465a111.91,111.91,0,0,1-5.31,16.408l-17.315-.5s-7.557-96.085-7.943-133.892c-.25-25.893-5.469-60.456-8.737-79.677-1.52-8.873-2.61-14.5-2.61-14.5s4.176,59.366,4.176,72.619c0,13.23-3.79,28.367-3.79,28.367s8.329,91.523,5.673,132.371l-16.816,1.067-.953.068s-.341-.931-.931-2.678c-1.611-4.652-5.151-15.137-9.3-28.866-.159-.5-.3-1-.431-1.452-.045-.136-.068-.25-.113-.386q-1.021-3.37-1.974-6.74c-.908-3.064-1.793-6.15-2.655-9.236q-.579-2.077-1.157-4.221c-.431-1.475-.817-2.95-1.2-4.425-.772-2.95-1.566-5.968-2.337-9.009-1.929-7.625-3.79-15.522-5.469-23.465-.658-3.177-1.316-6.354-1.906-9.531-.318-1.589-.59-3.177-.885-4.766-6.014-33.677-7.716-50.652-8.192-58.255a51.225,51.225,0,0,1-.136-5.288s-17.02-43.118-19.289-94.541c-1.271-28.775,5.265-49.517,11.3-62.18,4.72-9.985,9.123-14.978,9.123-14.978a.247.247,0,0,1-.046-.091c-.295-.84-2.474-7.171-.7-8.238a14.3,14.3,0,0,0,1.43-.976,19.927,19.927,0,0,0,1.974-1.679s-1.861-11.846-3.586-28.163c-3.2-30.069-5.946-75.275,4.357-89.186,7.625-10.326,22.285-8.6,26.824-7.829,1.316.227,4.7,1.974,8.851,4.334,10.144,5.787,24.827,15.318,24.827,15.318s20.356-3.7,31.816-2.451a21.976,21.976,0,0,1,3.359.567c10.212,2.655,19.289,7.943,23.828,25.349A32.864,32.864,0,0,1,727.792,285.317Z" transform="translate(-583.619 -232.468)" fill="url(#linear-gradient-2)"/>
          <path id="Trazado_158698" data-name="Trazado 158698" d="M666.562,247.513c-18.064,4.357-42.709,19.358-48.36,18.45-7.1-1.135-11.347-11.642-5.4-7.4,5.946,4.266,26.1-2.542,26.1-2.542s-20.152,1.407-24.691-6.536c-2.837-4.947-3.9-10.984-4.289-14.842,10.144,5.787,24.827,15.318,24.827,15.318S655.1,246.265,666.562,247.513Z" transform="translate(-550.234 -229.704)" fill="url(#linear-gradient)"/>
          <path id="Trazado_158699" data-name="Trazado 158699" d="M611.975,308.8c1.77.772-12.777,1.566-23.306-1.089,4.72-9.985,9.123-14.978,9.123-14.978S609.411,307.668,611.975,308.8Z" transform="translate(-577.208 -155.967)" fill="#868695"/>
          <path id="Trazado_158700" data-name="Trazado 158700" d="M667.191,313.157c-1.725,1.225-46.249,32.611-73.3-7.829a19.922,19.922,0,0,0,1.974-1.679S594,291.8,592.279,275.486c3.381,10.6,10.189,25.666,24.486,35.629C637.8,325.8,665.874,313.725,667.191,313.157Z" transform="translate(-572.625 -177.863)" fill="#868695"/>
          <path id="Trazado_158701" data-name="Trazado 158701" d="M682.433,571.738a111.916,111.916,0,0,1-5.31,16.408l-17.315-.5s-7.557-96.085-7.943-133.892c-.249-25.893-5.469-60.456-8.737-79.677-1.52-8.873-2.61-14.5-2.61-14.5s4.176,59.366,4.176,72.619c0,13.23-3.79,28.367-3.79,28.367s8.329,91.523,5.674,132.372L629.761,594a20.137,20.137,0,0,1-1.883-2.61c-5.083-8.147-7.148-20.923-9.3-28.866-.159-.5-.3-1-.431-1.452-.045-.136-.068-.25-.113-.386q-1.021-3.37-1.974-6.74c-.908-3.064-1.793-6.15-2.655-9.236q-.579-2.077-1.157-4.221c-.431-1.475-.817-2.95-1.2-4.425-.817-3-1.589-5.991-2.337-9.009q-3-11.676-5.469-23.465c-.658-3.177-1.316-6.354-1.906-9.531-.318-1.589-.59-3.177-.885-4.766-6.014-33.677-7.716-50.652-8.192-58.254,1.793,1.838,3.313,3.472,4.4,4.743,6.241,7.375,3.971,22.126,15.885,26.1s16.453-21.559,16.453-28.934-19.857-30.069-15.886-33.473,13.049-22.126,13.049-22.126-23.261,11.347-27.8,3.4,13.616-3.971,17.587-3.971,17.02-4.539,10.212-7.375-21.559-2.837-23.828-6.241,12.482-10.779,17.588-8.51c1.77.794-.749-.976-1.067-1.271-2.292-2.043-5.083-3.631-7.511-5.492-3.54-2.723-7.421-5.424-10.008-9.123-1.226-1.77-4.675-9.3.885-7.307,1.384.477,2.5,1.611,3.926,1.884.681.136,1.384.091,2.065.227,2.587.59,3.563,3.858,5.81,5.219,1.679,1.021,3.79.84,5.719.635a7.742,7.742,0,0,0-3.064-3.041c-3.495-2.383-6.99-4.743-10.462-7.126-.023-.023-7.035-5.651-3-6.014,4.516-.409,8.351,3.381,12.822,4.108,3.676.613,7.512-.908,11.165-.159a28.826,28.826,0,0,1,5.038,1.929c8.147,3.336,17.451,1.974,25.961-.318q-5.889,5.174-11.733,10.394c5.31-.862,12.481-4.289,17.565-3.835-.386,7.33-14.773,15.432-20.288,19.289,5.129,1.77,11.074,3.064,15.681,5.764-3.722,4.4-5.288,8.987-5.878,14.864-1.77,17.565-3.495,35.72,1.884,52.513,1.452,4.607,3.449,9.077,4.176,13.843.749,5.083.023,10.3.953,15.363s4.266,10.3,9.372,10.961a4.609,4.609,0,0,1,2.224.545c1.974,1.407-.159,4.289-1.589,6.241-2.973,3.994-2.406,9.667-.25,14.138,2.156,4.448,5.651,8.1,8.578,12.1a7.244,7.244,0,0,1,1.679,3.608c.159,1.861-1,3.518-1.952,5.106-3.495,5.878-4.63,12.8-5.719,19.516-.408,2.61-.84,5.31-.2,7.875.409,1.589,1.18,3.064,1.657,4.63,1.52,4.993-.182,10.439.84,15.568C676.261,562.592,680.073,566.859,682.433,571.738Z" transform="translate(-572.663 -117.281)" fill="url(#linear-gradient)"/>
          <path id="Trazado_158702" data-name="Trazado 158702" d="M676.621,257.267a115.46,115.46,0,0,1-1.7,14.637q-1.157,6.74-2.723,13.412v.023a321.731,321.731,0,0,1-9.8,33.5c-2.269,6.558-4.493,13.571-7.829,19.675-1.5,2.746-4.107,5.151-4.493,8.351-.658,5.356,1.521,5.56-2.247,10.19-2.451,3.018-.93,7.443.59,11.029.726,1.725,1.43,3.449,2.088,5.2-1.634,2.632-3.313,4.2-4.992,4.4-14.184,1.7-15.318-7.375-7.943-11.347s8.51-13.616,8.51-13.616-12.481,9.077-18.155,9.077-7.67-9.645,10.484-22.126c13.366-9.168,25.507-73.028,37.444-85.1C676.145,255.451,676.394,256.359,676.621,257.267Z" transform="translate(-532.448 -204.418)" fill="#868695"/>
        </g>
        <g id="Grupo_121040" data-name="Grupo 121040" transform="translate(59.854 521.61)">
          <path id="Trazado_158703" data-name="Trazado 158703" d="M640.4,474.625c-2.694-2.857-3.361-37.994-4.593-44.37,0,0-5.746-3.261-17.588-1.7-10.779,1.418-15.034,6.241-15.034,6.241,1.437,3.86,12.268,32.363,11.111,37.941-.978,4.72-6.052,10.779-1.986,18.343H644.2S647.891,482.568,640.4,474.625Z" transform="translate(-603.189 -428.13)" fill="#db8804"/>
          <path id="Trazado_158704" data-name="Trazado 158704" d="M607.763,453.927s8.7-11.295,26.476-2.269c0,0,.756,7.943-7.566,6.429S613.437,462.626,607.763,453.927Z" transform="translate(-597.383 -402.703)" fill="#f7b242"/>
        </g>
        <g id="Grupo_121041" data-name="Grupo 121041" transform="translate(98.717 520.185)">
          <path id="Trazado_158705" data-name="Trazado 158705" d="M644.716,471.26c-2.21-2.9,4.918-34.957,5.383-39.074,0,0-3.69-3.1-12.481-4.255-10.78-1.418-17.3,1.135-17.3,1.135.792,4.931,3.749,40.007,2.841,46.356-1.89,13.208,3.018,16.453,3.018,16.453h31.882C667.167,476.715,648.445,476.148,644.716,471.26Z" transform="translate(-620.314 -427.502)" fill="#db8804"/>
          <path id="Trazado_158706" data-name="Trazado 158706" d="M624.718,453.376s10.589-10.432,27.309-.477c0,0-.077,6.15-8.4,4.636S630.391,462.075,624.718,453.376Z" transform="translate(-614.724 -400.727)" fill="#f7b242"/>
        </g>
        <g id="Grupo_121047" data-name="Grupo 121047" transform="translate(64.221 0)">
          <path id="Trazado_158707" data-name="Trazado 158707" d="M638.965,209.483c16.317.184,33.285,17.4,34.04,28.367s-9.833,41.606-31.771,40.472-34.953-34.231-33.834-44.253S622.135,209.295,638.965,209.483Z" transform="translate(-602.295 -184.063)" fill="#a7c6ce"/>
          <path id="Trazado_158708" data-name="Trazado 158708" d="M633.312,222.572s6.627-7.7,8.147.6c1.759,9.613-6.747,14.186-8.7,11.236S633.312,222.572,633.312,222.572Z" transform="translate(-570.968 -171.576)" fill="#ff8b66"/>
          <path id="Trazado_158709" data-name="Trazado 158709" d="M614.933,224.037s-7.716-6.608-7.961,1.822c-.286,9.77,8.814,13,10.3,9.79S614.933,224.037,614.933,224.037Z" transform="translate(-602.763 -168.714)" fill="#ff8b66"/>
          <path id="Trazado_158710" data-name="Trazado 158710" d="M639.669,274.819c15.91-1.212,24.1-12.286,21.725-43.456-1.223-16.078-10.155-25.317-27.977-23.96s-24.575,11.789-23.349,27.868C612.616,268.765,623.232,276.072,639.669,274.819Z" transform="translate(-599.003 -186.868)" fill="#ff8b66"/>
          <path id="Trazado_158711" data-name="Trazado 158711" d="M612.691,225.786c-.159,1.62,1.357,3.093,3.383,3.291s3.8-.958,3.953-2.578-1.357-3.093-3.383-3.291S612.847,224.166,612.691,225.786Z" transform="translate(-595.51 -166.667)" fill="#db614d"/>
          <path id="Trazado_158712" data-name="Trazado 158712" d="M627.146,225.567c.229,1.611,2.049,2.685,4.064,2.4s3.465-1.825,3.236-3.436-2.049-2.687-4.064-2.4S626.917,223.953,627.146,225.567Z" transform="translate(-577.176 -168.068)" fill="#db614d"/>
          <g id="Grupo_121042" data-name="Grupo 121042" transform="translate(22.368 37.828)">
            <path id="Trazado_158713" data-name="Trazado 158713" d="M615.429,219.442a.794.794,0,0,0,.956-.218c2.027-2.476,5.914-2.678,5.953-2.678a.8.8,0,0,0-.07-1.6c-.188.009-4.643.241-7.117,3.266a.8.8,0,0,0,.114,1.121A.806.806,0,0,0,615.429,219.442Z" transform="translate(-614.97 -214.95)" fill="#0c476b"/>
          </g>
          <g id="Grupo_121043" data-name="Grupo 121043" transform="translate(45.416 36.534)">
            <path id="Trazado_158714" data-name="Trazado 158714" d="M625.587,215.937a.793.793,0,0,0,.42.07c.039,0,3.917-.39,6.293,1.747a.8.8,0,0,0,1.067-1.185c-2.9-2.621-7.342-2.169-7.53-2.149a.8.8,0,0,0-.25,1.516Z" transform="translate(-625.126 -214.38)" fill="#0c476b"/>
          </g>
          <path id="Trazado_158715" data-name="Trazado 158715" d="M616.247,222.722c.152,1.977,1.162,3.511,2.26,3.424s1.865-1.752,1.716-3.726-1.162-3.511-2.26-3.427S616.1,220.746,616.247,222.722Z" transform="translate(-591.005 -171.993)" fill="#1a4850"/>
          <path id="Trazado_158716" data-name="Trazado 158716" d="M626.135,222.009c.15,1.977,1.162,3.511,2.258,3.427s1.868-1.754,1.716-3.729-1.162-3.511-2.26-3.427S625.983,220.033,626.135,222.009Z" transform="translate(-578.454 -172.898)" fill="#1a4850"/>
          <path id="Trazado_158717" data-name="Trazado 158717" d="M633.809,228.506s-9.8,2.14-15.1-.132c0,0,3.443,7.119,8.805,6.048A7.951,7.951,0,0,0,633.809,228.506Z" transform="translate(-587.862 -160.082)" fill="#1a4850"/>
          <path id="Trazado_158718" data-name="Trazado 158718" d="M623.964,222.95s-1.82-4.757-3.7-4.262-3.018,4.775-3.018,4.775l-2.939-1.282,2.853.154s1.141-4.459,3.03-4.611C622.874,217.506,623.964,222.95,623.964,222.95Z" transform="translate(-593.448 -173.609)" fill="#1a4850"/>
          <path id="Trazado_158719" data-name="Trazado 158719" d="M625.388,222.979s1.078-4.977,3.016-4.772,3.7,4.262,3.7,4.262l2.712-1.713-2.8.586s-1.8-4.237-3.692-4.1C625.638,217.433,625.388,222.979,625.388,222.979Z" transform="translate(-579.377 -174.219)" fill="#1a4850"/>
          <g id="Grupo_121044" data-name="Grupo 121044" transform="translate(35.208 53.984)">
            <path id="Trazado_158720" data-name="Trazado 158720" d="M622.753,228.986a4.971,4.971,0,0,0,1.157.37l.322-1.691c-1.439-.275-1.813-1.123-1.874-1.786a2.126,2.126,0,0,1,.924-2.054q.446-.17.987.538l1.368-1.044a2.473,2.473,0,0,0-2.982-1.1,3.778,3.778,0,0,0-2.011,3.813A3.526,3.526,0,0,0,622.753,228.986Z" transform="translate(-620.628 -222.069)" fill="#db614d"/>
          </g>
          <path id="Trazado_158721" data-name="Trazado 158721" d="M615.01,223.558l-1.992,8.02s-5.953-1.591-3.334-11.09S615.01,223.558,615.01,223.558Z" transform="translate(-600.157 -174.599)" fill="#0c476b"/>
          <path id="Trazado_158722" data-name="Trazado 158722" d="M637.915,212.368s-19.337,34.773-29.538,30.024c0,0-2.712-37.2,26.817-37.2s35.377,16.623,35.288,33.085c0,0-4.126,6.089-7.779,5.224C662.7,243.5,667.287,213.067,637.915,212.368Z" transform="translate(-601.054 -189.513)" fill="#0c476b"/>
          <path id="Trazado_158723" data-name="Trazado 158723" d="M622.883,238.167s-13.24-8.131-15.6-21.039" transform="translate(-602.364 -174.357)" fill="none" stroke="#ffd5a2" stroke-linecap="round" stroke-miterlimit="10" stroke-width="0.5"/>
          <path id="Trazado_158724" data-name="Trazado 158724" d="M629.905,243.562s13.8-12.67,14.749-30.684" transform="translate(-573.644 -179.752)" fill="none" stroke="#ffd5a2" stroke-linecap="round" stroke-miterlimit="10" stroke-width="0.5"/>
          <path id="Trazado_158725" data-name="Trazado 158725" d="M611.216,230.58c5.249,18.581,41.416,28.179,48.791-3.452" transform="translate(-597.367 -161.663)" fill="none" stroke="#ffd5a2" stroke-linecap="round" stroke-miterlimit="10" stroke-width="0.5"/>
          <path id="Trazado_158726" data-name="Trazado 158726" d="M633.012,221.166c9.819-.626,20.234,8.7,21.559,14.939s-6.431,21.182-19.1,22.126c-11.724.876-22.314-13.049-22.314-19.666S624.123,221.733,633.012,221.166Z" transform="translate(-594.906 -169.27)" fill="#fff"/>
          <path id="Trazado_158727" data-name="Trazado 158727" d="M620.363,223.107s3.688-2.648,7.28-.284" transform="translate(-585.756 -168.374)" fill="none" stroke="#ffd5a2" stroke-linecap="round" stroke-linejoin="round" stroke-width="0.5"/>
          <path id="Trazado_158728" data-name="Trazado 158728" d="M612.331,222.246a4.748,4.748,0,0,0,.681.318.07.07,0,0,1-.045.023S612.717,222.45,612.331,222.246Z" transform="translate(-595.952 -167.86)" fill="#4ba6c6"/>
          <g id="Grupo_121045" data-name="Grupo 121045" transform="translate(4.671 39.233)">
            <path id="Trazado_158729" data-name="Trazado 158729" d="M632.155,218.76l.377,7.471a28.171,28.171,0,0,0,7.943-3.216c.885-.581,2.648-5.294,2.176-6.241C642.651,216.774,639.34,218.664,632.155,218.76Z" transform="translate(-575.459 -214.04)" fill="#23687a"/>
            <path id="Trazado_158730" data-name="Trazado 158730" d="M615.265,218.742a51.156,51.156,0,0,1-7.847-1.135s-.663,4.35.188,6.148,7.471,2.741,7.471,2.741Z" transform="translate(-607.172 -212.982)" fill="#23687a"/>
            <path id="Trazado_158731" data-name="Trazado 158731" d="M658.415,227.82c-.068,1.7-5.174,4.471-7.194,4.63-2.02.182-8.692-6.2-15.636-6.332s-12.618,6.241-14.252,6.808a3.741,3.741,0,0,1-1.747-.113c-2.791-.658-7.512-2.882-8.1-3.722-.794-1.044-.522-10.6.635-10.779a190.365,190.365,0,0,1,20.56-1.906l1.929-.068c2.383-.068,4.63-.091,6.74-.091a118.333,118.333,0,0,1,16.226.862C659.277,217.54,658.483,226.118,658.415,227.82Z" transform="translate(-602.273 -214.71)" fill="#008f85" opacity="0.25"/>
            <path id="Trazado_158732" data-name="Trazado 158732" d="M632.68,216.316l-13.094,16.407c-2.791-.658-7.512-2.882-8.1-3.722-.794-1.044-.522-10.6.635-10.779A190.354,190.354,0,0,1,632.68,216.316Z" transform="translate(-602.273 -214.621)" fill="#fff" opacity="0.25"/>
            <path id="Trazado_158733" data-name="Trazado 158733" d="M631.931,216.246l-13.48,9.985s3.79-5.2,6.74-9.894C627.574,216.269,629.821,216.246,631.931,216.246Z" transform="translate(-592.854 -214.71)" fill="#fff" opacity="0.25"/>
            <path id="Trazado_158734" data-name="Trazado 158734" d="M659.7,217.65c-1.521-2.269-9.917-2.179-22.694-2-11.347.182-23.828,2-25.53,3.313-1.543,1.2-1.362,8.011-.635,10.961.023,0,.023,0,0,.023a7.191,7.191,0,0,0,.25.749c.953,2.269,9.645,5.288,11.732,5.106,2.088-.2,6.627-7.126,13.8-7.58,7.67-.454,12.209,5.492,14.3,6.445,2.065.93,7.829-2.088,9.259-4.357.068-.113.136-.25.2-.386V229.9C661.542,227.2,661.133,219.806,659.7,217.65Zm-46.522,2.723c.84-.93,6.9-1.884,22.6-2.542,15.681-.658,21.741.386,22.4,1.044.59.567.749,6.695.386,8.692a1.49,1.49,0,0,1-.181.567c-.567.772-5.4,4.176-6.536,3.79s-7.285-5.968-15.137-5.764c-7.829.182-13.412,6.513-14.547,6.99-.749.318-4.2-.953-6.581-2.11a4.748,4.748,0,0,1-.681-.318.022.022,0,0,0-.023-.023,5.109,5.109,0,0,1-1.611-1.044C612.8,228.792,612.388,221.258,613.182,220.373Z" transform="translate(-603.198 -215.569)" fill="#1d272b"/>
            <path id="Trazado_158735" data-name="Trazado 158735" d="M658.322,225.923a3.518,3.518,0,0,1-.567.953c.363-2,.2-8.124-.386-8.692-.658-.658-6.717-1.7-22.4-1.044-15.7.658-21.763,1.611-22.6,2.542-.794.885-.386,8.419.091,9.282a4.373,4.373,0,0,1-1.044-.953c-.658-.953-.567-6.9-.091-8.51.386-1.294,7.943-2.927,23.556-3.313,15.591-.363,22.126.681,22.875,1.43S658.889,224.335,658.322,225.923Z" transform="translate(-602.384 -214.879)" fill="#4ba6c6"/>
            <path id="Trazado_158736" data-name="Trazado 158736" d="M660.081,223.218c-.068.136-.136.272-.2.386-1.43,2.269-7.194,5.288-9.259,4.357-2.088-.953-6.626-6.9-14.3-6.445-7.171.454-11.71,7.375-13.8,7.58-2.088.182-10.78-2.837-11.732-5.106a7.147,7.147,0,0,1-.25-.749,6.333,6.333,0,0,0,2.337,2.247c2.179,1.044,8.51,3.223,9.463,2.746.93-.477,7.262-7.557,14.66-7.375,7.353.2,12.845,5.968,14.07,6.422C652.07,227.666,657.449,225.351,660.081,223.218Z" transform="translate(-602.895 -208.86)" fill="#4ba6c6"/>
          </g>
          <path id="Trazado_158737" data-name="Trazado 158737" d="M678.968,227.023c-2.837-3.7-2-8.238-6.241-13.616-4.244-5.4-19.312-16.158-33.473-15.046-14.479,1.135-10.485,7.1-18.427,9.917-7.943,2.859-13.344,19.017-12.209,21.287s-3.971,4.811-3.4,20.424a30.6,30.6,0,0,0,2.292,11.074c2.655,6.2,6.694,8.442,7.285,8.737a.279.279,0,0,1,.068.045c-.295,1.974,4.832,8.508,4.834,8.51-.177-.227-3.261,2.73-3.349,3.132-.483,2.229,2.657,4.148,4.064,5.689,1.8,1.974,3,4.409,4.566,6.579s3.679,4.169,6.318,4.589c2.124.338,4.25-.393,6.334-.926,6.8-1.734,13.854-1.4,20.8-1.759,2.262-.12,9.252.234,10.9-1.489,1.906-1.995-1.652-4.3-3.4-5.6,1.7,0,2.269-11.074,4.834-12.481,2.542-1.407,7.943-13.889,9.077-18.427s0-9.94,1.68-12.481C683.234,242.613,681.8,230.7,678.968,227.023ZM645.7,286.23a24.491,24.491,0,0,1-4.266.068,21.108,21.108,0,0,1-4.2-.772c-17-4.766-25.371-28.957-22.671-39.51,3.132-12.186,15.885-12.186,27.822-13.049,12.459-.885,23.238,2,27.5,11.619C674.157,254.255,668.325,283.893,645.7,286.23Z" transform="translate(-605.042 -198.281)" fill="url(#linear-gradient-2)"/>
          <path id="Trazado_158738" data-name="Trazado 158738" d="M666.775,224.6c-5.492-15.318-13.623-10.4-29.5-11.528-26.154-1.856-30.267,12.835-28.564,24.386,1.7,11.531,12.112,23.27,12.112,23.27l-4.736-3.98s12.284,18.2,19.85,17.96a30.773,30.773,0,0,0,27.807-18.148l-4.546,4.532S672.244,239.922,666.775,224.6Zm-25.144,43.05c-22.6,2.338-34.245-28.026-31.135-40.213,3.132-12.186,15.885-12.186,27.822-13.049,12.459-.885,23.238,2,27.5,11.619C670.088,235.678,664.256,265.316,641.631,267.653Z" transform="translate(-600.973 -179.704)" fill="#868695"/>
          <path id="Trazado_158739" data-name="Trazado 158739" d="M612.606,216.622s5.862-3.592,9.077-3.592,10.589.188,14.372-.191,9.645-.944,13.428.567,6.241,2.46,6.241,2.46-9.835-6.431-17.02-5.864-10.591.567-13.616.567S614.875,212.65,612.606,216.622Z" transform="translate(-595.603 -183.448)" fill="#1d272b"/>
          <path id="Trazado_158740" data-name="Trazado 158740" d="M637.012,218.732s1.325,8.51-1.323,15.885A13.6,13.6,0,0,0,637.012,218.732Z" transform="translate(-566.302 -172.321)" fill="#1d272b"/>
          <path id="Trazado_158741" data-name="Trazado 158741" d="M613.535,240.344c-.59-.295-4.629-2.542-7.285-8.737a19.079,19.079,0,0,1,1.679-10.121s0,7.557,2.837,11.528A14.28,14.28,0,0,1,613.535,240.344Z" transform="translate(-603.786 -168.825)" fill="#1d272b"/>
          <g id="Grupo_121046" data-name="Grupo 121046" transform="translate(0 87.246)">
            <path id="Trazado_158742" data-name="Trazado 158742" d="M640.347,241.9a.965.965,0,0,0-.182,1.044,2.092,2.092,0,0,0,.7.84,5.332,5.332,0,0,1-2.5,1c-1.157.318-1.089.045-1.952,1.135-1.135,1.407-2.2,2.859-3.291,4.289-1.7,2.247-3.381,4.516-5.015,6.785-.522.681-1,1.384-1.5,2.065C615.588,274.624,605.9,292.6,607.555,312.3c2.587,16.884,2.224,34.063,1.861,50.7-.272,12.391-.568,25.235.409,37.807,1.407,5.56.25,12.05-.885,18.336a67.874,67.874,0,0,0-1.384,11.256c0,4.448,2.247,11.006,4.357,14.342l-1.906,1.2c-2.269-3.586-4.72-10.552-4.72-15.545a69.213,69.213,0,0,1,1.43-11.665c1.067-6.036,2.2-12.277.862-17.565-1-12.89-.7-25.78-.431-38.239.363-16.521.726-33.609-1.838-50.357-1.657-19.675,7.511-37.694,18.45-53.4.93-1.339,1.884-2.678,2.859-3.994,1.294-1.793,2.61-3.54,3.926-5.288,1.135-1.52,2.224-3.041,3.427-4.516,1.135-1.384,2.383-1.452,3.971-2.247a.686.686,0,0,0,.408-.386c.068-.318-.34-.522-.59-.726a1.29,1.29,0,0,1,.045-1.974c.34-.2.84-.408.772-.794a.73.73,0,0,0-.272-.409,3.273,3.273,0,0,1-1-2.111,21.112,21.112,0,0,0,4.2.772c.068.726.045,1.52.159,2.292.068.59.113,1.294-.363,1.657C641,241.651,640.619,241.673,640.347,241.9Z" transform="translate(-605.113 -236.726)" fill="#1d272b"/>
          </g>
        </g>
        <g id="Grupo_121048" data-name="Grupo 121048" transform="translate(41.854 112.947)">
          <path id="Trazado_158743" data-name="Trazado 158743" d="M712.837,266.512c-.272,17.882-24.668,90.774-47.656,94.178-8.4,1.248-18.268-4.607-27.573-12.754-.023-.023-.045-.045-.068-.045-16.135-14.161-30.523-35.2-32.5-38.261-3.109-4.811-11.256-17.292-9.554-25.235s7.58-8.215,7.58-8.215,2.428,1.974,4.13,3.109,14.592,13.911,17.7,15.59c3.132,1.725,24.123,16.748,24.123,16.748s2.837-8.51,6.241-8.215c3.4.272,5.106-1.43,6.241-3.7A202.872,202.872,0,0,1,671.9,276.747c8.465-15.59,21.582-32.565,37.4-27.913.068,0,.84.045,1.679,1.657v.023C711.906,252.351,713,256.708,712.837,266.512Z" transform="translate(-595.257 -248.051)" fill="url(#linear-gradient)"/>
          <path id="Trazado_158744" data-name="Trazado 158744" d="M642.187,289.9c-2.542-.272-11.074-2.269-13.616-2.269s-6.536,4.539-6.808,6.808,9.94,8.215,13.616,13.616-2,10.212-5.4,3.4-11.029-15.886-11.029-15.886,2.837-8.51,6.241-8.215c3.4.272,5.106-1.43,6.241-3.7A202.9,202.9,0,0,1,641.824,260.7C637.49,273.155,644.706,290.175,642.187,289.9Z" transform="translate(-565.184 -232.001)" fill="#868695"/>
          <path id="Trazado_158745" data-name="Trazado 158745" d="M689.148,265.135c-.272,17.883-24.668,90.774-47.657,94.178-8.4,1.248-18.268-4.607-27.573-12.754,4.425,2.519,15.477,8.533,22.172,9.645,8.51,1.43,18.427-6.241,19.017-11.347.545-5.106-2-11.914,1.135-11.914,3.109,0,9.622-1.7,9.622-5.4,0-3.608,27.573-55.8,21.423-78.406C688.218,250.974,689.307,255.331,689.148,265.135Z" transform="translate(-571.569 -246.675)" fill="#1d272b"/>
        </g>
        <g id="Grupo_121049" data-name="Grupo 121049" transform="translate(23.664 105.845)">
          <path id="Trazado_158746" data-name="Trazado 158746" d="M590.418,247.275c.093-.962,1.788-1.718,1.788-1.718s.858,3.123,2.533,4.275a20.9,20.9,0,0,1,5.594,7.085c1.659,3.223,3.542,14.07,3.542,14.07s-9.969-10.432-10.262-12.323S590.418,247.275,590.418,247.275Z" transform="translate(-583.21 -244.115)" fill="#f7b242"/>
          <path id="Trazado_158747" data-name="Trazado 158747" d="M627.4,291.2s-2.649,16.641-14.939,20.424c0,0-10.9-25.031-11.333-27.189-.093-.606-.2-1.005-.2-1.005-11.551-7.074-10.8-13.416-10.8-13.416s-3.788-1.718-.76-6.057a5.174,5.174,0,0,1-1.5-3.152c-.059-.837,2.66-3.066,2.66-3.066s-1.514-2.694-.71-3.209a7.276,7.276,0,0,1,4.709-.717s-2.691-3.5-3.962-4.2c-3.629-1.958-5.188-6,.027-4.28,2.605.833,9.8,7.886,11.923,11.249,2.172,3.334,5.93,16.131,7.049,18.266C610.664,277.016,627.4,291.2,627.4,291.2Z" transform="translate(-587.242 -244.922)" fill="#db8804"/>
          <path id="Trazado_158748" data-name="Trazado 158748" d="M588.687,250.624a5.742,5.742,0,0,1,3.867.681C594.544,252.437,588.687,250.624,588.687,250.624Z" transform="translate(-585.407 -237.796)" fill="#4ba6c6"/>
          <path id="Trazado_158749" data-name="Trazado 158749" d="M588.179,253.314s2.857-.123,3.388.635S590.153,254.208,588.179,253.314Z" transform="translate(-586.052 -234.278)" fill="#4ba6c6"/>
          <path id="Trazado_158750" data-name="Trazado 158750" d="M601.01,270.552c-.193.141-.731.1-1.489-.15-.093-.606-.2-1.005-.2-1.005-11.551-7.074-10.8-13.416-10.8-13.416l1.452.381a78.52,78.52,0,0,0,5.356,8.378c1.918,2.258,3.822,4.339,6.132,3.538C603.8,267.477,602.043,269.687,601.01,270.552Z" transform="translate(-585.633 -230.884)" fill="#f7b242"/>
        </g>
      </g>
      <g id="Grupo_127521" data-name="Grupo 127521" transform="translate(1284.845 3506.866)">
        <g id="Grupo_18423" data-name="Grupo 18423" transform="translate(0 0)">
          <g id="Grupo_18421" data-name="Grupo 18421">
            <g id="Grupo_18420" data-name="Grupo 18420">
              <g id="Grupo_18419" data-name="Grupo 18419">
                <path id="Trazado_40936" data-name="Trazado 40936" d="M284.3,2190.56a44.84,44.84,0,1,1-44.84-44.839A44.84,44.84,0,0,1,284.3,2190.56Z" transform="translate(-194.623 -2145.721)" fill="#fff"/>
              </g>
            </g>
          </g>
          <path id="Trazado_40937" data-name="Trazado 40937" d="M284.012,2190.243a44.839,44.839,0,1,0-44.84,44.841A44.665,44.665,0,0,0,284.012,2190.243Z" transform="translate(-194.331 -2145.404)" fill="url(#radial-gradient)"/>
          <path id="Trazado_40938" data-name="Trazado 40938" d="M270.867,2187.728a34.227,34.227,0,1,0-34.226,34.226A34.1,34.1,0,0,0,270.867,2187.728Z" transform="translate(-191.665 -2142.739)" fill="none" stroke="#008f85" stroke-miterlimit="10" stroke-width="3"/>
          <g id="Grupo_18422" data-name="Grupo 18422" transform="translate(7.944 25.174)">
            <path id="Trazado_40939" data-name="Trazado 40939" d="M277.748,2164.488a44.846,44.846,0,0,1-77.2,44.655,44.7,44.7,0,0,0,77.2-44.655Z" transform="translate(-200.545 -2164.488)" fill="#eceef0"/>
          </g>
        </g>
        <g id="Grupo_117564" data-name="Grupo 117564" transform="translate(30.164 19.155)">
          <path id="Trazado_151106" data-name="Trazado 151106" d="M5478.563,948.393v-5.454c0-3.737-.006-7.473,0-11.21.007-2.972,1.758-4.154,4.288-3.108a17.586,17.586,0,0,1,1.786-2.389,2.324,2.324,0,0,1,1.625-.424c1.535.112,2.253,1.063,2.608,3.213,2.815-1.161,4.62.137,4.669,3.089.2-.072.38-.128.555-.2,2.065-.838,4.02.308,4.039,2.526.046,5.686,0,11.373-.041,17.059-.01,1.524-.073,3.055-.23,4.57a10.294,10.294,0,0,1-3.379,6.328,2.421,2.421,0,0,0-.827,1.935c.033,2.7.008,5.392.042,8.087a2.6,2.6,0,0,0,.349,1.143c.639,1.173.6,2.138-.535,2.8a12.53,12.53,0,0,1-11.433.7c-2-.93-2.307-1.849-1.361-3.8a1.68,1.68,0,0,0,.182-.708c.013-2.7.023-5.4-.012-8.1a1.356,1.356,0,0,0-.432-.938,19.842,19.842,0,0,1-5.286-7.144c-1.372-2.79-2.685-5.608-4.009-8.421a2.814,2.814,0,0,1,.3-3.158,2.33,2.33,0,0,1,2.664-.878,4.573,4.573,0,0,1,1.852,1.342c.851,1,1.551,2.131,2.313,3.207Zm14.7,27.028a9.3,9.3,0,0,1-.492-1.966c-.015-3.11.1-6.223.029-9.331a2.312,2.312,0,0,1,.851-2.135,9.671,9.671,0,0,0,3.578-7.116c.113-1.814-.015-3.643-.019-5.466-.005-4.9.021-9.8-.031-14.693a2.436,2.436,0,0,0-.662-1.734,2.09,2.09,0,0,0-1.878-.265,2.615,2.615,0,0,0-1.133,1.832c-.118,3.067-.045,6.141-.068,9.212a4.962,4.962,0,0,1-.283,1.144l-.451-.092c-.028-.438-.078-.877-.079-1.315-.006-3.777,0-7.554-.012-11.331,0-.492.065-1.119-.2-1.446-.421-.527-1.078-1.161-1.656-1.184a2.689,2.689,0,0,0-1.739,1.049,2.662,2.662,0,0,0-.255,1.554c-.019,3.818,0,7.637-.021,11.455a8.92,8.92,0,0,1-.2,1.3l-.423-.013a10.237,10.237,0,0,1-.172-1.341c-.014-4.566-.008-9.132-.011-13.7a10.178,10.178,0,0,0-.04-1.491,1.828,1.828,0,0,0-1.988-1.647,1.733,1.733,0,0,0-1.743,1.748c-.041.453-.027.912-.028,1.369,0,4.566,0,9.132-.017,13.7a9.424,9.424,0,0,1-.211,1.385l-.485-.024a10.611,10.611,0,0,1-.179-1.348c-.014-4.068,0-8.135-.014-12.2,0-1.569-.964-2.449-2.316-2.139-1.21.278-1.456,1.185-1.454,2.278q.018,9.09-.008,18.18a3.483,3.483,0,0,1-.31.979,3.283,3.283,0,0,1-.849-.6c-1.056-1.437-2.046-2.922-3.105-4.356-.644-.872-1.463-1.385-2.569-.74a1.934,1.934,0,0,0-.624,2.725c1.481,3.149,2.951,6.306,4.521,9.411a16.535,16.535,0,0,0,4.752,6,1.636,1.636,0,0,1,.45,1.167q.056,4.794,0,9.588a5.926,5.926,0,0,1-.51,1.512C5482.441,977.9,5491.98,977.909,5493.267,975.421Z" transform="translate(-5470.815 -925.801)" fill="#1d272b"/>
        </g>
      </g>
      <g id="Grupo_127522" data-name="Grupo 127522" transform="translate(1288.155 3699.535)">
        <g id="Grupo_18423-2" data-name="Grupo 18423" transform="translate(0 0)">
          <g id="Grupo_18421-2" data-name="Grupo 18421">
            <g id="Grupo_18420-2" data-name="Grupo 18420">
              <g id="Grupo_18419-2" data-name="Grupo 18419">
                <path id="Trazado_40936-2" data-name="Trazado 40936" d="M284.3,2190.56a44.84,44.84,0,1,1-44.84-44.839A44.84,44.84,0,0,1,284.3,2190.56Z" transform="translate(-194.623 -2145.721)" fill="#fff"/>
              </g>
            </g>
          </g>
          <path id="Trazado_40937-2" data-name="Trazado 40937" d="M284.012,2190.243a44.839,44.839,0,1,0-44.84,44.841A44.665,44.665,0,0,0,284.012,2190.243Z" transform="translate(-194.331 -2145.404)" fill="url(#radial-gradient)"/>
          <path id="Trazado_40938-2" data-name="Trazado 40938" d="M270.867,2187.728a34.227,34.227,0,1,0-34.226,34.226A34.1,34.1,0,0,0,270.867,2187.728Z" transform="translate(-191.665 -2142.739)" fill="none" stroke="#008f85" stroke-miterlimit="10" stroke-width="3"/>
          <g id="Grupo_18422-2" data-name="Grupo 18422" transform="translate(7.944 25.174)">
            <path id="Trazado_40939-2" data-name="Trazado 40939" d="M277.748,2164.488a44.846,44.846,0,0,1-77.2,44.655,44.7,44.7,0,0,0,77.2-44.655Z" transform="translate(-200.545 -2164.488)" fill="#eceef0"/>
          </g>
        </g>
        <g id="Grupo_117566" data-name="Grupo 117566" transform="translate(18.801 34.983)">
          <path id="Trazado_151094" data-name="Trazado 151094" d="M4986.634,979.969a19.1,19.1,0,0,1,.292-2.393,5.732,5.732,0,0,1,5.57-4.342q17.546-.022,35.092,0a5.716,5.716,0,0,1,5.783,5.629c.015.348.038.695.058,1.077.21.03.362.067.514.071,1.985.06,2.14.213,2.144,2.167s0,3.918,0,5.877c0,1.156-.477,1.7-1.749,1.629a1.4,1.4,0,0,0-1.63,1.158c-1.74,5.3-8.23,8.73-13.821,7.724a53.1,53.1,0,0,1-6.913-1.984,5.97,5.97,0,0,0-3.851.007,46.6,46.6,0,0,1-7.005,2c-6,.932-12.209-2.744-13.914-8.214a.8.8,0,0,0-.963-.669,3.965,3.965,0,0,1-1.339-.074,1.3,1.3,0,0,1-.889-1.432c0-2.019,0-4.038,0-6.058,0-1.827.251-2.078,2.112-2.131C4986.278,980.007,4986.434,979.986,4986.634,979.969Zm23.439-6.114c-5.786,0-11.571-.013-17.357.005a5.182,5.182,0,0,0-5.3,5.31c-.017,2.8-.092,5.6.04,8.388a9.858,9.858,0,0,0,.889,3.895,11.856,11.856,0,0,0,8.4,6.313,14.144,14.144,0,0,0,9.024-1.087,9.474,9.474,0,0,1,8.5-.017,10.265,10.265,0,0,0,1.26.471,13.539,13.539,0,0,0,10.329-.169c4.175-1.908,6.777-5.012,6.9-9.78.069-2.536-.01-5.075-.019-7.613-.013-3.544-2.169-5.714-5.69-5.715Q5018.56,973.853,5010.073,973.855Zm23.313,15.18c2.245.14,2.121.126,2.05-1.769-.011-.319,0-.64,0-.96,0-1.6-.008-3.2,0-4.8,0-.708-.446-.883-1.01-.837-.377.031-1.021-.284-1.029.468C5033.371,983.751,5033.387,986.361,5033.387,989.035ZM4986.724,989v-8.261c-1.688-.157-2-.03-2.012.82-.036,1.927-.077,3.856-.041,5.783.035,1.813.128,1.858,1.971,1.707C4986.672,989.046,4986.7,989.016,4986.724,989Z" transform="translate(-4984.01 -973.221)" fill="#1d272b"/>
          <path id="Trazado_151095" data-name="Trazado 151095" d="M5034.217,988.781q8.334,0,16.669,0c2.51,0,3.5.994,3.5,3.5.007,2.18-.08,4.363.026,6.537.226,4.67-2.932,8.159-7.429,9.168a12.421,12.421,0,0,1-6.991-.671q-1.9-.673-3.813-1.323a8.088,8.088,0,0,0-5.36.372,45.43,45.43,0,0,1-5.41,1.656,10.069,10.069,0,0,1-8.869-2.4,7.882,7.882,0,0,1-2.716-6.143c-.053-2.472-.014-4.946-.011-7.419,0-2.163,1.081-3.273,3.252-3.278C5022.784,988.771,5028.5,988.781,5034.217,988.781Zm-.021.7q-8.575,0-17.15,0c-1.777,0-2.519.739-2.525,2.509-.008,2.537-.081,5.076.015,7.609a8.457,8.457,0,0,0,.706,3.318,9.306,9.306,0,0,0,9.178,4.571,40.333,40.333,0,0,0,6.071-1.75,9.821,9.821,0,0,1,7.223.021c.895.356,1.8.668,2.713.981a11.238,11.238,0,0,0,6.889.471c3.507-1,6.641-3.99,6.455-7.634-.129-2.528-.053-5.067-.07-7.6-.012-1.756-.76-2.494-2.546-2.495Q5042.675,989.483,5034.2,989.485Z" transform="translate(-5008.053 -985.777)" fill="#1d272b"/>
        </g>
      </g>
      <g id="Grupo_127523" data-name="Grupo 127523" transform="translate(1285.761 3601.514)">
        <g id="Grupo_18423-3" data-name="Grupo 18423" transform="translate(0 0)">
          <g id="Grupo_18421-3" data-name="Grupo 18421">
            <g id="Grupo_18420-3" data-name="Grupo 18420">
              <g id="Grupo_18419-3" data-name="Grupo 18419">
                <path id="Trazado_40936-3" data-name="Trazado 40936" d="M284.3,2190.56a44.84,44.84,0,1,1-44.84-44.839A44.84,44.84,0,0,1,284.3,2190.56Z" transform="translate(-194.623 -2145.721)" fill="#fff"/>
              </g>
            </g>
          </g>
          <path id="Trazado_40937-3" data-name="Trazado 40937" d="M284.012,2190.243a44.839,44.839,0,1,0-44.84,44.841A44.665,44.665,0,0,0,284.012,2190.243Z" transform="translate(-194.331 -2145.404)" fill="url(#radial-gradient)"/>
          <path id="Trazado_40938-3" data-name="Trazado 40938" d="M270.867,2187.728a34.227,34.227,0,1,0-34.226,34.226A34.1,34.1,0,0,0,270.867,2187.728Z" transform="translate(-191.665 -2142.739)" fill="none" stroke="#008f85" stroke-miterlimit="10" stroke-width="3"/>
          <g id="Grupo_18422-3" data-name="Grupo 18422" transform="translate(7.944 25.174)">
            <path id="Trazado_40939-3" data-name="Trazado 40939" d="M277.748,2164.488a44.846,44.846,0,0,1-77.2,44.655,44.7,44.7,0,0,0,77.2-44.655Z" transform="translate(-200.545 -2164.488)" fill="#eceef0"/>
          </g>
        </g>
        <g id="w1LOms" transform="translate(24.026 21.813)">
          <g id="Grupo_117565" data-name="Grupo 117565" transform="translate(0 0)">
            <path id="Trazado_157841" data-name="Trazado 157841" d="M5242.99,1750.994q-9.937,0-19.874,0c-1.262,0-1.391-.159-1.283-1.422.3-3.461.607-6.923.87-10.387a4.29,4.29,0,0,1,2.15-3.608c2.33-1.416,4.612-2.905,6.932-4.338a1.289,1.289,0,0,0,.7-1.135c.257-4.457.587-8.91.8-13.369a7.426,7.426,0,0,1,7.773-7.454,41.133,41.133,0,0,1,5.383.13,7.244,7.244,0,0,1,6.285,7.1c.237,4.517.578,9.03.825,13.546a1.413,1.413,0,0,0,.808,1.252c2.313,1.439,4.6,2.92,6.925,4.345a3.975,3.975,0,0,1,2,3.217q.469,5.416.913,10.835c.093,1.148-.06,1.288-1.249,1.288Zm19.644-1.433a4.2,4.2,0,0,0,.035-.488q-.4-5.061-.814-10.122a2.618,2.618,0,0,0-1.359-2.1c-2.519-1.562-5.032-3.136-7.515-4.759a1.8,1.8,0,0,1-.771-1.159c-.345-4.842-.628-9.688-.92-14.533a5.771,5.771,0,0,0-4.968-5.552,43.169,43.169,0,0,0-5.471-.141,5.98,5.98,0,0,0-6.114,5.8c-.287,4.755-.6,9.509-.862,14.266a1.518,1.518,0,0,1-.818,1.355c-2.37,1.463-4.684,3.021-7.087,4.426a3.484,3.484,0,0,0-1.87,3.123c-.1,1.943-.32,3.879-.477,5.819-.107,1.326-.193,2.654-.289,4h7.231v-1.019c0-1.739-.008-3.478.009-5.216,0-.538-.181-1.291.683-1.3.91,0,.736.771.742,1.344.014,1.319,0,2.638,0,3.957v2.227h10.091a2.155,2.155,0,0,0,.085-.392q.009-6.52,0-13.04a.8.8,0,0,0-.2-.546,2.954,2.954,0,0,0-2.464-.1,3.159,3.159,0,0,1-3.96-.412,2.924,2.924,0,0,1-.332-3.862,3.015,3.015,0,0,0,.8-2.793,3.241,3.241,0,0,1,0-.718c.059-.795.426-1.042,1.2-.782,1.247.42,2.488.86,3.732,1.293a5.724,5.724,0,0,0,3.959-.043c1.378-.5,2.753-1.009,4.139-1.485.869-.3,1.271-.023,1.274.888,0,.716-.115,1.433-.1,2.148a1.8,1.8,0,0,0,.3,1.033,3.134,3.134,0,0,1-4.178,4.637,1.092,1.092,0,0,0-.689-.231c-.664.129-1.313.341-1.947.515a1.911,1.911,0,0,0-.063.318c-.005,4.317.006,8.634-.02,12.95,0,.679.347.69.846.688,2.907-.012,5.815,0,8.724-.008.258,0,.515-.039.822-.063v-6.372c0-.556-.019-1.169.764-1.159.76.01.665.63.667,1.131.008,1.889,0,3.777.008,5.666,0,.385-.074.806.546.8C5258.191,1749.553,5260.374,1749.561,5262.634,1749.561Zm-25.1-21.269c-.091.983-.037,1.425.835,1.506a2.935,2.935,0,0,1,2.512,2.754c.092,1.266.185,1.4,1.467,1.506a13.263,13.263,0,0,0,1.872-.076c.719-.042,1-.355.954-1.145a2.943,2.943,0,0,1,2.213-3,9.864,9.864,0,0,1,1.379-.156c.046-.45.089-.875.163-1.628C5245.087,1730.1,5241.371,1730.628,5237.531,1728.292Zm-1.392,4.538a1.655,1.655,0,1,0,1.635-1.657A1.607,1.607,0,0,0,5236.139,1732.829Zm13.746.027a1.6,1.6,0,0,0-1.6-1.687,1.66,1.66,0,1,0-.045,3.32A1.574,1.574,0,0,0,5249.884,1732.856Z" transform="translate(-5221.803 -1709.257)" fill="#1d272b"/>
            <path id="Trazado_157842" data-name="Trazado 157842" d="M5305.731,1763.663c1.765,0,3.531,0,5.3,0,1.7,0,2.151.427,2.157,2.1,0,.868.022,1.737-.011,2.6a1.4,1.4,0,0,1-1.579,1.537c-1.317.018-2.635.032-3.95-.01a2.15,2.15,0,0,1-1.163-.357,1.123,1.123,0,0,0-1.589.036,1.59,1.59,0,0,1-.9.317c-1.467.031-2.935.036-4.4,0a1.24,1.24,0,0,1-1.313-1.3c-.04-1.2-.048-2.4,0-3.59.037-.879.594-1.3,1.7-1.314,1.915-.027,3.831-.007,5.748-.007Zm-6.021,4.812c.875,0,1.649-.023,2.421.006a4.079,4.079,0,0,0,3.048-.753,1.094,1.094,0,0,1,1.049,0c1.7,1.351,3.611.5,5.452.768v-3.284h-11.97Z" transform="translate(-5284.492 -1753.873)" fill="#1d272b"/>
          </g>
        </g>
      </g>
      <g id="Grupo_127524" data-name="Grupo 127524" transform="translate(1287.967 3797.886)">
        <g id="Grupo_18423-4" data-name="Grupo 18423" transform="translate(0 0)">
          <g id="Grupo_18421-4" data-name="Grupo 18421">
            <g id="Grupo_18420-4" data-name="Grupo 18420">
              <g id="Grupo_18419-4" data-name="Grupo 18419">
                <path id="Trazado_40936-4" data-name="Trazado 40936" d="M284.3,2190.56a44.84,44.84,0,1,1-44.84-44.839A44.84,44.84,0,0,1,284.3,2190.56Z" transform="translate(-194.623 -2145.721)" fill="#fff"/>
              </g>
            </g>
          </g>
          <path id="Trazado_40937-4" data-name="Trazado 40937" d="M284.012,2190.243a44.839,44.839,0,1,0-44.84,44.841A44.665,44.665,0,0,0,284.012,2190.243Z" transform="translate(-194.331 -2145.404)" fill="url(#radial-gradient)"/>
          <path id="Trazado_40938-4" data-name="Trazado 40938" d="M270.867,2187.728a34.227,34.227,0,1,0-34.226,34.226A34.1,34.1,0,0,0,270.867,2187.728Z" transform="translate(-191.665 -2142.739)" fill="none" stroke="#008f85" stroke-miterlimit="10" stroke-width="3"/>
          <g id="Grupo_18422-4" data-name="Grupo 18422" transform="translate(7.944 25.174)">
            <path id="Trazado_40939-4" data-name="Trazado 40939" d="M277.748,2164.488a44.846,44.846,0,0,1-77.2,44.655,44.7,44.7,0,0,0,77.2-44.655Z" transform="translate(-200.545 -2164.488)" fill="#eceef0"/>
          </g>
        </g>
        <g id="Grupo_117567" data-name="Grupo 117567" transform="translate(21.753 25.663)">
          <path id="Trazado_151096" data-name="Trazado 151096" d="M5065.47,681.358a15.843,15.843,0,0,1-.128,15.4,7.7,7.7,0,0,1,1.788,1.854c.183.39-.353,1.235-.731,1.75-1.313,1.781-2.192-.352-3.49-.381a25.377,25.377,0,0,1-18.517,7.187c-7.135-.031-13.512-2.1-18.642-7.191a11.837,11.837,0,0,1-2.843.957c-.358.032-.87-.9-1.2-1.458-.6-1.033-.5-1.154,1.669-2.576a15.751,15.751,0,0,1-.237-15.485c-2.055-1.508-2.055-1.508-1.12-3.057.765-1.265.791-1.266,3.19-.084,4.236-3.383,8.5-6.709,12.68-10.148s8.262-3.578,12.5-.258q5.329,4.176,10.67,8.338a4.955,4.955,0,0,1,.8.7c.862,1.049,1.628,1.638,3.091.651,1.149-.775,1.5.65,1.985,1.381a1.1,1.1,0,0,1-.4,1.778C5066.19,680.909,5065.864,681.119,5065.47,681.358Zm-41.482.576c-2.649,3.531-2.521,11.044.286,14.471.733-.308,1.5-.963,2.234.081.987,1.4,1.027,1.9.075,3.04,9.182,9.609,27.22,8.876,35.561-.152-1.565-.765-.642-1.689-.174-2.62.646-1.279,1.561-.811,2.427-.351,3.016-4.088,2.728-11,.213-14.511-.844.269-1.7,1.234-2.534-.076-1.026-1.6-1.039-1.753.344-3.126a17.576,17.576,0,0,0-1.562-1.579c-3.915-3.086-7.806-6.209-11.816-9.165a9.538,9.538,0,0,0-3.868-1.526c-2.682-.488-4.832.785-6.855,2.444-2.853,2.338-5.813,4.543-8.71,6.828-1.193.941-2.339,1.943-3.527,2.936,1.508,1.315,1.527,1.407.7,2.811C5026.034,682.691,5026.034,682.691,5023.987,681.934Zm-1.811-2.148,3.439,1.978c.332-.582.628-1.1.966-1.686l-3.44-1.943Zm44.3,0-1.027-1.656-3.4,1.954c.35.6.636,1.09.972,1.664Zm-4.422,18.545,3.438,1.955.965-1.664-3.435-1.956Zm-35.474,0-1-1.66-3.4,1.956.97,1.653Z" transform="translate(-5021.227 -665.462)" fill="#1d272b"/>
          <path id="Trazado_151102" data-name="Trazado 151102" d="M5077.078,686.551a7.724,7.724,0,0,1,4.759,1.79c2.594,2.036,5.195,4.064,7.772,6.12.219.174.293.53.435.8-.309-.053-.693-.006-.913-.175-2.4-1.833-4.8-3.676-7.158-5.565a6.741,6.741,0,0,0-9.727-.061c-2.392,1.911-4.822,3.775-7.257,5.63-.216.165-.593.116-.9.166.145-.273.223-.631.445-.807,2.583-2.05,5.2-4.062,7.782-6.107A7.787,7.787,0,0,1,5077.078,686.551Z" transform="translate(-5053.979 -681.575)" fill="#1d272b"/>
          <path id="Trazado_151103" data-name="Trazado 151103" d="M5097.876,792.926a5.388,5.388,0,0,1,.973-.182c2.672-.015,5.345-.023,8.015.01a2.823,2.823,0,0,1,.959.412c-.311.143-.621.406-.934.41-2.67.033-5.343.027-8.014.008a4.944,4.944,0,0,1-1.021-.224C5097.862,793.214,5097.87,793.07,5097.876,792.926Z" transform="translate(-5079.773 -762.701)" fill="#1d272b"/>
          <path id="Trazado_151104" data-name="Trazado 151104" d="M5097.5,812.017h10.23C5106.839,812.842,5098.265,812.812,5097.5,812.017Z" transform="translate(-5079.505 -777.437)" fill="#1d272b"/>
          <path id="Trazado_151105" data-name="Trazado 151105" d="M5108.079,802.817c-.943,0-1.886.021-2.828-.018-.209-.008-.408-.231-.613-.355.189-.146.375-.417.564-.42q2.889-.048,5.775,0c.191,0,.377.279.565.428-.212.123-.42.342-.636.351C5109.965,802.84,5109.021,802.818,5108.079,802.817Z" transform="translate(-5084.957 -769.783)" fill="#1d272b"/>
        </g>
      </g>
    </g>
    <g id="Grupo_128294" data-name="Grupo 128294" transform="translate(221.036 8023.124)">
      <g id="Grupo_90783" data-name="Grupo 90783" transform="translate(23.063 20.154)">
        <g id="Grupo_90780" data-name="Grupo 90780" transform="translate(80.952 10.57)">
          <path id="Trazado_149804" data-name="Trazado 149804" d="M231.269,167.727a6.875,6.875,0,0,1-1.492-.639c-5.809-3.254-11.032-6.365-11.084-6.4a.446.446,0,0,1,.457-.766c.051.031,5.265,3.136,11.063,6.384,1.359.761,2.4.879,3.1.35,1.7-1.288,1.533-6.31.492-10.6-1.325-5.467-9.441-8.053-12.466-7.9a27.708,27.708,0,0,0-6.74,1.348.446.446,0,0,1-.3-.841,28.1,28.1,0,0,1,6.992-1.4c3.834-.189,12.026,3.008,13.377,8.584.829,3.421,1.59,9.7-.819,11.526A2.815,2.815,0,0,1,231.269,167.727Z" transform="translate(-214.002 -147.252)" fill="#efebe9"/>
        </g>
        <g id="Grupo_90781" data-name="Grupo 90781" transform="translate(0 12.688)">
          <path id="Trazado_149805" data-name="Trazado 149805" d="M114.64,167.422a26.951,26.951,0,0,1-2.909-.989c-4.489-1.832-7.382-4.583-8.6-8.176-1.132-3.347-1.044-5.61.268-6.917,2.621-2.609,9.441-.269,14.421,1.441.705.242,1.37.47,1.976.668,6.378,2.087,9.6.942,9.634.93a.446.446,0,1,1,.309.836c-.141.052-3.55,1.255-10.22-.919-.61-.2-1.279-.428-1.989-.672-4.491-1.541-11.275-3.87-13.5-1.653-1.033,1.029-1.051,3.047-.053,6,1.128,3.337,3.849,5.906,8.088,7.636,8.528,3.479,21.77,2.591,27.914-.528a.446.446,0,1,1,.4.8C134.711,168.756,123.406,169.874,114.64,167.422Z" transform="translate(-102.348 -150.173)" fill="#97e8ce"/>
        </g>
        <path id="Trazado_149806" data-name="Trazado 149806" d="M199.738,156.905l-5.446-12.235a.9.9,0,0,0-.547-.491c-2.666-.829-4.764-2.44-13.747-8.983-9.4-6.848-19.41,2.082-24.81,5.2-4.031,2.329-13.343,7.1-16.526,8.719a.9.9,0,0,0-.238,1.433L149,161.484a.908.908,0,0,0,.741.27c7.015-.671,7.706,1.47,17.518,2.8,10.011,1.359,16.37-.772,21.547-4.571,3.511-2.575,7.637-2.283,9.931-1.828A.9.9,0,0,0,199.738,156.905Z" transform="translate(-112.198 -132.674)" fill="#b2f2ef"/>
        <path id="Trazado_149807" data-name="Trazado 149807" d="M144.934,152.624a1.236,1.236,0,0,1,.323-1.958c4.254-2.188,10.027-5.2,13.034-6.936.894-.516,1.878-1.162,2.919-1.846,4.3-2.825,10.189-6.692,15.632-5.17a10.52,10.52,0,0,1,3.347,1.661l1.763,1.284c6.638,4.84,9.13,6.656,11.527,7.646a1.23,1.23,0,0,1,.655.637l2.932,6.586a1.239,1.239,0,0,1-1.035,1.735,13.8,13.8,0,0,0-7.04,2.582c-5.36,3.933-11.406,5.19-19.6,4.077a53.742,53.742,0,0,1-7.838-1.628L160.513,161a21.83,21.83,0,0,0-7.856-1,1.235,1.235,0,0,1-.948-.375Z" transform="translate(-113.962 -133.69)" fill="#00a79e"/>
        <g id="Grupo_90782" data-name="Grupo 90782" transform="translate(31.41 4.841)">
          <path id="Trazado_149808" data-name="Trazado 149808" d="M158.583,147.681c.951-.55,1.994-1.235,3.1-1.96,4.495-2.952,10.651-6.994,16.27-5.423a10.825,10.825,0,0,1,3.44,1.708l1.863,1.359c7.039,5.131,9.673,7.051,12.237,8.11a.294.294,0,0,0,.152.017l-.329-.741c-2.388-1.072-5.088-3.039-11.711-7.867l-1.862-1.357a11.392,11.392,0,0,0-3.63-1.8c-5.88-1.645-12.166,2.484-16.758,5.5-1.1.719-2.132,1.4-3.068,1.941-2.9,1.678-8.251,4.479-12.615,6.73l.431.447C150.442,152.1,155.705,149.343,158.583,147.681Z" transform="translate(-145.671 -139.351)" fill="#008f85"/>
          <path id="Trazado_149809" data-name="Trazado 149809" d="M198.216,156.768c-2.5-1.032-5.116-2.939-12.116-8.042l-1.863-1.357a11.4,11.4,0,0,0-3.63-1.8c-5.88-1.645-12.167,2.484-16.769,5.507-1.092.717-2.124,1.394-3.057,1.934-2.5,1.445-6.812,3.722-10.748,5.765l.431.446c3.9-2.024,8.139-4.265,10.615-5.7.948-.548,1.987-1.23,3.1-1.96,4.5-2.952,10.651-7,16.27-5.424a10.8,10.8,0,0,1,3.44,1.709l1.867,1.36c7.037,5.13,9.67,7.049,12.234,8.108a.293.293,0,0,0,.389-.161A.3.3,0,0,0,198.216,156.768Z" transform="translate(-146.871 -140.957)" fill="#008f85"/>
          <path id="Trazado_149810" data-name="Trazado 149810" d="M186.732,153.212a11.4,11.4,0,0,0-3.63-1.8c-5.88-1.644-12.166,2.485-16.769,5.508-1.092.717-2.124,1.394-3.057,1.933-2.109,1.219-5.509,3.031-8.885,4.795l.014.015a1.239,1.239,0,0,0,.6.336c3.269-1.711,6.523-3.448,8.569-4.631.948-.547,1.987-1.23,3.1-1.96,4.494-2.952,10.651-7,16.27-5.423a10.8,10.8,0,0,1,3.44,1.708l1.863,1.358c3.618,2.638,6.071,4.426,7.95,5.685q.4-.105.793-.186c-1.921-1.261-4.468-3.118-8.394-5.98Z" transform="translate(-148.069 -142.564)" fill="#008f85"/>
          <path id="Trazado_149811" data-name="Trazado 149811" d="M190.826,159.055a11.385,11.385,0,0,0-3.629-1.8c-5.88-1.644-12.167,2.485-16.757,5.5-1.1.72-2.13,1.4-3.069,1.942-.78.451-1.738.984-2.8,1.564.278.069.558.142.84.219.848-.465,1.617-.895,2.262-1.268.953-.551,2-1.235,3.1-1.959,4.5-2.952,10.651-7,16.27-5.424a10.814,10.814,0,0,1,3.44,1.708l1.867,1.361c1.367,1,2.567,1.871,3.634,2.642.2-.107.394-.209.593-.3-1.126-.814-2.406-1.746-3.881-2.821Z" transform="translate(-150.867 -144.17)" fill="#008f85"/>
          <path id="Trazado_149812" data-name="Trazado 149812" d="M194.371,164.9a11.426,11.426,0,0,0-3.63-1.8c-5.879-1.644-12.165,2.485-16.757,5.5-.425.279-.837.549-1.243.811.267.057.542.114.828.172l.742-.487c4.494-2.952,10.65-6.994,16.269-5.423a10.8,10.8,0,0,1,3.44,1.709l1.824,1.33c.173-.116.344-.239.516-.36l-.128-.094Z" transform="translate(-153.114 -145.777)" fill="#008f85"/>
        </g>
      </g>
      <g id="Grupo_90787" data-name="Grupo 90787" transform="translate(49.35 33.568)">
        <g id="Grupo_90784" data-name="Grupo 90784" transform="translate(80.952 10.57)">
          <path id="Trazado_149813" data-name="Trazado 149813" d="M267.525,186.229a6.868,6.868,0,0,1-1.491-.639c-5.809-3.254-11.032-6.364-11.084-6.4a.446.446,0,0,1,.456-.766c.052.031,5.266,3.136,11.064,6.384,1.359.761,2.4.879,3.1.35,1.7-1.288,1.533-6.31.492-10.6-1.325-5.467-9.441-8.053-12.467-7.9a27.656,27.656,0,0,0-6.74,1.348.446.446,0,0,1-.3-.842,28.112,28.112,0,0,1,6.992-1.4c3.833-.189,12.025,3.008,13.377,8.584.829,3.422,1.59,9.7-.819,11.526A2.812,2.812,0,0,1,267.525,186.229Z" transform="translate(-250.258 -165.754)" fill="#efebe9"/>
        </g>
        <g id="Grupo_90785" data-name="Grupo 90785" transform="translate(0 12.688)">
          <path id="Trazado_149814" data-name="Trazado 149814" d="M150.9,185.924a26.6,26.6,0,0,1-2.909-.989c-4.489-1.832-7.382-4.583-8.6-8.176-1.132-3.348-1.044-5.61.269-6.917,2.62-2.609,9.441-.269,14.421,1.441.7.241,1.37.47,1.976.668,6.379,2.087,9.6.942,9.635.93a.446.446,0,0,1,.309.837c-.142.052-3.55,1.254-10.221-.919-.609-.2-1.279-.428-1.988-.672-4.491-1.54-11.275-3.87-13.5-1.653-1.034,1.029-1.051,3.047-.053,6,1.127,3.337,3.849,5.906,8.088,7.636,8.528,3.479,21.77,2.592,27.914-.528a.446.446,0,1,1,.4.8C170.967,187.258,159.663,188.376,150.9,185.924Z" transform="translate(-138.604 -168.675)" fill="#9de2f5"/>
        </g>
        <path id="Trazado_149815" data-name="Trazado 149815" d="M235.995,175.407l-5.446-12.235a.891.891,0,0,0-.546-.491c-2.667-.829-4.763-2.44-13.747-8.984-9.4-6.848-19.411,2.082-24.811,5.2-4.031,2.329-13.343,7.1-16.526,8.718a.9.9,0,0,0-.239,1.433l10.577,10.936a.91.91,0,0,0,.741.27c7.015-.672,7.706,1.47,17.518,2.8,10.011,1.359,16.369-.772,21.547-4.571,3.51-2.575,7.637-2.283,9.931-1.828A.9.9,0,0,0,235.995,175.407Z" transform="translate(-148.454 -151.176)" fill="#b2f2ef"/>
        <path id="Trazado_149816" data-name="Trazado 149816" d="M181.191,171.126a1.236,1.236,0,0,1,.322-1.958c4.254-2.188,10.028-5.2,13.035-6.935.894-.517,1.878-1.163,2.919-1.847,4.3-2.824,10.189-6.692,15.632-5.17a10.512,10.512,0,0,1,3.346,1.661l1.762,1.285c6.638,4.839,9.13,6.656,11.527,7.645a1.23,1.23,0,0,1,.655.637l2.932,6.587a1.238,1.238,0,0,1-1.035,1.734,13.8,13.8,0,0,0-7.04,2.582c-5.36,3.933-11.407,5.191-19.6,4.078A53.867,53.867,0,0,1,197.8,179.8l-1.032-.29a21.834,21.834,0,0,0-7.856-1,1.235,1.235,0,0,1-.948-.374Z" transform="translate(-150.219 -152.192)" fill="#00a79e"/>
        <g id="Grupo_90786" data-name="Grupo 90786" transform="translate(31.41 4.841)">
          <path id="Trazado_149817" data-name="Trazado 149817" d="M194.84,166.183c.951-.55,1.993-1.234,3.1-1.96,4.494-2.952,10.65-7,16.27-5.424a10.81,10.81,0,0,1,3.44,1.709l1.863,1.358c7.039,5.131,9.673,7.051,12.237,8.11a.288.288,0,0,0,.153.017l-.33-.741c-2.388-1.072-5.088-3.039-11.711-7.867L218,160.027a11.406,11.406,0,0,0-3.629-1.8c-5.88-1.644-12.167,2.484-16.758,5.5-1.1.72-2.132,1.4-3.068,1.941-2.9,1.678-8.252,4.479-12.616,6.731l.432.446C186.7,170.6,191.962,167.846,194.84,166.183Z" transform="translate(-181.927 -157.853)" fill="#008f85"/>
          <path id="Trazado_149818" data-name="Trazado 149818" d="M234.472,175.27c-2.5-1.032-5.116-2.939-12.116-8.042l-1.862-1.357a11.388,11.388,0,0,0-3.63-1.8c-5.879-1.644-12.166,2.485-16.769,5.507-1.092.717-2.123,1.394-3.056,1.934-2.5,1.445-6.812,3.722-10.749,5.765l.431.446c3.9-2.024,8.139-4.265,10.614-5.7.948-.547,1.986-1.23,3.1-1.959,4.495-2.953,10.651-7,16.27-5.424a10.807,10.807,0,0,1,3.439,1.708l1.867,1.36c7.037,5.13,9.67,7.049,12.234,8.108a.291.291,0,0,0,.388-.161A.3.3,0,0,0,234.472,175.27Z" transform="translate(-183.127 -159.459)" fill="#008f85"/>
          <path id="Trazado_149819" data-name="Trazado 149819" d="M222.989,171.714a11.4,11.4,0,0,0-3.63-1.8c-5.88-1.644-12.167,2.485-16.77,5.508-1.092.717-2.123,1.394-3.056,1.933-2.109,1.219-5.51,3.031-8.885,4.8l.014.015a1.233,1.233,0,0,0,.6.336c3.27-1.711,6.524-3.448,8.57-4.631.948-.547,1.986-1.229,3.1-1.96,4.494-2.952,10.65-7,16.27-5.423a10.815,10.815,0,0,1,3.44,1.708l1.863,1.358c3.618,2.638,6.071,4.426,7.951,5.686.265-.07.531-.133.793-.187-1.921-1.261-4.468-3.118-8.395-5.98Z" transform="translate(-184.325 -161.066)" fill="#008f85"/>
          <path id="Trazado_149820" data-name="Trazado 149820" d="M227.083,177.557a11.4,11.4,0,0,0-3.63-1.8c-5.879-1.645-12.166,2.484-16.757,5.5-1.095.719-2.129,1.4-3.068,1.942-.78.45-1.738.983-2.8,1.564.278.069.558.142.84.218.848-.465,1.617-.895,2.262-1.267.953-.551,2-1.235,3.1-1.96,4.494-2.952,10.651-7,16.27-5.424a10.821,10.821,0,0,1,3.44,1.708L228.6,179.4c1.367,1,2.567,1.871,3.633,2.642q.3-.161.593-.3c-1.126-.813-2.4-1.745-3.881-2.821Z" transform="translate(-187.123 -162.673)" fill="#008f85"/>
          <path id="Trazado_149821" data-name="Trazado 149821" d="M230.627,183.4a11.4,11.4,0,0,0-3.63-1.8c-5.88-1.644-12.166,2.484-16.757,5.5-.426.279-.838.549-1.243.811.267.057.541.115.828.172l.742-.487c4.5-2.951,10.651-6.994,16.27-5.423a10.8,10.8,0,0,1,3.44,1.709l1.825,1.33c.173-.116.344-.238.516-.36l-.128-.093Z" transform="translate(-189.371 -164.28)" fill="#008f85"/>
        </g>
      </g>
      <g id="Grupo_90795" data-name="Grupo 90795" transform="translate(0 0)">
        <g id="Grupo_90788" data-name="Grupo 90788" transform="translate(25.764 10.333)">
          <rect id="Rectngulo_33170" data-name="Rectngulo 33170" width="10.211" height="10.211" transform="translate(12.881 9.705) rotate(161.881)" fill="#cfd8dc"/>
          <rect id="Rectngulo_33171" data-name="Rectngulo 33171" width="6.944" height="10.211" transform="matrix(-0.95, 0.311, -0.311, -0.95, 11.328, 10.213)" fill="#37474f"/>
          <rect id="Rectngulo_33172" data-name="Rectngulo 33172" width="2.777" height="10.211" transform="translate(9.348 10.861) rotate(161.882)" fill="#fff"/>
        </g>
        <path id="Trazado_149822" data-name="Trazado 149822" d="M108.274,106.9l2.693,8.23a2.942,2.942,0,0,1-1.881,3.71l-13.509,4.42a2.94,2.94,0,0,1-3.709-1.88l-.711-2.174a2.941,2.941,0,0,0-3.71-1.88l-15.993,5.233-.915-2.795,34.026-14.744A2.942,2.942,0,0,1,108.274,106.9Z" transform="translate(-70.538 -104.877)" fill="#fff"/>
        <g id="Grupo_90790" data-name="Grupo 90790" transform="translate(24.431 17.384)">
          <rect id="Rectngulo_33173" data-name="Rectngulo 33173" width="18.789" height="7.189" rx="1.662" transform="translate(0 5.843) rotate(-18.119)" fill="#37474f"/>
          <g id="Grupo_90789" data-name="Grupo 90789" transform="translate(1.957 1.618)">
            <path id="Trazado_149823" data-name="Trazado 149823" d="M126.208,131.124a.776.776,0,0,1,.979.5l1.118,3.416a.776.776,0,0,1-1.475.483l-1.117-3.416A.776.776,0,0,1,126.208,131.124Z" transform="translate(-112.086 -131.086)" fill="#2a383e"/>
            <path id="Trazado_149824" data-name="Trazado 149824" d="M122.46,132.35a.776.776,0,0,1,.979.5l1.118,3.416a.776.776,0,1,1-1.475.483l-1.117-3.416A.776.776,0,0,1,122.46,132.35Z" transform="translate(-111.056 -131.423)" fill="#2a383e"/>
            <path id="Trazado_149825" data-name="Trazado 149825" d="M118.712,133.577a.775.775,0,0,1,.979.5l1.118,3.416a.776.776,0,0,1-1.475.483l-1.117-3.416A.775.775,0,0,1,118.712,133.577Z" transform="translate(-110.025 -131.76)" fill="#2a383e"/>
            <path id="Trazado_149826" data-name="Trazado 149826" d="M114.964,134.8a.776.776,0,0,1,.979.5l1.118,3.416a.776.776,0,1,1-1.475.483l-1.117-3.416A.776.776,0,0,1,114.964,134.8Z" transform="translate(-108.995 -132.097)" fill="#2a383e"/>
            <path id="Trazado_149827" data-name="Trazado 149827" d="M111.216,136.029a.776.776,0,0,1,.979.5l1.118,3.416a.776.776,0,1,1-1.475.482l-1.117-3.416A.776.776,0,0,1,111.216,136.029Z" transform="translate(-107.964 -132.434)" fill="#2a383e"/>
            <path id="Trazado_149828" data-name="Trazado 149828" d="M107.468,137.256a.776.776,0,0,1,.979.5l1.118,3.416a.776.776,0,0,1-1.475.483l-1.118-3.416A.776.776,0,0,1,107.468,137.256Z" transform="translate(-106.934 -132.772)" fill="#2a383e"/>
          </g>
        </g>
        <path id="Trazado_149829" data-name="Trazado 149829" d="M78.316,117.6c4-1.187,8.025-2.659,12.2-2.546a3.7,3.7,0,0,1,2.082.526,10.163,10.163,0,0,1,1.451,1.773,4.724,4.724,0,0,0,3.845,1.378,13.974,13.974,0,0,0,4.07-1.091c1.662-.632,3.445-1.36,4.369-2.88,1.905-3.131.4-6.791-2.2-9.548l.431-.187a2.942,2.942,0,0,1,3.71,1.881l2.693,8.23a2.942,2.942,0,0,1-1.881,3.71l-13.509,4.42a2.94,2.94,0,0,1-3.709-1.88l-.711-2.174a2.941,2.941,0,0,0-3.71-1.88l-15.993,5.233-.915-2.795,2.03-.879A36.478,36.478,0,0,0,78.316,117.6Z" transform="translate(-70.538 -104.877)" fill="#cfd8dc"/>
        <g id="Grupo_90792" data-name="Grupo 90792" transform="translate(18.195 24.903)">
          <g id="Grupo_90791" data-name="Grupo 90791">
            <path id="Trazado_149830" data-name="Trazado 149830" d="M96.02,168.418c-2.744-11.84,10-24.663,10-24.663l3.638-1.191,6.565-2.148,3.638-1.191s17.86,2.81,22.643,13.982,12.027,44.521,9.41,48.6c-1.277,1.987-6.4,5.618-12.858,8.389q-.394.169-.793.332a35.652,35.652,0,0,1-4.942,1.617q-.416.1-.829.2c-6.844,1.58-13.126,1.681-15.33.834C112.638,211.437,98.769,180.26,96.02,168.418Z" transform="translate(-95.633 -139.225)" fill="#cfd8dc"/>
            <path id="Trazado_149831" data-name="Trazado 149831" d="M135.969,210.239c.772-.252,1.544-.537,2.294-.845q.385-.158.764-.32c6.3-2.7,10.929-6.111,11.89-7.559.533-1.184.36-7.6-2.3-20.539-2.158-10.511-5.076-21-7.262-26.1-3.848-8.989-17.767-12.1-20.541-12.633L108,146.434c-1.918,2.069-11.311,12.806-9.1,22.333,1.255,5.409,5.1,15.6,9.575,25.347,5.507,12.007,9.161,17.285,10.291,17.924,1.627.6,7.38.611,14.061-.932q.395-.092.8-.191C134.4,210.72,135.2,210.492,135.969,210.239Z" transform="translate(-96.438 -140.054)" fill="#fff"/>
          </g>
          <path id="Trazado_149832" data-name="Trazado 149832" d="M129.822,200.522c-4.5-12.38-8.84-25.1-10.8-31.642a55.937,55.937,0,0,1-1.879-23.291l4.486-1.468a55.9,55.9,0,0,1,12.252,19.9c2.287,6.437,6.3,19.26,9.992,31.907,1.708,5.855,3.022,10.556,4,14.211-.968.485-1.982.959-3.031,1.41q-.394.169-.793.332a35.653,35.653,0,0,1-4.942,1.617q-.417.1-.829.2c-1.114.257-2.212.474-3.281.655C133.625,210.821,131.905,206.253,129.822,200.522Z" transform="translate(-101.417 -140.571)" fill="#bdbdbd"/>
        </g>
        <g id="Grupo_90794" data-name="Grupo 90794" transform="translate(22.487 47.471)">
          <path id="Trazado_149833" data-name="Trazado 149833" d="M109.335,205.356a118.49,118.49,0,0,0,42.149-13.791q-2.864-10.3-5.9-21.212a118.622,118.622,0,0,1-44.032,14.408Z" transform="translate(-101.553 -170.352)" fill="#ebfdff"/>
          <g id="Grupo_90793" data-name="Grupo 90793" transform="translate(18.564 12.144)">
            <path id="Trazado_149834" data-name="Trazado 149834" d="M127.158,194.045q2-.524,3.97-1.118l-1.346-4.036q2.758-.828,5.473-1.791l1.3,4.051q1.943-.689,3.864-1.446.867,2.781,1.722,5.52-1.9.747-3.82,1.427.629,1.956,1.249,3.893-2.639.933-5.321,1.741l-1.293-3.878q-1.951.587-3.925,1.108Z" transform="translate(-127.158 -187.101)" fill="#0090b8"/>
          </g>
        </g>
      </g>
      <g id="Grupo_90798" data-name="Grupo 90798" transform="translate(4.78 49.715)">
        <path id="Trazado_149835" data-name="Trazado 149835" d="M90.7,207.832l13.673,157.215a9.447,9.447,0,0,0,9.411,8.629h87.944a9.447,9.447,0,0,0,9.412-8.629l13.673-157.215Z" transform="translate(-80.861 -182.902)" fill="#d93328"/>
        <path id="Trazado_149836" data-name="Trazado 149836" d="M196.135,224.689H114.741a12.644,12.644,0,0,0-12.6,13.739l11.324,121.993a6.2,6.2,0,0,0,6.182,5.667h81.2a6.2,6.2,0,0,0,6.2-6.2l-4.713-128.99A6.2,6.2,0,0,0,196.135,224.689Z" transform="translate(-83.995 -187.537)" fill="#b42218"/>
        <path id="Trazado_149837" data-name="Trazado 149837" d="M139.7,328.535H123.375a4.057,4.057,0,0,0-4.042,4.409l4.424,50.878a4.051,4.051,0,0,0,5.707,3.345q5.912-2.688,12.407-5.128a6.2,6.2,0,0,0,4.031-5.8v-41.5A6.2,6.2,0,0,0,139.7,328.535Z" transform="translate(-88.731 -216.091)" fill="#d93328"/>
        <path id="Trazado_149838" data-name="Trazado 149838" d="M227.437,173.447H80.61c-1.939,0-3.5,1.857-3.479,4.13l.179,16.773a3.806,3.806,0,0,0,3.479,4.027H227.257a3.806,3.806,0,0,0,3.479-4.027l.179-16.773C230.939,175.3,229.375,173.447,227.437,173.447Z" transform="translate(-77.131 -173.447)" fill="#b42218"/>
        <g id="Grupo_90796" data-name="Grupo 90796" transform="translate(6.575 6.525)">
          <path id="Trazado_149839" data-name="Trazado 149839" d="M138.087,182.447H88.359a2.16,2.16,0,0,0-2.16,2.184l.08,7.558a2.161,2.161,0,0,0,2.161,2.137h13.993a1.132,1.132,0,0,0,.831-.342c3.651-3.9,16.7-7.253,34.944-9.322a1.115,1.115,0,0,0,.992-1.1h0A1.112,1.112,0,0,0,138.087,182.447Z" transform="translate(-86.199 -182.447)" fill="#d93328"/>
        </g>
        <g id="Grupo_90797" data-name="Grupo 90797" transform="translate(37.424 47.547)">
          <path id="Trazado_149840" data-name="Trazado 149840" d="M186.926,281.054c-.845-.489-1.682-.916-2.443-1.451a1.1,1.1,0,0,1-.311-.935,4.733,4.733,0,0,0-3.24-5.477c-.235-.069-.56-.358-.573-.563-.062-.924-.027-1.855-.027-2.768a15.742,15.742,0,0,0,14.78-15.19c.183-6.271-3.466-13.182-11.816-15.611,4.045-.386,11.3,4.7,14.24,10.072a20.653,20.653,0,0,1,1.188,17.593c14.268,2.369,20.146,16.638,16.576,26.583,1.006-9.33-2.309-16.044-11.463-18.643C196.969,272.716,191.322,275.343,186.926,281.054Z" transform="translate(-142.93 -239.03)" fill="#f8f8f8"/>
          <path id="Trazado_149841" data-name="Trazado 149841" d="M199.15,316.576c-6.949,8.489-22.192,10.518-31.59-.777-5.086,5.759-11.417,8.425-19.094,7.353a19.189,19.189,0,0,1-11.67-6.117c6.852,4.89,13.883,5.541,20.518.007,6.007-5.011,6.806-11.58,3.975-18.806.811-.476,1.626-.993,2.483-1.425a.982.982,0,0,1,.787.212c2.114,1.581,4.014,1.578,6.205.005a1.034,1.034,0,0,1,.882-.106c.835.415,1.625.921,2.44,1.4-3.158,8.136-1.879,15.249,5.555,20.161C186.4,322.946,193.079,321.667,199.15,316.576Z" transform="translate(-130.961 -254.908)" fill="#f8f8f8"/>
          <path id="Trazado_149842" data-name="Trazado 149842" d="M158.24,280.929a15.811,15.811,0,0,0-19.01-5.945,15.406,15.406,0,0,0-8.062,7.487A16.1,16.1,0,0,0,129.95,293.3c-3.8-8.881,1.38-24.357,16.165-26.8-5.081-14.59,5.585-26.237,15.568-27.48A16.2,16.2,0,0,0,152.876,245a15.22,15.22,0,0,0-3.015,10.271,15.794,15.794,0,0,0,14.625,14.588c0,.915.044,1.848-.028,2.771a1.108,1.108,0,0,1-.61.687,4.728,4.728,0,0,0-2.968,5.372,1.115,1.115,0,0,1-.346.893C159.829,280.075,159.049,280.465,158.24,280.929Z" transform="translate(-128.748 -239.027)" fill="#f8f8f8"/>
          <path id="Trazado_149843" data-name="Trazado 149843" d="M164.344,309.38A19.42,19.42,0,0,1,152.5,290.1c.032-.606.2-.928.874-.75,1.134.3,2.293.518,3.4.9a1.369,1.369,0,0,1,.723,1.022,14.512,14.512,0,0,0,7.458,12.864,1.121,1.121,0,0,1,.509.865C165.156,306.436,164.747,307.85,164.344,309.38Z" transform="translate(-135.271 -252.85)" fill="#f8f8f8"/>
          <path id="Trazado_149844" data-name="Trazado 149844" d="M201.084,289.375a19.139,19.139,0,0,1-11.662,20.188c-.385-1.517-.8-2.994-1.1-4.493-.043-.209.379-.6.668-.775a14.391,14.391,0,0,0,7.033-9.861,16.457,16.457,0,0,0,.283-2.893c.014-.566.146-.932.713-1.082C198.344,290.107,199.671,289.752,201.084,289.375Z" transform="translate(-145.128 -252.871)" fill="#f8f8f8"/>
          <path id="Trazado_149845" data-name="Trazado 149845" d="M186.558,269.526c-1.122,1.1-2.159,2.146-3.252,3.133a.992.992,0,0,1-.9.012,14.589,14.589,0,0,0-15.061-.014,1.076,1.076,0,0,1-.98-.047c-1.073-.962-2.081-2-3.123-3.017C168.83,264.755,179.151,263.789,186.558,269.526Z" transform="translate(-138.233 -246.329)" fill="#f8f8f8"/>
        </g>
      </g>
    </g>
    <g id="Grupo_128296" data-name="Grupo 128296" transform="translate(92.042 2297.795)">
      <path id="Trazado_165315" data-name="Trazado 165315" d="M10.807-6.778H4.619v4.189h7.262V0H1.4V-15.641H11.859v2.61H4.619V-9.3h6.188ZM16.844,0H13.729V-16.5h3.115ZM24.75.215a5.706,5.706,0,0,1-4.163-1.568,5.575,5.575,0,0,1-1.606-4.179v-.3a7.021,7.021,0,0,1,.677-3.131,4.967,4.967,0,0,1,1.917-2.127,5.382,5.382,0,0,1,2.831-.747,4.824,4.824,0,0,1,3.754,1.5,6.111,6.111,0,0,1,1.37,4.265V-4.8h-7.4a2.884,2.884,0,0,0,.908,1.826,2.744,2.744,0,0,0,1.917.688,3.351,3.351,0,0,0,2.8-1.3L29.283-1.88A4.66,4.66,0,0,1,27.393-.338,6.2,6.2,0,0,1,24.75.215ZM24.4-9.335a1.94,1.94,0,0,0-1.5.626,3.241,3.241,0,0,0-.736,1.791h4.318v-.248a2.311,2.311,0,0,0-.559-1.6A2,2,0,0,0,24.4-9.335ZM34.2-11.623l.1,1.3a4.085,4.085,0,0,1,3.341-1.515,3.1,3.1,0,0,1,3.083,1.772,3.991,3.991,0,0,1,3.491-1.772,3.467,3.467,0,0,1,2.814,1.1,5.061,5.061,0,0,1,.924,3.314V0H44.838V-7.412a2.213,2.213,0,0,0-.387-1.445,1.714,1.714,0,0,0-1.364-.457,1.938,1.938,0,0,0-1.934,1.332L41.164,0h-3.1V-7.4a2.186,2.186,0,0,0-.4-1.461,1.731,1.731,0,0,0-1.354-.451,2.012,2.012,0,0,0-1.912,1.1V0h-3.1V-11.623ZM55.688.215a5.706,5.706,0,0,1-4.163-1.568,5.575,5.575,0,0,1-1.606-4.179v-.3A7.021,7.021,0,0,1,50.6-8.964a4.967,4.967,0,0,1,1.917-2.127,5.382,5.382,0,0,1,2.831-.747,4.824,4.824,0,0,1,3.754,1.5,6.111,6.111,0,0,1,1.37,4.265V-4.8h-7.4a2.884,2.884,0,0,0,.908,1.826,2.744,2.744,0,0,0,1.917.688,3.351,3.351,0,0,0,2.8-1.3L60.221-1.88A4.66,4.66,0,0,1,58.33-.338,6.2,6.2,0,0,1,55.688.215Zm-.354-9.55a1.94,1.94,0,0,0-1.5.626A3.241,3.241,0,0,0,53.1-6.918h4.318v-.248a2.311,2.311,0,0,0-.559-1.6A2,2,0,0,0,55.333-9.335Zm9.754-2.288.1,1.343a4.058,4.058,0,0,1,3.341-1.558,3.372,3.372,0,0,1,2.75,1.085A5.062,5.062,0,0,1,72.2-7.509V0h-3.1V-7.434a2.014,2.014,0,0,0-.43-1.434,1.924,1.924,0,0,0-1.429-.446A2.136,2.136,0,0,0,65.27-8.2V0h-3.1V-11.623ZM78.268-14.48v2.857h1.987v2.277H78.268v5.8a1.385,1.385,0,0,0,.247.924,1.241,1.241,0,0,0,.945.279,4.951,4.951,0,0,0,.913-.075V-.064a6.391,6.391,0,0,1-1.88.279q-3.266,0-3.33-3.3V-9.346h-1.7v-2.277h1.7V-14.48Zm2.911,8.562A6.893,6.893,0,0,1,81.845-9,4.876,4.876,0,0,1,83.762-11.1a5.594,5.594,0,0,1,2.906-.741,5.293,5.293,0,0,1,3.84,1.439,5.777,5.777,0,0,1,1.66,3.91l.021.795A6.075,6.075,0,0,1,90.7-1.4,5.19,5.19,0,0,1,86.689.215,5.216,5.216,0,0,1,82.677-1.4a6.182,6.182,0,0,1-1.5-4.383Zm3.1.22a4.345,4.345,0,0,0,.623,2.534,2.055,2.055,0,0,0,1.783.877,2.06,2.06,0,0,0,1.762-.866,4.754,4.754,0,0,0,.634-2.77,4.3,4.3,0,0,0-.634-2.518,2.06,2.06,0,0,0-1.783-.893,2.027,2.027,0,0,0-1.762.888A4.834,4.834,0,0,0,84.283-5.7ZM100.4-3.212a1,1,0,0,0-.564-.9,6.406,6.406,0,0,0-1.81-.585q-4.146-.87-4.146-3.523A3.194,3.194,0,0,1,95.16-10.8a5.178,5.178,0,0,1,3.357-1.037,5.573,5.573,0,0,1,3.54,1.042,3.284,3.284,0,0,1,1.327,2.707h-3.1a1.5,1.5,0,0,0-.43-1.1,1.818,1.818,0,0,0-1.343-.435,1.858,1.858,0,0,0-1.214.354,1.119,1.119,0,0,0-.43.9.957.957,0,0,0,.489.833A5.028,5.028,0,0,0,99-6.988a13.468,13.468,0,0,1,1.955.521,3.212,3.212,0,0,1,2.46,3.126,3.032,3.032,0,0,1-1.364,2.573,5.885,5.885,0,0,1-3.523.983,6.147,6.147,0,0,1-2.594-.521,4.353,4.353,0,0,1-1.778-1.429,3.32,3.32,0,0,1-.645-1.96h2.943a1.621,1.621,0,0,0,.612,1.268,2.429,2.429,0,0,0,1.525.44,2.248,2.248,0,0,0,1.348-.338A1.053,1.053,0,0,0,100.4-3.212Z" transform="translate(359.958 5438.205)" fill="#008f85"/>
      <path id="Trazado_165314" data-name="Trazado 165314" d="M.806-6.7a7.96,7.96,0,0,1,1.385-4.919,4.5,4.5,0,0,1,3.79-1.831,4.045,4.045,0,0,1,3.186,1.44V-18.75h3.54V0H9.521L9.351-1.4A4.151,4.151,0,0,1,5.957.244,4.483,4.483,0,0,1,2.216-1.593,8.216,8.216,0,0,1,.806-6.7Zm3.528.263A5.214,5.214,0,0,0,4.98-3.59a2.108,2.108,0,0,0,1.88.99A2.361,2.361,0,0,0,9.167-3.982V-9.2a2.327,2.327,0,0,0-2.283-1.381Q4.333-10.583,4.333-6.439ZM21.521.244a6.484,6.484,0,0,1-4.73-1.782,6.335,6.335,0,0,1-1.825-4.749v-.342a7.979,7.979,0,0,1,.769-3.558A5.644,5.644,0,0,1,17.914-12.6a6.116,6.116,0,0,1,3.217-.848A5.482,5.482,0,0,1,25.4-11.743,6.944,6.944,0,0,1,26.953-6.9v1.44H18.542a3.277,3.277,0,0,0,1.031,2.075,3.118,3.118,0,0,0,2.179.781,3.808,3.808,0,0,0,3.186-1.477l1.733,1.941A5.3,5.3,0,0,1,24.524-.385,7.049,7.049,0,0,1,21.521.244Zm-.4-10.852a2.2,2.2,0,0,0-1.7.711,3.682,3.682,0,0,0-.836,2.035h4.907v-.282a2.626,2.626,0,0,0-.635-1.821A2.274,2.274,0,0,0,21.118-10.608ZM47.07-6.482a7.921,7.921,0,0,1-1.385,4.889A4.442,4.442,0,0,1,41.943.244a4.115,4.115,0,0,1-3.235-1.392V5.078H35.181V-13.208h3.271l.122,1.294a4.146,4.146,0,0,1,3.345-1.538,4.472,4.472,0,0,1,3.8,1.807,8.136,8.136,0,0,1,1.355,4.98Zm-3.528-.256a5.2,5.2,0,0,0-.653-2.844,2.127,2.127,0,0,0-1.9-1,2.31,2.31,0,0,0-2.283,1.27v5.408A2.349,2.349,0,0,0,41.016-2.6Q43.542-2.6,43.542-6.738ZM56.677-9.9a9.584,9.584,0,0,0-1.27-.1,2.584,2.584,0,0,0-2.625,1.355V0H49.255V-13.208h3.333l.1,1.575a3.269,3.269,0,0,1,2.942-1.819,3.7,3.7,0,0,1,1.1.159Zm.708,3.174a7.833,7.833,0,0,1,.757-3.5,5.54,5.54,0,0,1,2.179-2.38,6.357,6.357,0,0,1,3.3-.842,6.014,6.014,0,0,1,4.364,1.636,6.565,6.565,0,0,1,1.886,4.443l.024.9a6.9,6.9,0,0,1-1.7,4.877A5.9,5.9,0,0,1,63.647.244a5.927,5.927,0,0,1-4.559-1.831,7.025,7.025,0,0,1-1.7-4.98Zm3.528.25A4.937,4.937,0,0,0,61.621-3.6a2.336,2.336,0,0,0,2.026,1,2.341,2.341,0,0,0,2-.984,5.4,5.4,0,0,0,.72-3.148,4.888,4.888,0,0,0-.72-2.861,2.341,2.341,0,0,0-2.026-1.015,2.3,2.3,0,0,0-2,1.009A5.493,5.493,0,0,0,60.913-6.476Zm15.381-9.979v3.247h2.258v2.588H76.294v6.592a1.574,1.574,0,0,0,.281,1.05,1.41,1.41,0,0,0,1.074.317,5.626,5.626,0,0,0,1.038-.085V-.073A7.263,7.263,0,0,1,76.55.244q-3.711,0-3.784-3.748V-10.62H70.837v-2.588h1.929v-3.247ZM86.6.244a6.484,6.484,0,0,1-4.73-1.782,6.335,6.335,0,0,1-1.825-4.749v-.342a7.979,7.979,0,0,1,.769-3.558A5.644,5.644,0,0,1,82.99-12.6a6.116,6.116,0,0,1,3.217-.848,5.482,5.482,0,0,1,4.266,1.709A6.944,6.944,0,0,1,92.029-6.9v1.44H83.618A3.277,3.277,0,0,0,84.65-3.381a3.118,3.118,0,0,0,2.179.781,3.808,3.808,0,0,0,3.186-1.477l1.733,1.941A5.3,5.3,0,0,1,89.6-.385,7.049,7.049,0,0,1,86.6.244Zm-.4-10.852a2.2,2.2,0,0,0-1.7.711,3.682,3.682,0,0,0-.836,2.035h4.907v-.282a2.626,2.626,0,0,0-.635-1.821A2.274,2.274,0,0,0,86.194-10.608ZM99.524-2.6a2.314,2.314,0,0,0,1.587-.537,1.882,1.882,0,0,0,.635-1.428h3.308a4.525,4.525,0,0,1-.732,2.46A4.833,4.833,0,0,1,102.35-.372a6.17,6.17,0,0,1-2.765.616,5.734,5.734,0,0,1-4.468-1.8,7.125,7.125,0,0,1-1.636-4.974v-.232A7.044,7.044,0,0,1,95.1-11.633a5.667,5.667,0,0,1,4.456-1.819,5.555,5.555,0,0,1,3.973,1.41,4.992,4.992,0,0,1,1.52,3.754h-3.308a2.424,2.424,0,0,0-.635-1.675,2.116,2.116,0,0,0-1.611-.644,2.125,2.125,0,0,0-1.862.9,5.208,5.208,0,0,0-.629,2.916v.367a5.274,5.274,0,0,0,.623,2.934A2.151,2.151,0,0,0,99.524-2.6Zm13.037,0a2.314,2.314,0,0,0,1.587-.537,1.882,1.882,0,0,0,.635-1.428h3.308a4.525,4.525,0,0,1-.732,2.46,4.833,4.833,0,0,1-1.971,1.733,6.17,6.17,0,0,1-2.765.616,5.734,5.734,0,0,1-4.468-1.8,7.125,7.125,0,0,1-1.636-4.974v-.232a7.044,7.044,0,0,1,1.624-4.871,5.667,5.667,0,0,1,4.456-1.819,5.555,5.555,0,0,1,3.973,1.41,4.992,4.992,0,0,1,1.52,3.754h-3.308a2.424,2.424,0,0,0-.635-1.675,2.116,2.116,0,0,0-1.611-.644,2.125,2.125,0,0,0-1.862.9,5.208,5.208,0,0,0-.629,2.916v.367a5.274,5.274,0,0,0,.623,2.934A2.151,2.151,0,0,0,112.561-2.6ZM123.828,0h-3.54V-13.208h3.54Zm-3.748-16.626a1.737,1.737,0,0,1,.531-1.306,2,2,0,0,1,1.447-.513,2,2,0,0,1,1.44.513,1.727,1.727,0,0,1,.537,1.306,1.732,1.732,0,0,1-.543,1.318,2,2,0,0,1-1.434.513,2,2,0,0,1-1.434-.513A1.732,1.732,0,0,1,120.081-16.626Zm6.1,9.9a7.833,7.833,0,0,1,.757-3.5,5.54,5.54,0,0,1,2.179-2.38,6.357,6.357,0,0,1,3.3-.842,6.014,6.014,0,0,1,4.364,1.636,6.565,6.565,0,0,1,1.886,4.443l.024.9A6.9,6.9,0,0,1,137-1.593,5.9,5.9,0,0,1,132.446.244a5.927,5.927,0,0,1-4.559-1.831,7.025,7.025,0,0,1-1.7-4.98Zm3.528.25A4.937,4.937,0,0,0,130.42-3.6a2.336,2.336,0,0,0,2.026,1,2.341,2.341,0,0,0,2-.984,5.4,5.4,0,0,0,.72-3.148,4.888,4.888,0,0,0-.72-2.861,2.341,2.341,0,0,0-2.026-1.015,2.3,2.3,0,0,0-2,1.009A5.493,5.493,0,0,0,129.712-6.476Zm3.406-12.274h3.845l-3.381,3.784h-2.869Zm11,5.542.11,1.526a4.611,4.611,0,0,1,3.8-1.77,3.832,3.832,0,0,1,3.125,1.233,5.752,5.752,0,0,1,1.05,3.687V0h-3.528V-8.447a2.289,2.289,0,0,0-.488-1.63,2.186,2.186,0,0,0-1.624-.507,2.427,2.427,0,0,0-2.234,1.27V0H140.8V-13.208Z" transform="translate(360.958 5460.205)" fill="#1d272b"/>
      <rect id="Rectngulo_34968" data-name="Rectngulo 34968" width="6" height="50" transform="translate(349.958 5416.205)" fill="#d93328"/>
    </g>
  </g>
</svg>
